<svg width="44" height="36" viewBox="0 0 44 36" fill="none" xmlns="http://www.w3.org/2000/svg">
<path d="M16.2812 23.2969L15.8125 25.9219H19.6094V29.8906H15.0781L13.9219 36H9.73438L10.875 29.8906H8.25L7.14062 36H2.96875L4.09375 29.8906H0.578125V25.9219H4.85938L5.34375 23.2969H1.625V19.2344H6.10938L7.23438 13.1562H11.4219L10.2656 19.2344H12.8594L13.9844 13.1562H18.1719L17.0312 19.2344H20.6094V23.2969H16.2812ZM9.03125 25.9219H11.6094L12.0938 23.2969H9.5L9.03125 25.9219ZM43.7055 36H33.9155V18.3486C33.9155 18.0231 33.9155 17.429 33.9155 16.5664C33.9155 15.6875 33.9236 14.7191 33.9399 13.6611C33.9725 12.6032 34.0132 11.651 34.062 10.8047C33.6388 11.3092 33.2401 11.7406 32.8657 12.0986C32.5076 12.4567 32.1577 12.7904 31.8159 13.0996L27.7632 16.4443L22.7583 10.292L35.0141 0.306641H43.7055V36Z" fill="#77B255"/>
</svg>
