<svg xmlns="http://www.w3.org/2000/svg" width="110" height="37" fill="none"><path fill="#EA4335" d="M47.12 19.53c0 5.18-4.052 8.996-9.024 8.996-4.973 0-9.025-3.816-9.025-8.995 0-5.216 4.052-8.996 9.025-8.996 4.972 0 9.024 3.78 9.024 8.996Zm-3.95 0c0-3.236-2.349-5.45-5.074-5.45-2.726 0-5.074 2.214-5.074 5.45 0 3.205 2.348 5.452 5.074 5.452 2.725 0 5.074-2.251 5.074-5.451Z"/><path fill="#FBBC05" d="M66.587 19.53c0 5.18-4.052 8.996-9.024 8.996-4.973 0-9.024-3.816-9.024-8.995 0-5.212 4.051-8.996 9.024-8.996 4.972 0 9.024 3.78 9.024 8.996Zm-3.95 0c0-3.236-2.349-5.45-5.074-5.45-2.726 0-5.074 2.214-5.074 5.45 0 3.205 2.348 5.452 5.074 5.452 2.725 0 5.074-2.251 5.074-5.451Z"/><path fill="#4285F4" d="M85.245 11.078v16.15c0 6.644-3.918 9.358-8.55 9.358-4.36 0-6.984-2.917-7.973-5.301l3.439-1.432c.612 1.464 2.113 3.192 4.53 3.192 2.965 0 4.802-1.83 4.802-5.273v-1.294h-.137c-.885 1.091-2.588 2.044-4.738 2.044-4.498 0-8.618-3.917-8.618-8.959 0-5.078 4.12-9.028 8.618-9.028 2.146 0 3.85.953 4.738 2.011h.137v-1.464h3.752v-.004Zm-3.472 8.485c0-3.168-2.113-5.483-4.802-5.483-2.725 0-5.009 2.315-5.009 5.483 0 3.135 2.284 5.419 5.01 5.419 2.688 0 4.801-2.284 4.801-5.419Z"/><path fill="#34A853" d="M91.43 1.612v26.363h-3.852V1.612h3.853Z"/><path fill="#EA4335" d="m106.444 22.491 3.067 2.044c-.99 1.464-3.375 3.987-7.496 3.987-5.11 0-8.927-3.95-8.927-8.996 0-5.35 3.85-8.996 8.485-8.996 4.669 0 6.952 3.716 7.698 5.723l.41 1.022-12.026 4.98c.921 1.806 2.353 2.726 4.36 2.726 2.012 0 3.407-.99 4.429-2.49Zm-9.438-3.236 8.039-3.338c-.442-1.124-1.772-1.907-3.338-1.907-2.007 0-4.802 1.773-4.7 5.245Z"/><path fill="#4285F4" d="M14.486 17.19v-3.816h12.861c.126.665.19 1.452.19 2.303 0 2.864-.782 6.405-3.305 8.927-2.453 2.556-5.589 3.918-9.742 3.918C6.792 28.522.32 22.252.32 14.554S6.792.585 14.49.585c4.259 0 7.293 1.671 9.572 3.85l-2.693 2.693c-1.635-1.534-3.85-2.726-6.883-2.726-5.621 0-10.018 4.53-10.018 10.152 0 5.621 4.397 10.152 10.018 10.152 3.646 0 5.723-1.464 7.053-2.795 1.08-1.079 1.789-2.62 2.069-4.725l-9.122.004Z"/></svg>