<svg width="54" height="54" viewBox="0 0 54 54" fill="none" xmlns="http://www.w3.org/2000/svg">
<path d="M50.76 27.5625C50.76 25.8075 50.6025 24.12 50.31 22.5H27V32.085H40.32C39.735 35.1675 37.98 37.7775 35.3475 39.5325V45.765H43.38C48.06 41.445 50.76 35.1 50.76 27.5625Z" fill="#4285F4"/>
<path d="M27.0003 51.75C33.6828 51.75 39.2853 49.545 43.3803 45.765L35.3478 39.5325C33.1428 41.0175 30.3303 41.9175 27.0003 41.9175C20.5653 41.9175 15.0978 37.575 13.1403 31.725H4.90527V38.115C8.97777 46.1925 17.3253 51.75 27.0003 51.75Z" fill="#34A853"/>
<path d="M13.14 31.7025C12.645 30.2175 12.3525 28.6425 12.3525 27C12.3525 25.3575 12.645 23.7825 13.14 22.2975V15.9075H4.905C3.2175 19.2375 2.25 22.995 2.25 27C2.25 31.005 3.2175 34.7625 4.905 38.0925L11.3175 33.0975L13.14 31.7025Z" fill="#FBBC05"/>
<path d="M27.0003 12.105C30.6453 12.105 33.8853 13.365 36.4728 15.795L43.5603 8.7075C39.2628 4.7025 33.6828 2.25 27.0003 2.25C17.3253 2.25 8.97777 7.8075 4.90527 15.9075L13.1403 22.2975C15.0978 16.4475 20.5653 12.105 27.0003 12.105Z" fill="#EA4335"/>
</svg>
