<svg xmlns="http://www.w3.org/2000/svg" width="355" height="344" fill="none"><path fill="#000" d="M270 185.663c0 5.195-1.871 9.378-5.613 12.547-3.741 3.137-8.98 5.016-15.715 5.637v10.048h-6.686v-9.852c-7.939-.164-14.902-1.569-20.888-4.215v-12.94c2.83 1.405 6.23 2.647 10.2 3.725 4.002 1.078 7.565 1.715 10.688 1.912V177.33l-3.27-1.274c-6.442-2.549-11.013-5.31-13.714-8.283-2.668-3.007-4.002-6.715-4.002-11.127 0-4.738 1.838-8.626 5.515-11.665 3.709-3.071 8.866-4.934 15.471-5.587v-7.499h6.686v7.303c7.451.326 14.186 1.829 20.205 4.509l-4.587 11.469c-5.076-2.091-10.282-3.366-15.618-3.823v14.459c6.345 2.451 10.851 4.575 13.519 6.372 2.701 1.797 4.669 3.774 5.906 5.93 1.269 2.157 1.903 4.673 1.903 7.549Zm-14.69.735c0-1.373-.553-2.533-1.66-3.48-1.106-.948-2.765-1.928-4.978-2.941v12.204c4.425-.751 6.638-2.679 6.638-5.783Zm-19.62-29.752c0 1.438.488 2.631 1.464 3.578 1.009.915 2.62 1.863 4.832 2.843v-11.518c-4.197.621-6.296 2.32-6.296 5.097Z" opacity=".3" style="mix-blend-mode:color-burn"/><path fill="#000" d="M316 138.434c0 2.661-.955 4.804-2.864 6.427-1.909 1.607-4.581 2.569-8.017 2.887v5.147h-3.412v-5.046c-4.05-.084-7.603-.804-10.657-2.159v-6.628c1.444.72 3.179 1.356 5.204 1.908 2.042.552 3.86.879 5.453.979v-7.783l-1.668-.652c-3.287-1.306-5.619-2.72-6.997-4.243-1.361-1.54-2.042-3.439-2.042-5.699 0-2.426.938-4.418 2.814-5.975 1.892-1.573 4.523-2.527 7.893-2.861v-3.841h3.412v3.74c3.801.167 7.237.937 10.308 2.31l-2.34 5.874a26.736 26.736 0 0 0-7.968-1.958v7.406c3.237 1.255 5.536 2.343 6.897 3.264 1.378.92 2.382 1.933 3.013 3.037.647 1.105.971 2.393.971 3.866Zm-7.495.377c0-.703-.282-1.297-.847-1.783-.564-.485-1.411-.987-2.539-1.506v6.251c2.257-.385 3.386-1.372 3.386-2.962Zm-10.01-15.239c0 .737.249 1.348.747 1.833.515.469 1.336.954 2.465 1.456v-5.9c-2.141.318-3.212 1.189-3.212 2.611ZM300 220.566c0 1.901-.687 3.431-2.062 4.59-1.374 1.148-3.299 1.835-5.773 2.063v3.676h-2.456v-3.605c-2.916-.06-5.474-.574-7.673-1.542v-4.734c1.04.514 2.289.968 3.747 1.363 1.47.394 2.779.628 3.926.699v-5.559l-1.201-.466c-2.367-.932-4.046-1.942-5.038-3.03-.98-1.1-1.47-2.457-1.47-4.071 0-1.733.675-3.156 2.026-4.268 1.362-1.123 3.257-1.805 5.683-2.044v-2.743h2.456v2.671c2.737.12 5.211.67 7.423 1.65l-1.686 4.196a19.396 19.396 0 0 0-5.737-1.399v5.29c2.331.897 3.986 1.674 4.966 2.332.993.657 1.716 1.38 2.17 2.169.466.789.699 1.71.699 2.762Zm-5.396.269c0-.502-.204-.927-.61-1.273-.406-.347-1.016-.706-1.829-1.076v4.465c1.626-.275 2.439-.981 2.439-2.116Zm-7.208-10.885c0 .526.18.962.538 1.309.371.335.962.682 1.775 1.04v-4.214c-1.542.227-2.313.849-2.313 1.865Z" opacity=".2" style="mix-blend-mode:color-burn"/><g filter="url(#a)"><ellipse cx="177.5" cy="217.395" fill="#FFBC49" fill-opacity=".2" rx="57.5" ry="96.5"/></g><defs><filter id="a" width="355" height="433" x="0" y=".895" color-interpolation-filters="sRGB" filterUnits="userSpaceOnUse"><feFlood flood-opacity="0" result="BackgroundImageFix"/><feBlend in="SourceGraphic" in2="BackgroundImageFix" result="shape"/><feGaussianBlur result="effect1_foregroundBlur_294_2817" stdDeviation="60"/></filter></defs></svg>