<svg width="108" height="40" viewBox="0 0 108 40" fill="none" xmlns="http://www.w3.org/2000/svg">
<path d="M46.2969 23.0299C46.2969 28.0927 42.3512 31.8234 37.5088 31.8234C32.6665 31.8234 28.7207 28.0927 28.7207 23.0299C28.7207 17.9314 32.6665 14.2363 37.5088 14.2363C42.3512 14.2363 46.2969 17.9314 46.2969 23.0299ZM42.4499 23.0299C42.4499 19.8661 40.163 17.7014 37.5088 17.7014C34.8546 17.7014 32.5677 19.8661 32.5677 23.0299C32.5677 26.1619 34.8546 28.3583 37.5088 28.3583C40.163 28.3583 42.4499 26.1579 42.4499 23.0299Z" fill="#EA4335"/>
<path d="M65.2559 23.0299C65.2559 28.0927 61.3101 31.8234 56.4678 31.8234C51.6254 31.8234 47.6797 28.0927 47.6797 23.0299C47.6797 17.9353 51.6254 14.2363 56.4678 14.2363C61.3101 14.2363 65.2559 17.9314 65.2559 23.0299ZM61.4089 23.0299C61.4089 19.8661 59.122 17.7014 56.4678 17.7014C53.8136 17.7014 51.5267 19.8661 51.5267 23.0299C51.5267 26.1619 53.8136 28.3583 56.4678 28.3583C59.122 28.3583 61.4089 26.1579 61.4089 23.0299Z" fill="#FDB948"/>
<path d="M83.4231 14.7676V30.5547C83.4231 37.0487 79.6077 39.7011 75.0971 39.7011C70.8511 39.7011 68.2957 36.8505 67.332 34.5193L70.6813 33.1198C71.2777 34.551 72.7391 36.24 75.0931 36.24C77.9804 36.24 79.7696 34.4519 79.7696 31.086V29.8212H79.6353C78.7743 30.8877 77.1154 31.8194 75.022 31.8194C70.6418 31.8194 66.6289 27.9896 66.6289 23.0616C66.6289 18.0979 70.6418 14.2363 75.022 14.2363C77.1114 14.2363 78.7703 15.168 79.6353 16.2028H79.7696V14.7716H83.4231V14.7676ZM80.0421 23.0616C80.0421 19.9652 77.9843 17.7014 75.3657 17.7014C72.7115 17.7014 70.4878 19.9652 70.4878 23.0616C70.4878 26.1262 72.7115 28.3583 75.3657 28.3583C77.9843 28.3583 80.0421 26.1262 80.0421 23.0616Z" fill="#4285F4"/>
<path d="M89.4475 5.51562V31.2856H85.6953V5.51562H89.4475Z" fill="#34A853"/>
<path d="M104.069 25.9241L107.055 27.9222C106.091 29.3535 103.769 31.8195 99.7558 31.8195C94.7792 31.8195 91.0625 27.9579 91.0625 23.0259C91.0625 17.7966 94.8108 14.2324 99.3253 14.2324C103.871 14.2324 106.095 17.864 106.822 19.8265L107.221 20.8256L95.5099 25.6941C96.4065 27.4584 97.8007 28.3584 99.7558 28.3584C101.715 28.3584 103.074 27.391 104.069 25.9241ZM94.8779 22.7603L102.706 19.4974C102.276 18.3992 100.98 17.6341 99.4556 17.6341C97.5005 17.6341 94.7792 19.3666 94.8779 22.7603Z" fill="#EA4335"/>
<path d="M14.517 20.7429V17.0122H27.0416C27.164 17.6624 27.2272 18.4315 27.2272 19.2641C27.2272 22.0631 26.4649 25.5242 24.0082 27.9902C21.6186 30.4879 18.5655 31.82 14.521 31.82C7.02444 31.82 0.720703 25.6907 0.720703 18.1659C0.720703 10.641 7.02444 4.51172 14.521 4.51172C18.6682 4.51172 21.6226 6.14514 23.8423 8.27414L21.2197 10.9066C19.628 9.40802 17.4714 8.24242 14.517 8.24242C9.04274 8.24242 4.76126 12.6709 4.76126 18.1659C4.76126 23.6608 9.04274 28.0893 14.517 28.0893C18.0678 28.0893 20.0901 26.6581 21.3856 25.3577C22.4362 24.3031 23.1274 22.7965 23.3999 20.7389L14.517 20.7429Z" fill="#4285F4"/>
<g clip-path="url(#clip0_927_51692)">
<path d="M34.465 8.13838C34.3625 8.13838 34.2606 8.10694 34.1729 8.04431L32.1102 6.56509L30.0476 8.04431C29.8719 8.17007 29.6361 8.17007 29.4614 8.04228C29.2867 7.91576 29.2132 7.69111 29.2786 7.48599L30.0478 5.00322L28.0037 3.5628C27.83 3.43476 27.7578 3.2096 27.8242 3.00423C27.8911 2.79936 28.0818 2.66016 28.2973 2.65864L30.829 2.65484L31.6351 0.233679C31.703 0.0285566 31.8945 -0.109375 32.1102 -0.109375C32.326 -0.109375 32.5174 0.0288101 32.5856 0.233679L33.378 2.65484L35.9226 2.65864C36.1389 2.66016 36.3298 2.79961 36.396 3.00423C36.4627 3.2096 36.3904 3.43476 36.2165 3.5628L34.1724 5.00322L34.9416 7.48599C35.0076 7.69111 34.9333 7.91576 34.7591 8.04228C34.6711 8.10668 34.5681 8.13838 34.465 8.13838Z" fill="#FDB948"/>
</g>
<g clip-path="url(#clip1_927_51692)">
<path d="M45.2413 8.13838C45.1389 8.13838 45.037 8.10694 44.9492 8.04431L42.8866 6.56509L40.824 8.04431C40.6482 8.17007 40.4124 8.17007 40.2378 8.04228C40.0631 7.91576 39.9895 7.69111 40.0549 7.48599L40.8242 5.00322L38.7801 3.5628C38.6064 3.43476 38.5341 3.2096 38.6006 3.00423C38.6675 2.79936 38.8582 2.66016 39.0737 2.65864L41.6054 2.65484L42.4114 0.233679C42.4794 0.0285566 42.6708 -0.109375 42.8866 -0.109375C43.1024 -0.109375 43.2938 0.0288101 43.362 0.233679L44.1543 2.65484L46.699 2.65864C46.9153 2.66016 47.1062 2.79961 47.1724 3.00423C47.239 3.2096 47.1668 3.43476 46.9929 3.5628L44.9487 5.00322L45.718 7.48599C45.7839 7.69111 45.7096 7.91576 45.5354 8.04228C45.4475 8.10668 45.3445 8.13838 45.2413 8.13838Z" fill="#FDB948"/>
</g>
<g clip-path="url(#clip2_927_51692)">
<path d="M56.0167 8.13838C55.9143 8.13838 55.8124 8.10694 55.7246 8.04431L53.662 6.56509L51.5994 8.04431C51.4236 8.17007 51.1878 8.17007 51.0131 8.04228C50.8384 7.91576 50.7649 7.69111 50.8303 7.48599L51.5996 5.00322L49.5555 3.5628C49.3818 3.43476 49.3095 3.2096 49.376 3.00423C49.4429 2.79936 49.6336 2.66016 49.8491 2.65864L52.3808 2.65484L53.1868 0.233679C53.2548 0.0285566 53.4462 -0.109375 53.662 -0.109375C53.8778 -0.109375 54.0692 0.0288101 54.1374 0.233679L54.9297 2.65484L57.4744 2.65864C57.6907 2.66016 57.8816 2.79961 57.9478 3.00423C58.0144 3.2096 57.9422 3.43476 57.7682 3.5628L55.7241 5.00322L56.4934 7.48599C56.5593 7.69111 56.485 7.91576 56.3108 8.04228C56.2228 8.10668 56.1199 8.13838 56.0167 8.13838Z" fill="#FDB948"/>
</g>
<g clip-path="url(#clip3_927_51692)">
<path d="M66.7931 8.13838C66.6906 8.13838 66.5887 8.10694 66.501 8.04431L64.4384 6.56509L62.3757 8.04431C62.2 8.17007 61.9642 8.17007 61.7895 8.04228C61.6148 7.91576 61.5413 7.69111 61.6067 7.48599L62.376 5.00322L60.3318 3.5628C60.1582 3.43476 60.0859 3.2096 60.1523 3.00423C60.2193 2.79936 60.4099 2.66016 60.6255 2.65864L63.1572 2.65484L63.9632 0.233679C64.0312 0.0285566 64.2226 -0.109375 64.4384 -0.109375C64.6541 -0.109375 64.8456 0.0288101 64.9138 0.233679L65.7061 2.65484L68.2507 2.65864C68.467 2.66016 68.6579 2.79961 68.7241 3.00423C68.7908 3.2096 68.7185 3.43476 68.5446 3.5628L66.5005 5.00322L67.2698 7.48599C67.3357 7.69111 67.2614 7.91576 67.0872 8.04228C66.9992 8.10668 66.8963 8.13838 66.7931 8.13838Z" fill="#FDB948"/>
</g>
<g clip-path="url(#clip4_927_51692)">
<path d="M77.5685 8.13838C77.466 8.13838 77.3641 8.10694 77.2764 8.04431L75.2137 6.56509L73.1511 8.04431C72.9754 8.17007 72.7396 8.17007 72.5649 8.04228C72.3902 7.91576 72.3167 7.69111 72.3821 7.48599L73.1514 5.00322L71.1072 3.5628C70.9336 3.43476 70.8613 3.2096 70.9277 3.00423C70.9947 2.79936 71.1853 2.66016 71.4008 2.65864L73.9326 2.65484L74.7386 0.233679C74.8065 0.0285566 74.998 -0.109375 75.2137 -0.109375C75.4295 -0.109375 75.6209 0.0288101 75.6892 0.233679L76.4815 2.65484L79.0261 2.65864C79.2424 2.66016 79.4333 2.79961 79.4995 3.00423C79.5662 3.2096 79.4939 3.43476 79.32 3.5628L77.2759 5.00322L78.0451 7.48599C78.1111 7.69111 78.0368 7.91576 77.8626 8.04228C77.7746 8.10668 77.6717 8.13838 77.5685 8.13838Z" fill="#FDB948"/>
</g>
<defs>
<clipPath id="clip0_927_51692">
<rect width="8.62074" height="8.62074" fill="white" transform="translate(28.1104 0.201172)"/>
</clipPath>
<clipPath id="clip1_927_51692">
<rect width="8.62074" height="8.62074" fill="white" transform="translate(38.8867 0.201172)"/>
</clipPath>
<clipPath id="clip2_927_51692">
<rect width="8.62074" height="8.62074" fill="white" transform="translate(49.6621 0.201172)"/>
</clipPath>
<clipPath id="clip3_927_51692">
<rect width="8.62074" height="8.62074" fill="white" transform="translate(60.4385 0.201172)"/>
</clipPath>
<clipPath id="clip4_927_51692">
<rect width="8.62074" height="8.62074" fill="white" transform="translate(71.2139 0.201172)"/>
</clipPath>
</defs>
</svg>
