<svg width="17" height="16" viewBox="0 0 17 16" fill="none" xmlns="http://www.w3.org/2000/svg">
<path d="M4.23045 5.19658V16H0.795211V5.19658H4.23045ZM4.45449 1.85592C4.45449 2.38991 4.27401 2.83272 3.91306 3.18437C3.55212 3.53602 3.08537 3.71184 2.51283 3.71184H2.49416C1.92162 3.71184 1.4611 3.53602 1.1126 3.18437C0.764095 2.83272 0.589844 2.38991 0.589844 1.85592C0.589844 1.32194 0.770318 0.879121 1.13127 0.527473C1.49222 0.175824 1.95896 0 2.5315 0C3.10404 0 3.56456 0.175824 3.91306 0.527473C4.26157 0.879121 4.44204 1.32194 4.45449 1.85592ZM16.5898 9.80708V16H13.1733V10.2173C13.1733 9.44892 13.0301 8.84982 12.7439 8.42002C12.4576 7.99023 12.0157 7.77534 11.4183 7.77534C10.9827 7.77534 10.6217 7.89906 10.3355 8.14652C10.0492 8.39398 9.82516 8.70655 9.66336 9.08425C9.58868 9.30566 9.55134 9.5987 9.55134 9.96337V16H6.1161C6.12854 13.0956 6.13477 10.7448 6.13477 8.9475C6.13477 7.15018 6.13477 6.0757 6.13477 5.72405L6.1161 5.19658H9.55134V6.75946H9.53267C9.66958 6.52503 9.81271 6.32316 9.96207 6.15385C10.1114 5.98453 10.3044 5.79569 10.5408 5.5873C10.7773 5.37892 11.0823 5.22263 11.4557 5.11844C11.8291 5.01425 12.2273 4.95564 12.6505 4.94261C13.8329 4.94261 14.7851 5.35287 15.507 6.17338C16.2289 6.9939 16.5898 8.20513 16.5898 9.80708Z" fill="black"/>
</svg>
