<svg width="40" height="40" viewBox="0 0 40 40" fill="none" xmlns="http://www.w3.org/2000/svg">
<g id="vuesax/bold/info-circle">
<g id="info-circle">
<path id="Vector" d="M19.9987 36.6666C10.8154 36.6666 3.33203 29.1833 3.33203 20C3.33203 10.8166 10.8154 3.33329 19.9987 3.33329C29.182 3.33329 36.6654 10.8166 36.6654 20C36.6654 29.1833 29.182 36.6666 19.9987 36.6666ZM18.7487 26.6666C18.7487 27.35 19.3154 27.9166 19.9987 27.9166C20.682 27.9166 21.2487 27.35 21.2487 26.6666V18.3333C21.2487 17.65 20.682 17.0833 19.9987 17.0833C19.3154 17.0833 18.7487 17.65 18.7487 18.3333V26.6666ZM21.532 12.7C21.4487 12.4833 21.332 12.3166 21.182 12.15C21.0154 12 20.832 11.8833 20.632 11.8C20.432 11.7166 20.2154 11.6666 19.9987 11.6666C19.782 11.6666 19.5654 11.7166 19.3654 11.8C19.1654 11.8833 18.982 12 18.8154 12.15C18.6654 12.3166 18.5487 12.4833 18.4654 12.7C18.382 12.9 18.332 13.1166 18.332 13.3333C18.332 13.55 18.382 13.7666 18.4654 13.9666C18.5487 14.1666 18.6654 14.35 18.8154 14.5166C18.982 14.6666 19.1654 14.7833 19.3654 14.8666C19.7654 15.0333 20.232 15.0333 20.632 14.8666C20.832 14.7833 21.0154 14.6666 21.182 14.5166C21.332 14.35 21.4487 14.1666 21.532 13.9666C21.6154 13.7666 21.6654 13.55 21.6654 13.3333C21.6654 13.1166 21.6154 12.9 21.532 12.7Z" fill="#FDB948"/>
</g>
</g>
</svg>
