<svg width="15" height="18" viewBox="0 0 15 18" fill="none" xmlns="http://www.w3.org/2000/svg">
<path d="M0.636719 6.45288C0.636719 5.6779 0.773974 4.94813 1.04848 4.26357C1.32299 3.57901 1.70208 2.97841 2.18574 2.46176C2.6694 1.94511 3.22495 1.4995 3.85241 1.12492C4.47986 0.750353 5.15306 0.466196 5.87201 0.272452C6.59097 0.0787084 7.32953 -0.0117053 8.0877 0.0012109C9.23803 0.0012109 10.3099 0.240161 11.3034 0.718063C12.2969 1.19596 13.1008 1.89344 13.7151 2.81049C14.3295 3.72755 14.6367 4.76085 14.6367 5.91039C14.6367 6.60787 14.5714 7.28597 14.4406 7.9447C14.3099 8.60343 14.0877 9.24279 13.774 9.86277C13.4602 10.4827 13.0942 11.0188 12.6759 11.4708C12.2576 11.9229 11.7348 12.2975 11.1073 12.5946C10.4799 12.8916 9.78705 13.0272 9.02888 13.0014C8.53214 13.0014 8.04195 12.8852 7.55829 12.6527C7.07463 12.4202 6.72169 12.1037 6.49946 11.7033C6.4341 11.9875 6.33607 12.3943 6.20535 12.9239C6.07463 13.4535 5.98312 13.7958 5.93084 13.9508C5.87855 14.1058 5.80665 14.3641 5.71515 14.7257C5.62365 15.0874 5.52561 15.3393 5.42103 15.4813C5.31646 15.6234 5.20535 15.8494 5.0877 16.1594C4.97005 16.4694 4.80012 16.7536 4.5779 17.0119C4.35567 17.2702 4.12691 17.5802 3.89162 17.9419L3.75437 18L3.65633 17.8838C3.53868 16.7471 3.47986 16.069 3.47986 15.8494C3.47986 15.1907 3.55829 14.448 3.71515 13.6214C3.87201 12.7948 4.11384 11.755 4.44064 10.5021C4.76744 9.24924 4.95698 8.51947 5.00927 8.31281C4.77397 7.84783 4.65633 7.24077 4.65633 6.49162C4.65633 5.88456 4.84587 5.3227 5.22495 4.80605C5.60404 4.2894 6.0877 4.02462 6.67593 4.01171C7.12038 4.01171 7.46678 4.16024 7.71515 4.45732C7.96352 4.75439 8.0877 5.1225 8.0877 5.56165C8.0877 6.03956 7.93084 6.72412 7.61711 7.61534C7.30339 8.50656 7.13999 9.18466 7.12691 9.64965C7.12691 10.1017 7.29031 10.4763 7.61711 10.7734C7.94391 11.0704 8.3426 11.219 8.81319 11.219C9.21842 11.219 9.59097 11.1286 9.93084 10.9477C10.2707 10.7669 10.5583 10.5215 10.7936 10.2115C11.0289 9.90151 11.2315 9.55923 11.4014 9.18466C11.5714 8.81009 11.7086 8.41614 11.8132 8.00282C11.9178 7.58951 11.9897 7.1891 12.0289 6.80161C12.0681 6.41413 12.0942 6.05247 12.1073 5.71665C12.1073 4.47669 11.7086 3.50797 10.9112 2.81049C10.1138 2.11302 9.06809 1.76428 7.77397 1.76428C6.32299 1.76428 5.10731 2.22926 4.12691 3.15923C3.14652 4.0892 2.65633 5.27104 2.65633 6.70474C2.65633 7.02765 2.70208 7.33764 2.79358 7.63471C2.88508 7.93179 2.98312 8.16428 3.0877 8.33219C3.19227 8.5001 3.29031 8.66801 3.38182 8.83592C3.47332 9.00383 3.51907 9.11362 3.51907 9.16529C3.51907 9.35903 3.46678 9.61736 3.36221 9.94026C3.25763 10.2632 3.12038 10.4246 2.95044 10.4246C2.93737 10.4246 2.87855 10.4182 2.77397 10.4052C2.39489 10.289 2.06156 10.0888 1.77397 9.80464C1.48639 9.52048 1.26417 9.1782 1.10731 8.7778C0.950444 8.3774 0.832797 7.98991 0.754366 7.61534C0.675934 7.24077 0.636719 6.85328 0.636719 6.45288Z" fill="black"/>
</svg>
