<svg width="17" height="16" viewBox="0 0 17 16" fill="none" xmlns="http://www.w3.org/2000/svg">
<path fill-rule="evenodd" clip-rule="evenodd" d="M15.0712 1.4746C15.1481 1.38671 15.2069 1.28453 15.2443 1.17391C15.2817 1.0633 15.2969 0.9464 15.2891 0.829899C15.2813 0.713397 15.2506 0.599573 15.1988 0.494925C15.147 0.390277 15.0751 0.296854 14.9872 0.21999C14.8993 0.143126 14.7972 0.0843275 14.6865 0.0469504C14.5759 0.00957337 14.459 -0.00564986 14.3425 0.00214991C14.226 0.00994968 14.1122 0.0406198 14.0075 0.092409C13.9029 0.144198 13.8094 0.216092 13.7326 0.303986L9.19035 5.49486L5.33524 0.35554C5.25245 0.245148 5.14508 0.155549 5.02165 0.0938381C4.89823 0.0321274 4.76213 0 4.62413 0H1.06858C0.903499 0 0.741683 0.0459665 0.60126 0.132749C0.460837 0.219531 0.347355 0.3437 0.27353 0.491343C0.199705 0.638986 0.168455 0.804269 0.18328 0.968672C0.198105 1.13307 0.258419 1.2901 0.357466 1.42216L6.07924 9.05026L1.28813 14.5256C1.21127 14.6135 1.15246 14.7156 1.11508 14.8262C1.07771 14.9369 1.06248 15.0538 1.07028 15.1703C1.07808 15.2868 1.10875 15.4006 1.16055 15.5052C1.21234 15.6099 1.28423 15.7033 1.37213 15.7802C1.46003 15.857 1.56221 15.9158 1.67283 15.9532C1.78345 15.9906 1.90036 16.0058 2.01686 15.998C2.13337 15.9902 2.2472 15.9595 2.35185 15.9078C2.4565 15.856 2.54993 15.7841 2.6268 15.6962L7.16902 10.5044L11.0241 15.6437C11.1069 15.7541 11.2143 15.8437 11.3377 15.9054C11.4611 15.9671 11.5972 15.9993 11.7352 15.9993H15.2908C15.4559 15.9993 15.6177 15.9533 15.7581 15.8665C15.8985 15.7797 16.012 15.6556 16.0858 15.5079C16.1597 15.3603 16.1909 15.195 16.1761 15.0306C16.1613 14.8662 16.101 14.7092 16.0019 14.5771L10.2801 6.94902L15.0712 1.4746ZM12.1797 14.2216L2.84635 1.7777H4.17969L13.513 14.2216H12.1797Z" fill="black"/>
</svg>
