<svg width="24" height="24" viewBox="0 0 24 24" fill="none" xmlns="http://www.w3.org/2000/svg">
<g clip-path="url(#clip0_2169_24764)">
<path d="M10.7204 0.0879968C6.50405 0.527997 2.73669 3.30384 1.02405 7.232C-0.0796315 9.768 -0.263311 12.688 0.520368 15.3762C1.48837 18.728 3.99237 21.5598 7.23237 22.9762C9.76837 24.0798 12.6884 24.2635 15.3767 23.4798C19.4004 22.3198 22.5685 19.0162 23.6085 14.9118C25.2322 8.48 21.2484 1.90352 14.8004 0.367997C13.384 0.0319968 12.1367 -0.0561632 10.7204 0.0879968ZM10.8804 7.52C11.904 8.88 12.7684 10 12.8004 10C12.8324 10 13.8967 8.88 15.1524 7.52L17.4484 5.04H18.7524L18.4724 5.33632C18.3124 5.50368 17.2724 6.63184 16.1604 7.84C15.0484 9.048 13.9604 10.2237 13.744 10.44L13.3604 10.848L16.3604 14.84C18.0084 17.04 19.3604 18.8637 19.3604 18.8963C19.3604 18.9363 18.3767 18.96 17.184 18.96L15.0004 18.952L12.9684 16.232C11.5684 14.352 10.9124 13.5435 10.8484 13.592C10.8004 13.632 9.66405 14.8563 8.32037 16.312L5.88037 18.96H5.26405C4.92037 18.96 4.64037 18.9437 4.64037 18.92C4.64037 18.8963 5.91237 17.5037 7.46405 15.832C9.00853 14.16 10.2885 12.76 10.304 12.7363C10.3124 12.7037 9.04037 10.968 7.48037 8.88C5.92037 6.8 4.64037 5.08 4.64037 5.06368C4.64037 5.04816 5.62405 5.04 6.83237 5.04H9.02405L10.8804 7.52Z" fill="white"/>
<path d="M6.61713 6.112C6.64897 6.168 8.66449 8.872 11.0808 12.1037L15.4808 17.9918L16.4645 18C17.0727 18 17.4408 17.968 17.4245 17.92C17.4171 17.88 15.409 15.1763 12.9771 11.92L8.54449 6H7.55281C6.72913 6 6.56081 6.01632 6.61713 6.112Z" fill="white"/>
</g>
<defs>
<clipPath id="clip0_2169_24764">
<rect width="24" height="24" fill="white"/>
</clipPath>
</defs>
</svg>
