<svg width="145" height="40" viewBox="0 0 145 40" fill="none" xmlns="http://www.w3.org/2000/svg">
<path d="M0.420119 11.0366L12.846 20.0594L0.420119 29.0821V26.8104L9.7464 20.0594L0.420119 13.29V11.0366ZM0.217773 6.75977L18.8335 20.0594L0.217773 33.4694V31.1884L15.7248 20.0594L0.217773 9.01316V6.75977ZM0.420119 22.3036L3.53808 20.0594L0.420119 17.806V15.5158L6.63764 20.0594L0.420119 24.5478V22.3036Z" fill="#9B2036"/>
<path fill-rule="evenodd" clip-rule="evenodd" d="M23.8369 0.229938H24.5267V40H23.8369V0.229938ZM37.1273 0.0919752C38.6817 0.0919752 40.4384 0.0919752 41.4042 1.43481C41.5452 1.64329 41.6678 1.8579 41.7721 2.07864C41.8763 2.29938 41.9622 2.52932 42.0296 2.76845C42.1032 3.00759 42.1553 3.24979 42.186 3.49506C42.2166 3.74032 42.2289 3.98559 42.2228 4.23086C42.2228 6.74178 40.7236 7.30283 39.997 7.57875C40.1502 7.62168 40.2974 7.67379 40.4384 7.73511C40.5795 7.79643 40.7174 7.87001 40.8523 7.95585C40.9872 8.03556 41.1129 8.12447 41.2294 8.22258C41.3521 8.32682 41.4655 8.43719 41.5697 8.55369C41.7475 8.74377 41.9039 8.95225 42.0388 9.17912C42.1737 9.39986 42.2871 9.63287 42.3791 9.87813C42.4711 10.1234 42.5385 10.3748 42.5815 10.6323C42.6244 10.8899 42.6428 11.1505 42.6366 11.4141C42.6366 12.7754 42.048 14.3481 40.9259 15.0195C39.7302 15.7553 38.5254 15.7553 37.1181 15.7553H31.7744V0.0919752H37.1273ZM36.2076 6.41987C37.1457 6.41987 38.7185 6.41987 38.7185 4.4608C38.7185 2.63049 37.1549 2.63049 36.4743 2.63049H35.1131V6.41987H36.2076ZM36.7962 13.0421C38.277 13.0421 39.1324 12.5362 39.1324 10.991C39.1324 8.93999 37.532 8.93999 36.7686 8.93999H35.1039V13.0513L36.7962 13.0421ZM49.4428 4.02851C49.8107 4.11129 50.1694 4.25845 50.5005 4.4424C50.8316 4.62635 51.1351 4.85629 51.4019 5.12302C51.6686 5.38974 51.9077 5.69326 52.0917 6.02437C52.9379 7.59715 52.9379 9.07795 52.9379 10.4852H46.8583C46.8307 12.0487 46.8031 13.7411 48.4035 13.7411C49.7923 13.7411 49.9579 12.5086 50.0498 11.7452L52.9379 11.9384C52.6987 13.0145 52.0825 15.9761 48.3391 15.9761C44.7889 15.9761 43.5196 13.1616 43.5196 10.0897C43.5135 9.7463 43.5288 9.40293 43.5656 9.05955C43.5962 8.71618 43.6484 8.37587 43.7219 8.03863C43.7955 7.70752 43.8906 7.37947 44.0071 7.05449C44.1174 6.72338 44.2462 6.40454 44.3934 6.09795C44.5957 5.75765 44.8348 5.44493 45.12 5.169C45.3959 4.89308 45.7178 4.66314 46.0581 4.46999C46.3984 4.27684 46.7663 4.13888 47.1526 4.03771C47.5297 3.94573 47.9252 3.90894 48.3207 3.91814C48.6978 3.89975 49.0749 3.93654 49.4428 4.02851ZM49.8935 8.62727C49.9119 8.00184 49.9579 6.05197 48.3851 6.05197C46.9319 6.05197 46.8859 7.81789 46.8859 8.62727H49.8935ZM60.0475 3.91814C60.2959 3.89975 60.5442 3.90894 60.7833 3.95493C61.0317 4.00092 61.2616 4.0837 61.4916 4.19407C61.7123 4.29524 61.9146 4.4332 62.1078 4.58956C62.2917 4.75512 62.4573 4.93907 62.6044 5.14141C63.0735 5.85882 63.0735 6.99931 63.0735 8.1398V15.7186H59.8636V8.1398C59.8636 7.10968 59.7624 6.41987 58.7599 6.41987C57.3251 6.41987 57.3251 7.55116 57.3251 8.95838V15.7186H54.1151V4.17567H57.1687V5.74845C57.6286 4.78271 58.2356 3.91814 60.0567 3.91814H60.0475ZM73.4299 15.7278H70.4499V13.8423C70.1004 14.6792 69.6038 15.9025 67.7735 15.9025C64.6739 15.9025 64.0853 12.3247 64.0853 10.0253C64.0853 9.10554 64.0852 4.01931 67.9114 4.01931C68.1414 3.99172 68.3805 4.00092 68.6104 4.04691C68.8312 4.0929 69.0519 4.17567 69.2635 4.27685C69.4658 4.38722 69.6589 4.52518 69.8245 4.69073C69.9901 4.84709 70.128 5.04024 70.2384 5.24258V0.101173H73.4023L73.4299 15.7278ZM70.2384 11.0922V9.04116C70.2384 8.01104 70.2384 6.15314 68.8312 6.15314C67.5895 6.15314 67.4239 7.65233 67.4239 9.51943C67.4239 11.7636 67.4239 13.6859 68.8128 13.6859C70.2384 13.6859 70.2384 11.9292 70.2384 11.0922ZM78.3506 3.20993H75.0947V0H78.3414L78.3506 3.20993ZM75.1223 4.18487H78.3322V15.7278H75.1223V4.18487ZM88.8909 2.15222C88.9707 2.15222 89.0473 2.15528 89.1209 2.16142C89.1945 2.16755 89.2711 2.17368 89.3508 2.17981C89.4244 2.19207 89.498 2.20434 89.5716 2.2166C89.6451 2.235 89.7187 2.25339 89.7923 2.27179V4.35043C89.731 4.33816 89.6727 4.3259 89.6176 4.31364C89.5562 4.30137 89.498 4.29217 89.4428 4.28604C89.3815 4.27991 89.3202 4.27378 89.2589 4.26765C89.1975 4.26152 89.1393 4.26152 89.0841 4.26765C88.707 4.26765 88.0816 4.31364 87.87 5.33456C88.0111 5.48785 88.1367 5.65647 88.2471 5.84042C88.3575 6.01824 88.4495 6.20832 88.523 6.41067C88.5966 6.60688 88.6518 6.80923 88.6886 7.01771C88.7254 7.22618 88.7407 7.43466 88.7346 7.64314C88.7346 9.97011 86.7663 11.129 84.5589 11.129C84.4302 11.129 84.3014 11.1229 84.1726 11.1106C84.0439 11.1045 83.9151 11.0922 83.7863 11.0738C83.6576 11.0554 83.5319 11.034 83.4092 11.0094C83.2805 10.9849 83.1548 10.9542 83.0321 10.9175C82.2871 11.3405 82.2871 11.782 82.2871 11.874C82.2871 12.5178 82.9586 12.5638 84.2094 12.6558C86.8583 12.8029 87.6309 12.8489 88.4587 13.4284C88.661 13.5755 88.845 13.7411 89.0013 13.9342C89.1577 14.1182 89.2956 14.3297 89.3968 14.5505C89.5072 14.7712 89.5808 15.0103 89.6267 15.2495C89.6727 15.4978 89.6911 15.7461 89.6727 15.9853C89.6727 19.5723 85.8834 19.8482 84.0163 19.8482C83.0229 19.8482 79.2795 19.8482 79.2795 17.0982C79.2795 15.6634 80.4292 15.1851 81.1466 14.9276C80.7787 14.7436 79.6474 14.2286 79.6474 12.9409C79.6474 11.5337 80.8707 10.8347 81.6341 10.384C80.9351 10.0069 79.9234 9.44585 79.9234 7.49598C79.9234 4.74592 82.2595 3.92734 84.2462 3.92734C84.4608 3.92121 84.6754 3.93041 84.89 3.95493C85.1046 3.97333 85.3162 4.00399 85.5247 4.04691C85.7331 4.09596 85.9385 4.15421 86.1409 4.22166C86.3432 4.28911 86.5425 4.37189 86.7387 4.46999C86.8951 3.23753 87.1526 2.17061 88.9185 2.17061L88.8909 2.15222ZM84.329 9.36307C85.1844 9.36307 85.3959 8.73764 85.3959 7.51437C85.3959 6.08876 85.0464 5.64728 84.3842 5.64728C83.5472 5.64728 83.2253 6.25431 83.2253 7.58795C83.2253 8.30536 83.3081 9.37227 84.3382 9.37227L84.329 9.36307ZM84.4853 17.788C86.1501 17.788 86.8583 17.4477 86.8583 16.5647C86.8583 15.6818 86.0765 15.4518 85.589 15.4518C85.2027 15.3966 83.3448 15.2863 82.9126 15.2403C82.7715 15.2893 82.6397 15.3599 82.5171 15.4518C82.3944 15.5438 82.2871 15.6511 82.1952 15.7737C82.1093 15.8964 82.0419 16.0282 81.9928 16.1692C81.9438 16.3164 81.9162 16.4636 81.91 16.6107C81.91 17.4385 82.7286 17.788 84.4669 17.788H84.4853ZM98.3828 9.95171C98.3828 13.6583 96.9848 15.9853 93.6645 15.9853C90.335 15.9853 88.9737 13.6951 88.9737 9.95171C88.9737 6.33709 90.2338 3.92734 93.6921 3.92734C97.1135 3.92734 98.3828 6.32789 98.3828 9.95171ZM93.6921 13.7227C93.6859 13.7227 93.6798 13.7227 93.6737 13.7227C93.6737 13.7227 93.6706 13.7227 93.6645 13.7227H93.6921ZM93.6829 13.7227C94.6118 13.7227 95.0349 13.0421 95.0349 9.96091C95.0349 6.98092 94.6486 6.18073 93.6737 6.18073C92.6343 6.18073 92.3124 7.11888 92.3124 9.96091C92.3124 13.0145 92.7263 13.7227 93.6829 13.7227ZM103.865 3.86296C104.147 3.84456 104.429 3.85989 104.711 3.90894C104.993 3.95187 105.266 4.02545 105.529 4.12968C105.793 4.23392 106.041 4.36882 106.274 4.53438C106.507 4.6938 106.722 4.87775 106.918 5.08623C107.617 5.9232 107.617 7.33042 107.617 8.64567V12.0487C107.617 14.3757 107.635 14.8356 107.829 15.7553H106.182C106.158 15.5898 106.136 15.4212 106.118 15.2495C106.1 15.0778 106.084 14.9061 106.072 14.7344C106.06 14.5627 106.05 14.391 106.044 14.2194C106.038 14.0538 106.038 13.8852 106.044 13.7135C105.575 14.6332 104.821 16.0865 102.715 16.0865C100.691 16.0865 99.3117 14.7528 99.3117 12.6098C99.3056 12.3829 99.3209 12.153 99.3577 11.92C99.3945 11.6931 99.4466 11.4693 99.5141 11.2486C99.5877 11.0278 99.6796 10.8132 99.79 10.6047C99.9004 10.4024 100.026 10.2092 100.167 10.0253C101.041 8.99517 102.476 8.55369 104.37 8.55369C104.499 8.55369 104.628 8.55369 104.757 8.55369C104.885 8.55982 105.011 8.56595 105.134 8.57209C105.263 8.57822 105.391 8.58741 105.52 8.59968C105.649 8.61194 105.775 8.62727 105.897 8.64567V8.1582C105.897 7.33042 105.897 5.28857 103.763 5.28857C103.487 5.27018 103.221 5.30697 102.963 5.38055C102.706 5.46333 102.466 5.59209 102.255 5.75765C102.043 5.9232 101.869 6.13474 101.731 6.36468C101.593 6.59462 101.501 6.85215 101.455 7.11888L99.7716 6.84295C99.8084 6.57622 99.882 6.3095 99.9924 6.06116C100.094 5.81283 100.231 5.5737 100.397 5.36215C100.553 5.14141 100.747 4.94826 100.958 4.77351C101.17 4.60796 101.4 4.4608 101.639 4.35043C101.817 4.26458 101.994 4.191 102.172 4.12968C102.356 4.06224 102.543 4.01012 102.733 3.97333C102.917 3.93041 103.107 3.89975 103.303 3.88135C103.494 3.86296 103.684 3.85376 103.874 3.85376L103.865 3.86296ZM103.064 14.67C103.303 14.6608 103.552 14.6241 103.791 14.5597C104.021 14.4953 104.251 14.3941 104.453 14.2562C104.665 14.1274 104.858 13.971 105.023 13.7871C105.189 13.6123 105.327 13.4008 105.437 13.18C105.989 12.1223 105.989 11.267 105.925 10.0161C105.814 9.99157 105.704 9.97317 105.594 9.96091C105.477 9.94252 105.364 9.92719 105.253 9.91492C105.143 9.90266 105.03 9.89346 104.913 9.88733C104.803 9.8812 104.692 9.87813 104.582 9.87813C102.209 9.87813 101.133 10.7795 101.133 12.6742C101.133 13.8699 101.721 14.6608 103.055 14.6608L103.064 14.67ZM114.598 3.87215C114.883 3.84456 115.159 3.87215 115.435 3.92734C115.711 3.99172 115.968 4.0929 116.217 4.23086C116.465 4.35962 116.686 4.53438 116.879 4.73672C117.072 4.93907 117.238 5.169 117.366 5.41734C117.716 6.10715 117.716 7.10048 117.716 8.38813V15.737H116.005V8.62727C116.005 6.70499 116.005 5.29777 114.23 5.29777C112.841 5.29777 111.738 6.24511 111.738 9.51943V15.737H110.027V4.19407H111.627V5.96919C111.728 5.65647 111.876 5.37135 112.069 5.10462C112.262 4.83789 112.501 4.60796 112.768 4.42401C113.034 4.23086 113.329 4.0929 113.641 3.99172C113.954 3.89975 114.276 3.85376 114.607 3.86296L114.598 3.87215ZM128.21 15.7645H126.665V14.1642C126.536 14.4493 126.352 14.716 126.141 14.9552C125.929 15.1943 125.681 15.3966 125.405 15.5622C125.129 15.7278 124.835 15.8473 124.522 15.9209C124.209 16.0037 123.887 16.0313 123.575 16.0129C119.896 16.0129 119.509 11.8648 119.509 10.1265C119.509 6.09795 121.229 3.95493 123.612 3.95493C123.915 3.93654 124.219 3.96413 124.513 4.03771C124.807 4.11129 125.092 4.23086 125.35 4.39641C125.607 4.55277 125.837 4.75512 126.031 4.99425C126.233 5.22419 126.389 5.48172 126.5 5.76684V0.11037H128.21V15.7645ZM124.007 14.5413C124.191 14.5413 124.372 14.5198 124.55 14.4769C124.728 14.434 124.899 14.3727 125.065 14.2929C125.23 14.2071 125.384 14.1059 125.525 13.9894C125.66 13.8729 125.785 13.7411 125.902 13.5939C126.454 12.9225 126.5 11.9384 126.5 10.7795V8.85721C126.518 8.6426 126.515 8.42492 126.49 8.20418C126.472 7.98958 126.435 7.77497 126.38 7.56036C126.325 7.35188 126.251 7.14647 126.159 6.94413C126.073 6.74178 125.969 6.54863 125.847 6.36468C125.742 6.21139 125.617 6.07343 125.469 5.95079C125.328 5.82203 125.175 5.71472 125.01 5.62888C124.838 5.54304 124.66 5.47865 124.476 5.43573C124.292 5.38668 124.105 5.36522 123.915 5.37135C121.836 5.37135 121.413 7.70752 121.413 9.87813C121.413 12.5546 122.02 14.5413 124.007 14.5413ZM42.4895 37.2775H38.9852L38.1942 34.0676H33.8162L33.0344 37.2775H29.8613L34.5612 21.6234H38.0471L42.4895 37.2775ZM37.5412 31.3635L35.9684 24.9805L34.4509 31.3635H37.5412ZM51.641 37.2591H48.661V35.3645C48.3115 36.2014 47.8148 37.4247 45.9845 37.4247C42.8942 37.4247 42.3055 33.8469 42.3055 31.5475C42.3055 30.6277 42.3055 25.5415 46.1225 25.5415C46.3616 25.5139 46.5916 25.5323 46.8215 25.5691C47.0514 25.6151 47.2722 25.6979 47.4745 25.799C47.6769 25.9094 47.87 26.0474 48.0356 26.2129C48.2011 26.3785 48.3391 26.5624 48.4495 26.7648V21.6234H51.6226L51.641 37.2591ZM47.0147 35.2173C48.4403 35.2173 48.4403 33.4514 48.4403 32.6144V30.5633C48.4403 29.5332 48.4403 27.6753 47.0422 27.6753C45.7914 27.6753 45.635 29.1745 45.635 31.0416C45.635 33.2858 45.635 35.2173 47.0147 35.2173ZM57.6286 25.4587C58.0057 25.4403 58.3828 25.4771 58.7599 25.5691C59.1278 25.6611 59.4865 25.799 59.8176 25.983C60.1487 26.1669 60.4522 26.3969 60.719 26.6636C60.9949 26.9303 61.2248 27.2338 61.418 27.565C62.2549 29.1377 62.2549 30.6185 62.2549 32.0258H56.157C56.1294 33.5985 56.1018 35.2909 57.7022 35.2909C59.091 35.2909 59.2566 34.0492 59.3485 33.2858L62.2365 33.479C61.9974 34.5551 61.372 37.5167 57.6286 37.5167C54.0875 37.5167 52.8183 34.7114 52.8183 31.6303C52.8122 31.2869 52.8275 30.9435 52.8643 30.6001C52.8949 30.2629 52.9471 29.9257 53.0206 29.5884C53.0942 29.2512 53.1862 28.9201 53.2966 28.5951C53.4069 28.2701 53.5357 27.9513 53.6829 27.6385C53.876 27.2982 54.1151 26.9855 54.4003 26.7096C54.6762 26.4337 54.9981 26.1945 55.3384 26.0014C55.6879 25.8082 56.0558 25.6611 56.4329 25.5691C56.8192 25.4679 57.2147 25.4311 57.6102 25.4403L57.6286 25.4587ZM59.1738 30.1679C59.1922 29.5424 59.2474 27.5834 57.6746 27.5834C56.2214 27.5834 56.1662 29.3585 56.1662 30.1679H59.1738ZM63.4046 21.6142H66.6146V37.2683H63.4046V21.6142ZM73.016 25.4587C73.3226 25.4403 73.6261 25.4526 73.9266 25.4955C74.2332 25.5384 74.5306 25.6151 74.8187 25.7255C75.1069 25.8297 75.3829 25.9615 75.6465 26.1209C75.9102 26.2804 76.1524 26.4674 76.3731 26.682C77.0721 27.381 77.1181 28.6963 77.1181 30.1035V34.7022C77.1181 36.6797 77.1917 36.8912 77.3113 37.2867H74.3313C74.2884 37.1396 74.2546 36.9924 74.2301 36.8453C74.2056 36.6981 74.1872 36.5479 74.1749 36.3946C74.1627 36.2474 74.1535 36.1003 74.1473 35.9531C74.1473 35.7998 74.1535 35.6496 74.1657 35.5024C74.0278 35.8059 73.853 36.0911 73.6323 36.3486C73.4115 36.5969 73.154 36.8177 72.8689 37.0016C72.5838 37.1764 72.2802 37.3143 71.9491 37.3971C71.6272 37.4891 71.2961 37.5259 70.9558 37.5167C69.4106 37.5167 67.9298 36.6153 67.9298 34.3435C67.9298 31.1336 70.4499 30.2874 73.899 30.0943V29.6528C73.899 28.6503 73.899 27.5742 72.7493 27.5742C71.6732 27.5742 71.4525 28.4479 71.3605 29.3677L68.3345 29.055C68.3621 28.7422 68.4173 28.4387 68.5184 28.1536C68.6196 27.8593 68.7576 27.5834 68.9231 27.3258C69.0887 27.0591 69.291 26.8292 69.5118 26.6176C69.7417 26.4061 69.9901 26.2221 70.266 26.075C70.4745 25.9646 70.6891 25.8695 70.9098 25.7898C71.1305 25.704 71.3574 25.6365 71.5904 25.5875C71.8234 25.5323 72.0564 25.4925 72.2894 25.4679C72.5224 25.4434 72.7585 25.4342 72.9976 25.4403L73.016 25.4587ZM72.6941 35.3461C72.7984 35.3154 72.8965 35.2725 72.9884 35.2173C73.0804 35.1621 73.1663 35.0947 73.246 35.0149C73.3196 34.9352 73.3839 34.8463 73.4391 34.7482C73.8806 34.0952 73.9266 33.387 73.9266 32.3201V31.7498C72.0779 31.989 71.2961 32.4396 71.2961 33.9388C71.2961 34.7482 71.5904 35.392 72.363 35.392C72.4795 35.392 72.5899 35.3767 72.6941 35.3461ZM78.7737 21.5314H82.0388V24.7321H78.7737V21.5314ZM78.8381 25.7071H82.0388V37.2775H78.8381V25.7071ZM92.5056 37.2683H89.5348V35.3736C89.1853 36.2106 88.6886 37.4339 86.8583 37.4339C83.7587 37.4339 83.1701 33.8561 83.1701 31.5567C83.1701 30.6369 83.1701 25.5507 86.9963 25.5507C87.2262 25.5231 87.4561 25.5415 87.6861 25.5783C87.916 25.6243 88.1367 25.7071 88.3391 25.8082C88.5506 25.9186 88.7346 26.0566 88.9001 26.2221C89.0657 26.3877 89.2129 26.5716 89.3232 26.774V21.6326H92.4872L92.5056 37.2683ZM87.8792 35.2265C89.314 35.2265 89.314 33.4606 89.314 32.6236V30.5725C89.314 29.5424 89.314 27.6845 87.9068 27.6845C86.6652 27.6845 86.4996 29.1837 86.4996 31.0508C86.4996 33.295 86.4996 35.2265 87.8884 35.2265H87.8792ZM98.4748 25.4679C98.8519 25.4495 99.2382 25.4863 99.6061 25.5783C99.974 25.6703 100.323 25.8082 100.655 25.9922C100.986 26.1761 101.289 26.4061 101.565 26.6728C101.832 26.9395 102.062 27.243 102.246 27.5742C103.101 29.1469 103.101 30.6277 103.101 32.035H97.0124C96.994 33.6077 96.9572 35.3093 98.5575 35.3093C99.9464 35.3093 100.112 34.0584 100.204 33.3042L103.092 33.4882C102.853 34.5643 102.237 37.5259 98.4932 37.5259C94.9337 37.5259 93.6829 34.7206 93.6829 31.6395C93.6767 31.2961 93.689 30.9527 93.7196 30.6093C93.7564 30.2721 93.8116 29.9349 93.8852 29.5976C93.9527 29.2604 94.0416 28.9293 94.1519 28.6043C94.2623 28.2793 94.3911 27.9605 94.5382 27.6477C94.7406 27.3074 94.9797 26.9947 95.2556 26.7188C95.5408 26.4429 95.8535 26.2037 96.203 26.0106C96.5433 25.8174 96.9112 25.6703 97.2975 25.5783C97.6746 25.4863 98.0701 25.4403 98.4656 25.4495L98.4748 25.4679ZM100.011 30.1771C100.038 29.5516 100.084 27.5926 98.5116 27.5926C97.0583 27.5926 97.0124 29.3677 97.0124 30.1771H100.011ZM112.804 22.7547C112.958 22.9447 113.093 23.1502 113.209 23.3709C113.326 23.5855 113.424 23.8093 113.504 24.0423C113.583 24.2814 113.641 24.5206 113.678 24.7597C113.715 25.005 113.733 25.2533 113.733 25.5047C113.761 25.8818 113.724 26.2589 113.623 26.6268C113.522 26.9947 113.356 27.335 113.145 27.6477C112.933 27.9605 112.667 28.2364 112.354 28.4663C112.05 28.6871 111.71 28.8618 111.342 28.9722C112.041 29.1745 114.276 29.8 114.276 32.9179C114.276 35.3828 112.988 37.2775 109.061 37.2775H104.701V21.6234H108.951C110.376 21.6234 111.839 21.6234 112.804 22.7547ZM108.693 28.2732C109.935 28.2732 111.765 28.1812 111.765 25.6887C111.765 23.1961 109.824 23.1961 108.951 23.1961H106.596V28.2732H108.693ZM108.997 35.6956C110.937 35.6956 112.28 34.8862 112.28 32.8075C112.293 32.5807 112.277 32.3538 112.234 32.1269C112.197 31.9001 112.133 31.6824 112.041 31.4739C111.943 31.2654 111.826 31.0723 111.692 30.8945C111.551 30.7105 111.388 30.548 111.204 30.407C110.45 29.8735 109.687 29.8275 108.647 29.8275H106.596V35.7048L108.997 35.6956ZM120.236 25.4035C120.518 25.3851 120.8 25.3974 121.082 25.4403C121.364 25.4894 121.637 25.566 121.901 25.6703C122.158 25.7745 122.407 25.9094 122.646 26.075C122.879 26.2344 123.09 26.4183 123.28 26.6268C123.979 27.4638 123.979 28.871 123.979 30.1863V33.5893C123.979 35.9163 124.007 36.3762 124.191 37.2959H122.554C122.523 37.1304 122.499 36.9618 122.48 36.7901C122.462 36.6184 122.447 36.4498 122.434 36.2842C122.428 36.1125 122.422 35.9408 122.416 35.7691C122.41 35.5975 122.407 35.4288 122.407 35.2633C121.947 36.1738 121.183 37.627 119.077 37.627C117.063 37.627 115.674 36.2934 115.674 34.1504C115.674 33.9235 115.693 33.6936 115.729 33.4606C115.76 33.2337 115.812 33.0099 115.886 32.7891C115.959 32.5684 116.051 32.3569 116.162 32.1545C116.272 31.946 116.398 31.7529 116.539 31.5751C117.412 30.5358 118.847 30.0943 120.742 30.0943C120.871 30.0943 120.999 30.0943 121.128 30.0943C121.251 30.1004 121.377 30.1065 121.505 30.1127C121.634 30.1249 121.763 30.1372 121.892 30.1495C122.014 30.1556 122.14 30.1679 122.269 30.1863V29.6712C122.269 28.8434 122.269 26.8016 120.126 26.8016C119.859 26.7832 119.592 26.82 119.335 26.8935C119.077 26.9763 118.829 27.1051 118.617 27.2706C118.406 27.4362 118.231 27.6477 118.093 27.8777C117.955 28.1076 117.863 28.3651 117.826 28.6319L116.134 28.3559C116.18 28.0892 116.254 27.8225 116.364 27.5742C116.465 27.3258 116.603 27.0867 116.759 26.8751C116.925 26.6544 117.118 26.4613 117.32 26.2865C117.532 26.1209 117.762 25.9738 118.01 25.8634C118.182 25.7776 118.36 25.704 118.544 25.6427C118.728 25.5814 118.912 25.5292 119.096 25.4863C119.286 25.4434 119.476 25.4127 119.666 25.3943C119.862 25.3759 120.055 25.3698 120.245 25.3759L120.236 25.4035ZM120.135 36.0911C120.374 36.0267 120.604 35.9255 120.806 35.7875C121.018 35.6588 121.211 35.5024 121.377 35.3185C121.542 35.1437 121.68 34.9322 121.79 34.7206C122.352 33.6537 122.352 32.7983 122.278 31.5475C122.168 31.5291 122.057 31.5107 121.947 31.4923C121.836 31.4739 121.726 31.4586 121.616 31.4463C121.499 31.434 121.386 31.4248 121.275 31.4187C121.165 31.4126 121.052 31.4095 120.935 31.4095C118.562 31.4095 117.495 32.3293 117.495 34.2056C117.495 35.4012 118.075 36.1922 119.408 36.1922C119.657 36.1922 119.905 36.1554 120.135 36.0911ZM131.807 25.4403C132.082 25.5047 132.34 25.6059 132.588 25.7438C132.827 25.8818 133.057 26.0566 133.251 26.2589C133.444 26.4613 133.609 26.6912 133.738 26.9395C134.078 27.6385 134.078 28.6319 134.078 29.9195V37.2959H132.368V30.1587C132.368 28.2272 132.368 26.82 130.592 26.82C129.204 26.82 128.1 27.7857 128.1 31.0508V37.2683H126.389V25.6979H127.99V27.4822C128.091 27.1695 128.238 26.8751 128.431 26.6176C128.633 26.3509 128.863 26.1209 129.13 25.937C129.397 25.7438 129.691 25.5967 130.004 25.5047C130.317 25.4127 130.648 25.3668 130.97 25.3759C131.255 25.3576 131.531 25.3759 131.807 25.4403ZM138.199 21.6326V31.4647L142.338 25.7163H144.205L141.179 29.8L144.6 37.2867H142.752L140.029 31.1428L138.199 33.6445V37.2867H136.488V21.6326H138.199Z" fill="#9B2036"/>
</svg>
