<svg width="194" height="40" viewBox="0 0 194 40" fill="none" xmlns="http://www.w3.org/2000/svg">
<path d="M38.1771 33.8077H31.4006V31.7425H33.6594L33.1754 20.0934L27.851 31.5166H26.9474L21.5585 20.0934L21.139 31.7103H23.3656V33.7755H12.3296V31.7103H14.2012L12.6523 27.5798H5.81122L4.26231 31.7425H6.19845V33.8077H0.0996094V31.7425H1.51945C1.80987 31.7103 2.06802 31.5166 2.16483 31.2262L7.23106 17.8023H5.39173V15.7694H9.23174C10.1353 15.8339 10.9097 16.447 11.1356 17.3183L16.3955 31.2262C16.4923 31.5166 16.7504 31.7103 17.0408 31.7425H18.5575C18.8479 31.7425 19.0738 31.5166 19.0738 31.2262C19.0738 31.0003 19.6224 19.2867 19.6869 17.8023H17.3313V15.7694H20.784C21.6876 15.8339 22.4298 16.447 22.6234 17.3183C23.1074 18.4154 27.496 27.9348 27.496 27.9348L32.3686 17.3183C32.8527 16.2211 33.3044 15.7694 34.1434 15.7694H37.6285V17.8023H35.2728L35.8537 31.2262C35.8859 31.4844 36.0796 31.7103 36.37 31.7425H38.2416V33.8077H38.1771ZM6.55341 25.5791H12.0069L9.32855 18.3509L6.65022 25.5791H6.55341ZM46.1475 33.8077H39.1774V31.7425H40.9845C41.2749 31.7425 41.4685 31.5166 41.5008 31.2262V17.8023H39.1774V15.7694H46.0184C49.9552 15.7694 52.6981 18.125 52.6981 21.5132C52.6981 24.9015 50.1166 27.3217 46.1152 27.3217H43.6305V31.323C43.6305 31.6135 43.8564 31.8393 44.1468 31.8393H46.083V33.8077H46.1475ZM43.6305 25.2887H46.1152C48.7613 25.2887 50.4393 23.8366 50.4393 21.5455C50.4393 18.964 48.245 17.8023 46.083 17.8023H43.695V25.2887H43.6305ZM97.2616 15.8016H90.4206V17.8346H92.7117V31.2262C92.7117 31.5166 92.4858 31.7425 92.2277 31.7425H89.6139C89.2912 31.7103 89.033 31.5166 88.9039 31.2262L88.6781 30.7422L83.7086 17.3183C83.4827 16.447 82.7406 15.8339 81.837 15.7694H78.0293V17.8023H79.8363L74.7056 31.2262C74.6088 31.5166 74.3183 31.7103 74.0279 31.7425H72.7049V33.8077H78.8037V31.7425H76.8031L78.4165 27.5798H85.193L86.7742 31.7425H84.8703V33.8077H97.3261V31.7425H95.4868C95.2287 31.7748 94.9705 31.5812 94.9382 31.323V27.2894H97.3584C101.328 27.2894 103.909 24.9983 103.909 21.481C103.909 17.9637 101.166 15.7694 97.2293 15.7694M79.1587 25.5791L81.8047 18.3832L84.4508 25.5791H79.1587ZM97.423 25.321H94.9382V17.8346H97.3584C99.5204 17.8346 101.682 18.9963 101.682 21.5778C101.682 23.9012 100.037 25.321 97.423 25.321ZM127.304 15.8016V20.3193H125.11V17.8023H120.883V31.2262C120.883 31.5166 121.108 31.7425 121.399 31.7425H123.303V33.8077H116.268V31.7425H118.172C118.462 31.7425 118.656 31.5166 118.688 31.2262V17.8023H114.461V20.287H112.267V15.7371L127.304 15.8016ZM104.329 15.8016H111.331V17.8346H108.943V31.2585C108.943 31.5489 109.169 31.7748 109.459 31.7748H111.331V33.84H104.329V31.7748H106.2C106.491 31.7748 106.684 31.5489 106.684 31.2585V17.8023H104.329V15.8016ZM152.797 28.9351V31.7748H147.504C147.214 31.7748 147.02 31.5489 146.988 31.2585V17.8023H149.376V15.7694H142.471V17.8023H144.794V31.2262C144.794 31.5166 144.568 31.7103 144.278 31.7425H141.599C141.373 31.7425 141.18 31.6457 141.051 31.4844C140.889 31.2585 140.76 31.0003 140.663 30.7099L135.694 17.3183C135.468 16.447 134.726 15.8016 133.822 15.7694H129.982V17.8023H131.822C131.822 17.8023 126.852 31.0003 126.755 31.2262C126.626 31.4844 126.401 31.678 126.11 31.7425H124.755V33.8077H130.821V31.7425H128.885L130.37 27.5798H137.178L138.695 31.7748H136.823V33.8077H155.023V28.9351H152.797ZM131.08 25.5791L133.758 18.3509L136.404 25.5791H131.08ZM73.2857 28.9351C71.9304 32.2911 68.6067 34.4209 64.9603 34.2595C59.9264 34.2272 55.8605 30.1291 55.8927 25.0951V24.7079C55.6991 19.6416 59.6359 15.3499 64.7022 15.1562H65.1217C67.0901 15.1562 68.994 15.8339 70.5751 17.0279V15.7694H72.7694V19.4158C72.8017 19.9643 72.4145 20.4806 71.8659 20.5452C71.156 20.6743 70.4783 20.3193 70.1556 19.6739C68.8971 18.1573 67.0255 17.286 65.0571 17.286C61.088 17.286 58.2161 20.4161 58.2161 24.6756C57.9902 28.5802 60.9912 31.9361 64.9281 32.162H65.0571C67.4128 32.1943 69.6071 30.9681 70.7688 28.9351H73.2857Z" fill="#000D37"/>
<path d="M173.126 34.7759C172.771 33.1947 172.771 31.5813 173.126 30.0324L171.867 29.6129H171.674L171.157 29.4515L170.351 29.1934C167.221 32.5816 164.736 33.4529 162.251 33.4851C161.67 34.7436 162.025 35.389 163.736 35.0018C167.317 34.2273 169.189 32.2267 171.416 30.1292L171.641 29.9033C171.512 30.8068 171.416 31.7426 171.416 32.6784C171.287 34.905 171.706 37.1315 172.674 39.1322C173.094 39.7453 173.707 39.8421 174.513 38.9386C173.9 37.6156 173.449 36.228 173.126 34.7759Z" fill="url(#paint0_linear_1658_5317)"/>
<path d="M172.126 23.9979C172.481 23.3202 172.545 22.5458 172.32 21.8358C172.094 22.8039 170.287 23.8688 167.737 23.5461C166.156 23.2879 164.672 22.7071 163.349 21.8036C162.574 21.3195 161.864 20.8032 161.154 20.2224C159.896 19.2221 158.444 20.8032 159.993 21.9004C162.219 23.5461 164.833 24.5787 167.576 24.9659C169.125 25.1596 170.706 24.8369 172.061 24.0624L172.126 23.9979Z" fill="url(#paint1_linear_1658_5317)"/>
<path d="M171.48 16.8358C170.028 14.9319 166.059 10.027 165.672 9.54297L165.736 9.83339C165.898 10.4142 166.059 11.5437 166.575 13.1571L169.189 16.3195C172.836 20.7726 172.868 22.8701 172.222 23.9672C172.803 23.6123 173.287 23.0637 173.578 22.4506C174.094 20.9339 172.9 18.8687 171.48 16.8358Z" fill="url(#paint2_linear_1658_5317)"/>
<path d="M177.095 8.47737C177.095 8.41284 177.095 8.31602 177.095 8.25149V7.47703C177.095 6.86392 177.192 6.08947 177.256 5.25047C177.385 3.54021 177.579 1.86223 177.643 1.0555C177.74 -0.977448 179.999 -0.816105 179.579 1.18457C179.483 1.60407 179.095 3.37887 178.708 5.05686C178.482 5.96039 178.289 6.83166 178.127 7.54157C178.031 7.86426 177.966 8.15469 177.901 8.3483C177.869 8.44511 177.837 8.50964 177.805 8.60645C177.74 8.76779 177.547 8.83233 177.385 8.80006C177.192 8.7678 177.095 8.63872 177.095 8.47737Z" fill="url(#paint3_linear_1658_5317)"/>
<path d="M166.253 20.9008C166.511 20.6426 166.027 20.0618 165.833 19.8036C163.961 17.2866 161.412 15.3505 158.508 14.1888C156.895 13.6725 156.023 15.4473 157.379 15.9959C158.798 16.4799 160.186 17.093 161.477 17.8352C162.929 18.6742 164.349 19.6423 165.672 20.7071C165.93 20.933 166.059 21.0298 166.253 20.9008Z" fill="url(#paint4_linear_1658_5317)"/>
<path d="M173.03 1.79688C173.03 1.79688 172.9 2.44226 172.771 2.82949C172.642 3.21672 172.513 3.79756 172.384 4.24932C173.384 6.21773 173.933 8.37976 173.965 10.5741C173.965 13.9623 172.481 20.4484 170.351 20.4484C169.544 20.4484 168.447 18.2218 167.447 15.8984C166.608 13.93 165.995 11.8971 165.575 9.7996L165.511 9.50917L165.446 9.41236C165.253 9.02514 164.769 8.89606 164.381 9.08967C164.123 9.25102 163.962 9.54144 163.962 9.86413C164.349 12.123 165.027 14.3173 165.93 16.4147C167.511 20.2548 168.835 22.1909 170.125 22.1264C171.836 22.0295 173.417 19.6416 174.385 16.7052C175.095 14.6722 175.514 12.5425 175.643 10.3804C175.772 7.50849 174.707 5.15285 173.03 1.79688Z" fill="url(#paint5_linear_1658_5317)"/>
<path d="M192.649 20.3844C190.938 20.0618 189.163 19.9327 187.421 20.0295C185.388 20.0295 183.323 20.2231 181.322 20.5781C179.676 20.8362 178.031 21.2557 176.45 21.8366C176.385 22.3851 176.288 22.966 176.224 23.5468C177.579 23.0305 178.999 22.5787 180.419 22.2238C184.226 21.3848 188.195 21.3203 192.035 22.0302C194.197 22.3851 194.165 20.6749 192.649 20.3844Z" fill="url(#paint6_linear_1658_5317)"/>
<path d="M176.32 23.5466C175.675 23.7725 174.739 23.8693 174.836 22.9012C176.095 10.5744 180.322 3.70114 187.034 1.31323C188.002 0.990542 188.679 1.31323 188.776 2.63626L188.26 2.76534C182.097 4.76602 177.579 11.962 176.32 23.5466Z" fill="url(#paint7_linear_1658_5317)"/>
<path d="M175.417 18.4494C173.965 16.3842 172.868 14.1254 172.126 11.7052C171.513 8.73643 171.739 5.70315 172.739 2.86347C172.836 2.47625 172.997 1.8954 172.997 1.83086C172.868 1.3791 172.384 1.12095 171.932 1.25002C171.642 1.34683 171.384 1.60498 171.352 1.8954C170.254 5.05777 169.964 8.44601 170.545 11.7375C171.545 14.8353 173.094 17.7395 175.095 20.321C175.192 19.6756 175.288 19.0302 175.417 18.4494Z" fill="url(#paint8_linear_1658_5317)"/>
<path d="M177.321 26.2572C176.934 26.709 176.804 27.3544 176.998 27.9352C174.352 22.5463 182.839 22.3204 190.422 24.192C192.068 24.547 192.035 25.4505 191.261 25.9345C187.873 24.7406 179.225 23.6434 177.321 26.2572Z" fill="url(#paint9_linear_1658_5317)"/>
<path d="M174.965 29.7745C175.223 32.1947 175.062 35.1957 173.803 37.0673C174.061 37.7449 174.32 38.3258 174.578 38.9066C175.933 37.4545 176.804 34.1308 176.611 31.0975C176.191 27.5156 175.739 21.5781 167.898 27.193C165.542 28.8064 163.574 30.9362 162.219 33.4209C162.896 33.4209 163.574 33.3241 164.252 33.1627C165.704 31.0975 167.511 29.3227 169.608 27.9029C172.545 25.9022 174.513 25.0955 174.965 29.7745Z" fill="url(#paint10_linear_1658_5317)"/>
<path d="M183.936 35.0675C183.388 32.8087 176.353 29.1623 171.868 27.9038C168.124 26.8389 162.477 26.4839 158.702 28.0329C156.572 28.8396 157.153 30.8725 159.412 29.969C163.123 28.3233 167.35 28.0974 171.222 29.3882C175.675 30.808 178.321 31.7438 182 35.7452C183.033 37.0359 184.291 36.3905 183.936 35.0675Z" fill="url(#paint11_linear_1658_5317)"/>
<path d="M178.482 30.0003L179.418 31.1619C181.613 32.4204 183.355 33.7435 183.839 34.8406C183.42 33.8403 182.871 32.8722 182.193 32.0332C181.871 31.5814 179.58 28.8708 179.096 28.29C178.418 27.451 177.611 26.3216 178.612 25.3535C178.127 25.5471 177.676 25.8698 177.353 26.2893C176.966 26.7411 176.837 27.3865 177.03 27.9673C177.45 28.6772 177.934 29.3549 178.482 30.0003Z" fill="url(#paint12_linear_1658_5317)"/>
<path d="M183.226 25.3871L183.549 25.5484C183.839 25.7097 184.13 25.9356 184.42 26.1292C185.292 26.7424 186.131 27.3877 186.905 28.0977C188.26 29.2593 190.003 30.9051 191.261 32.1958C192.778 33.7125 191.487 35.2614 189.938 33.7447C187.905 31.5182 187.034 30.4856 186.195 29.582C185.356 28.6785 184.549 27.8395 183.71 27.0005C183.452 26.7424 183.162 26.4519 182.936 26.1615C182.839 26.0647 182.775 25.9679 182.71 25.8711C182.581 25.742 182.581 25.5161 182.71 25.3871C182.839 25.2903 183.065 25.2903 183.226 25.3871Z" fill="url(#paint13_linear_1658_5317)"/>
<path d="M183.936 27.3226C182.581 27.3871 180.419 26.8386 180.322 24.8379C179.902 24.9024 179.483 24.9992 179.063 25.1283C179.225 28.6134 183.355 28.9683 185.227 28.6456L183.936 27.3226Z" fill="url(#paint14_linear_1658_5317)"/>
<path d="M186.873 28.0651L186.97 28.1619C188.486 27.5811 189.906 26.8066 191.229 25.8708C190.519 25.645 189.809 25.4513 189.099 25.3223C188.034 26.0645 186.841 26.6453 185.582 27.0325C186.034 27.3875 186.453 27.7424 186.873 28.0651Z" fill="url(#paint15_linear_1658_5317)"/>
<path d="M188.712 2.66992C188.518 2.66992 188.357 2.73446 188.196 2.799C187.776 2.92807 187.357 3.08942 186.937 3.28303C186.937 4.34791 186.776 5.41279 186.389 6.41313C185.033 10.479 182 16.6101 177.127 18.6431C176.998 19.2562 176.869 19.8693 176.772 20.5147C181.968 18.6431 184.485 14.2868 186.227 11.2535C187.679 8.51062 188.938 4.76741 188.712 2.66992Z" fill="url(#paint16_linear_1658_5317)"/>
<path d="M192.456 15.9636C192.359 15.5118 191.843 15.1246 190.745 15.2537C189.164 15.3828 187.615 15.7377 186.131 16.3186C184.647 16.8994 183.291 17.7384 182.13 18.8033C181.355 19.5455 180.71 20.3845 180.193 21.3203C179.838 21.9656 179.548 22.6755 179.387 23.3855C179.806 23.2887 180.226 23.2241 180.645 23.1596C180.742 22.8692 180.871 22.5465 181 22.2883C181.387 21.5784 181.904 20.9653 182.485 20.449C183.614 19.4809 184.872 18.7387 186.228 18.1902C187.712 17.6416 189.229 17.2544 190.81 17.093C192.23 16.9639 192.649 16.3831 192.456 15.9636Z" fill="url(#paint17_linear_1658_5317)"/>
<defs>
<linearGradient id="paint0_linear_1658_5317" x1="172.226" y1="29.7273" x2="167.554" y2="37.6255" gradientUnits="userSpaceOnUse">
<stop stop-color="#1268B3"/>
<stop offset="0.5" stop-color="#44C8F5"/>
<stop offset="1" stop-color="#5BCBF5"/>
</linearGradient>
<linearGradient id="paint1_linear_1658_5317" x1="159.35" y1="22.4304" x2="172.431" y2="22.4304" gradientUnits="userSpaceOnUse">
<stop stop-color="#0066B3"/>
<stop offset="0.12" stop-color="#0471BB"/>
<stop offset="0.34" stop-color="#0E8FCF"/>
<stop offset="0.63" stop-color="#1EBEF0"/>
<stop offset="0.66" stop-color="#20C4F4"/>
<stop offset="1" stop-color="#20C4F4"/>
</linearGradient>
<linearGradient id="paint2_linear_1658_5317" x1="165.462" y1="11.8159" x2="173.921" y2="23.2147" gradientUnits="userSpaceOnUse">
<stop stop-color="#0066B3"/>
<stop offset="0.1" stop-color="#0F7BC1"/>
<stop offset="0.33" stop-color="#2CA5DD"/>
<stop offset="0.5" stop-color="#3DBEEF"/>
<stop offset="0.61" stop-color="#44C8F5"/>
<stop offset="0.68" stop-color="#40C3F1"/>
<stop offset="0.76" stop-color="#35B3E7"/>
<stop offset="0.86" stop-color="#2499D5"/>
<stop offset="0.96" stop-color="#0B76BD"/>
<stop offset="1" stop-color="#0066B3"/>
</linearGradient>
<linearGradient id="paint3_linear_1658_5317" x1="178.369" y1="6.79731" x2="178.261" y2="-2.32728" gradientUnits="userSpaceOnUse">
<stop stop-color="#0066B3"/>
<stop offset="0.45" stop-color="#0066B3"/>
<stop offset="1" stop-color="#00B0F0"/>
</linearGradient>
<linearGradient id="paint4_linear_1658_5317" x1="163.771" y1="20.9667" x2="157.258" y2="12.4707" gradientUnits="userSpaceOnUse">
<stop offset="0.18" stop-color="#0066B3"/>
<stop offset="0.35" stop-color="#006BB7"/>
<stop offset="0.56" stop-color="#007BC4"/>
<stop offset="0.8" stop-color="#0094D9"/>
<stop offset="1" stop-color="#00B0F0"/>
</linearGradient>
<linearGradient id="paint5_linear_1658_5317" x1="166.073" y1="16.1557" x2="180.175" y2="6.06489" gradientUnits="userSpaceOnUse">
<stop offset="0.01" stop-color="#5BCBF5"/>
<stop offset="0.08" stop-color="#6DCFF6"/>
<stop offset="0.17" stop-color="#3EC8F5"/>
<stop offset="0.21" stop-color="#20C4F4"/>
<stop offset="0.27" stop-color="#1DC2F4"/>
<stop offset="0.3" stop-color="#15BDF2"/>
<stop offset="0.33" stop-color="#07B3F0"/>
<stop offset="0.34" stop-color="#07B3F0"/>
<stop offset="0.36" stop-color="#15BDF2"/>
<stop offset="0.39" stop-color="#1DC2F4"/>
<stop offset="0.43" stop-color="#20C4F4"/>
<stop offset="0.5" stop-color="#19AFE5"/>
<stop offset="0.65" stop-color="#0678BF"/>
<stop offset="0.7" stop-color="#0066B3"/>
<stop offset="1" stop-color="#0066B3"/>
</linearGradient>
<linearGradient id="paint6_linear_1658_5317" x1="176.278" y1="20.2954" x2="192.921" y2="23.6466" gradientUnits="userSpaceOnUse">
<stop stop-color="#0066B3"/>
<stop offset="0.3" stop-color="#0066B3"/>
<stop offset="0.4" stop-color="#0982C6"/>
<stop offset="0.55" stop-color="#16A6DF"/>
<stop offset="0.67" stop-color="#1DBCEE"/>
<stop offset="0.75" stop-color="#20C4F4"/>
</linearGradient>
<linearGradient id="paint7_linear_1658_5317" x1="173.339" y1="22.0917" x2="187.965" y2="0.826321" gradientUnits="userSpaceOnUse">
<stop stop-color="#20C4F4"/>
<stop offset="0.3" stop-color="#48CAF5"/>
<stop offset="0.55" stop-color="#63CEF6"/>
<stop offset="0.7" stop-color="#6DCFF6"/>
<stop offset="0.84" stop-color="#5BCBF5"/>
<stop offset="1" stop-color="#5BCBF5"/>
</linearGradient>
<linearGradient id="paint8_linear_1658_5317" x1="179.034" y1="13.6575" x2="164.783" y2="5.78421" gradientUnits="userSpaceOnUse">
<stop offset="0.01" stop-color="#00A5E5"/>
<stop offset="0.09" stop-color="#12B6ED"/>
<stop offset="0.17" stop-color="#20C4F4"/>
<stop offset="0.54" stop-color="#6DCFF6"/>
<stop offset="0.69" stop-color="#5BCBF5"/>
<stop offset="1" stop-color="#5BCBF5"/>
</linearGradient>
<linearGradient id="paint9_linear_1658_5317" x1="176.493" y1="25.521" x2="191.771" y2="25.521" gradientUnits="userSpaceOnUse">
<stop stop-color="#5BCBF5"/>
<stop offset="1" stop-color="#5BCBF5"/>
</linearGradient>
<linearGradient id="paint10_linear_1658_5317" x1="167.591" y1="38.9994" x2="173.621" y2="22.4556" gradientUnits="userSpaceOnUse">
<stop stop-color="#0066B3"/>
<stop offset="0.4" stop-color="#00A3E4"/>
<stop offset="1" stop-color="#44C8F5"/>
</linearGradient>
<linearGradient id="paint11_linear_1658_5317" x1="157.417" y1="32.6961" x2="186.992" y2="30.9216" gradientUnits="userSpaceOnUse">
<stop stop-color="#008BD0"/>
<stop offset="0.16" stop-color="#2DA7E0"/>
<stop offset="0.32" stop-color="#50BDEC"/>
<stop offset="0.44" stop-color="#65CAF3"/>
<stop offset="0.52" stop-color="#6DCFF6"/>
<stop offset="1" stop-color="#44C8F5"/>
</linearGradient>
<linearGradient id="paint12_linear_1658_5317" x1="177.629" y1="26.4115" x2="184.07" y2="35.3437" gradientUnits="userSpaceOnUse">
<stop stop-color="#0066B3"/>
<stop offset="0.04" stop-color="#0B76BD"/>
<stop offset="0.14" stop-color="#2499D5"/>
<stop offset="0.24" stop-color="#35B3E7"/>
<stop offset="0.32" stop-color="#40C3F1"/>
<stop offset="0.39" stop-color="#44C8F5"/>
<stop offset="0.5" stop-color="#3DBEEF"/>
<stop offset="0.67" stop-color="#2CA5DD"/>
<stop offset="0.9" stop-color="#0F7BC1"/>
<stop offset="1" stop-color="#0066B3"/>
</linearGradient>
<linearGradient id="paint13_linear_1658_5317" x1="181.267" y1="27.2169" x2="192" y2="32.3779" gradientUnits="userSpaceOnUse">
<stop offset="0.19" stop-color="#0066B3"/>
<stop offset="0.36" stop-color="#006BB7"/>
<stop offset="0.57" stop-color="#007BC4"/>
<stop offset="0.8" stop-color="#0094D9"/>
<stop offset="1" stop-color="#00B0F0"/>
</linearGradient>
<linearGradient id="paint14_linear_1658_5317" x1="178.446" y1="25.1306" x2="185.31" y2="29.2416" gradientUnits="userSpaceOnUse">
<stop stop-color="#0066B3"/>
<stop offset="0.12" stop-color="#107DC2"/>
<stop offset="0.38" stop-color="#38B7EA"/>
<stop offset="0.45" stop-color="#44C8F5"/>
<stop offset="0.65" stop-color="#42C7F5"/>
<stop offset="0.76" stop-color="#3AC4F4"/>
<stop offset="0.85" stop-color="#2CBFF3"/>
<stop offset="0.93" stop-color="#19B8F1"/>
<stop offset="1" stop-color="#00AEEF"/>
</linearGradient>
<linearGradient id="paint15_linear_1658_5317" x1="186.746" y1="28.0611" x2="189.898" y2="25.0214" gradientUnits="userSpaceOnUse">
<stop offset="0.01" stop-color="#00B9F2"/>
<stop offset="0.03" stop-color="#0ABBF2"/>
<stop offset="0.09" stop-color="#23C1F4"/>
<stop offset="0.15" stop-color="#36C5F4"/>
<stop offset="0.22" stop-color="#40C7F5"/>
<stop offset="0.3" stop-color="#44C8F5"/>
<stop offset="0.54" stop-color="#2BA3DC"/>
<stop offset="0.92" stop-color="#0066B3"/>
</linearGradient>
<linearGradient id="paint16_linear_1658_5317" x1="188.746" y1="11.5913" x2="176.737" y2="11.5913" gradientUnits="userSpaceOnUse">
<stop stop-color="#0066B3"/>
<stop offset="0.29" stop-color="#0066B3"/>
<stop offset="0.4" stop-color="#1686C8"/>
<stop offset="0.55" stop-color="#2FAAE1"/>
<stop offset="0.67" stop-color="#3EC0F0"/>
<stop offset="0.75" stop-color="#44C8F5"/>
<stop offset="0.79" stop-color="#3FC5F4"/>
<stop offset="0.85" stop-color="#30BEF0"/>
<stop offset="0.92" stop-color="#18B1EB"/>
<stop offset="0.96" stop-color="#00A5E5"/>
</linearGradient>
<linearGradient id="paint17_linear_1658_5317" x1="179.308" y1="19.3395" x2="192.476" y2="19.3395" gradientUnits="userSpaceOnUse">
<stop stop-color="#0066B3"/>
<stop offset="0.05" stop-color="#077CC2"/>
<stop offset="0.12" stop-color="#129BD8"/>
<stop offset="0.2" stop-color="#1AB2E7"/>
<stop offset="0.27" stop-color="#1EBFF1"/>
<stop offset="0.34" stop-color="#20C4F4"/>
<stop offset="0.5" stop-color="#38C7F4"/>
<stop offset="0.71" stop-color="#51CAF5"/>
<stop offset="0.84" stop-color="#5BCBF5"/>
<stop offset="0.99" stop-color="#5BCBF5"/>
</linearGradient>
</defs>
</svg>
