<svg width="127" height="40" viewBox="0 0 127 40" fill="none" xmlns="http://www.w3.org/2000/svg">
<g clip-path="url(#clip0_702_9964)">
<path d="M79.7859 31.8346H70.1175L74.0849 26.6102H63.3422L59.5265 31.6413C58.0953 33.6404 57.9566 35.6586 57.9566 37.0601V37.8522C57.9566 38.7675 58.5234 39.275 59.364 39.275H79.7942C80.6183 39.275 81.1744 38.8209 81.1744 37.8901V33.2373C81.1744 32.2887 80.6171 31.8476 79.7942 31.8476M24.7489 13.3774C24.5948 12.5024 24.0019 12.0708 23.2312 12.0708H20.4993C17.6559 12.0708 15.1469 13.579 13.7406 15.8568L8.2115 24.719H26.7623L24.7489 13.3774ZM55.3053 13.4557C55.3053 12.5249 54.7504 12.0708 53.9203 12.0708H48.3474C47.5233 12.0708 46.9672 12.5249 46.9672 13.4557V24.0087L41.7049 14.5193C40.6378 12.7727 38.8769 12.1087 36.8078 12.0708H32.6969C31.8669 12.0708 31.3214 12.5249 31.3214 13.4557V24.7249H38.2307L39.2931 26.6221H31.3203V37.8889C31.3203 38.8185 31.8776 39.281 32.6957 39.281H38.271C39.101 39.281 39.6465 38.8067 39.6465 37.8889L39.6429 27.2814L44.9657 36.8348C46.0091 38.5719 47.7877 39.2359 49.845 39.281H53.918C54.748 39.281 55.3029 38.8067 55.3029 37.8889V26.6221H48.4399L47.3798 24.7249H55.3005L55.3053 13.4557ZM27.0908 26.6102H17.931L19.955 37.9743C20.1092 38.8328 20.6451 39.2691 21.4289 39.2691H27.7322C28.3097 39.2691 28.6014 39.0877 28.8705 38.7593C29.0555 38.5292 29.1314 38.1818 29.046 37.6719L27.0908 26.6102ZM0.192391 37.564C-0.0447555 37.9909 -0.0447558 38.4391 0.0951607 38.7296C0.270649 39.0699 0.661941 39.2691 1.08406 39.2691H7.62931C8.45458 39.2691 9.19211 38.8245 9.60356 38.1581L16.827 26.609H7.02814L0.192391 37.5652M59.5265 19.4899H68.7373L64.7651 24.7071H75.5031L79.4195 19.5551C80.629 17.9627 80.9088 16.5362 80.9088 15.2865V13.4925C80.9088 12.5723 80.3515 12.0696 79.5061 12.0696H59.5265C58.7024 12.0696 58.151 12.5237 58.151 13.4545V18.1073C58.151 19.0346 58.7024 19.4875 59.5265 19.4875M105.286 11.6973C107.167 11.6973 109.308 13.33 109.308 15.5865C109.308 16.8576 108.903 17.8394 108.308 18.7346C107.926 19.3061 107.634 19.9642 107.513 20.4397C107.395 20.9768 107.1 22.2776 108.692 22.3013C109.727 22.3274 112.273 21.4262 114.332 18.9456C115.915 16.9536 116.858 14.4256 116.858 11.6676C116.858 5.22434 111.685 0 105.287 0C98.8905 0 93.7064 5.22434 93.7064 11.6676C93.7064 14.4244 94.6467 16.9524 96.232 18.9456C98.2928 21.4274 100.839 22.3274 101.873 22.3013C103.464 22.2799 103.177 20.978 103.052 20.4397C102.934 19.9654 102.642 19.3061 102.258 18.7346C101.665 17.8382 101.257 16.8576 101.257 15.5865C101.262 13.3312 103.4 11.6973 105.289 11.6973M125.754 23.4894C125.28 23.0981 124.448 22.5242 122.74 22.2598C120.369 21.904 118.255 22.4613 116.981 22.9665C115.307 23.6305 113.246 25.1364 111.82 27.0976C110.316 29.1702 109.538 32.3006 110.284 35.5637C110.44 36.2915 110.702 36.9924 111.063 37.6435C111.508 38.5185 112.682 39.7398 113.71 39.9604C114.521 40.1288 115.156 39.6616 115.467 39.3082C117.537 36.9107 125.38 27.624 126.231 26.4383C127.066 25.2597 126.52 24.1261 125.753 23.4906M93.589 22.9688C92.3156 22.4637 90.2026 21.9076 87.8323 22.2621C86.1249 22.5254 85.2854 23.0981 84.817 23.4917C84.0498 24.1297 83.5127 25.2609 84.3391 26.4395C85.1846 27.6252 93.027 36.9119 95.0973 39.3094C95.408 39.6616 96.0435 40.1394 96.8569 39.9616C97.8909 39.741 99.06 38.5197 99.5035 37.6447C99.8654 36.9934 100.13 36.2927 100.29 35.5649C101.033 32.3041 100.242 29.1619 98.7541 27.0987C97.3277 25.1364 95.2621 23.6305 93.5914 22.9677" fill="#007DBA"/>
</g>
<defs>
<clipPath id="clip0_702_9964">
<rect width="127" height="40" fill="white"/>
</clipPath>
</defs>
</svg>
