<svg width="155" height="40" viewBox="0 0 155 40" fill="none" xmlns="http://www.w3.org/2000/svg">
<path d="M53.9603 16.0252C52.3234 16.0252 50.9296 16.5408 49.9173 17.5196V12.3218C49.9173 11.7496 49.4143 11.2676 48.817 11.2676C48.2218 11.2676 47.7188 11.7496 47.7188 12.3218V27.0266C47.7188 27.6176 48.2008 28.0808 48.817 28.0808C49.4332 28.0808 49.9173 27.6176 49.9173 27.0266V26.5864C50.9296 27.5652 52.3234 28.0808 53.9603 28.0808C57.5736 28.0808 60.0006 25.6621 60.0006 22.0635C60.0006 18.4523 57.5736 16.0252 53.9603 16.0252ZM57.756 22.0635C57.756 24.6666 56.3119 26.2196 53.8932 26.2196C51.3719 26.2196 49.8042 24.6268 49.8042 22.0635C49.8042 19.4856 51.3719 17.8843 53.8932 17.8843C56.3475 17.8843 57.756 19.408 57.756 22.0635Z" fill="#EC9B16"/>
<path d="M72.6532 16.0254C72.058 16.0254 71.5529 16.5074 71.5529 17.0796V17.5219C70.5196 16.541 69.128 16.0254 67.5099 16.0254C63.8987 16.0254 61.4717 18.4524 61.4717 22.0636C61.4717 25.6623 63.8987 28.0809 67.5099 28.0809C69.128 28.0809 70.5217 27.5632 71.5529 26.5824V27.0267C71.5529 27.6177 72.035 28.0809 72.6532 28.0809C73.2694 28.0809 73.7515 27.6177 73.7515 27.0267V17.0796C73.7515 16.5074 73.2485 16.0254 72.6532 16.0254ZM71.6661 22.0636C71.6661 24.6269 70.0984 26.2198 67.577 26.2198C65.1583 26.2198 63.7164 24.6667 63.7164 22.0636C63.7164 19.4082 65.1227 17.8844 67.577 17.8844C70.0984 17.8844 71.6661 19.4857 71.6661 22.0636Z" fill="#EC9B16"/>
<path d="M85.9811 17.2389C85.1239 16.4446 83.9041 16.0254 82.4516 16.0254C80.9384 16.0254 79.639 16.5032 78.6791 17.4108V17.0817C78.6791 16.5095 78.176 16.0275 77.5808 16.0275C76.9856 16.0275 76.4805 16.5095 76.4805 17.0817V27.0288C76.4805 27.6198 76.9625 28.083 77.5808 28.083C78.197 28.083 78.6791 27.6198 78.6791 27.0288V21.1373C78.6791 19.0288 79.8884 17.8195 81.9968 17.8195C84.1829 17.8195 85.1574 18.8569 85.1574 21.1834V27.0288C85.1574 27.6198 85.6395 28.083 86.2578 28.083C86.874 28.083 87.3581 27.6198 87.3581 27.0288V20.8208C87.3581 19.3117 86.8824 18.0731 85.9811 17.2389Z" fill="#EC9B16"/>
<path d="M100.014 17.012C100.014 16.5467 99.5905 16.0249 98.9827 16.0249C98.7773 16.0249 98.5593 16.1024 98.4105 16.224L91.9468 21.3987V12.2984C91.9468 11.7262 91.4438 11.2441 90.8464 11.2441C90.2512 11.2441 89.7461 11.7262 89.7461 12.2984V27.0262C89.7461 27.6172 90.2302 28.0804 90.8464 28.0804C91.4626 28.0804 91.9468 27.6172 91.9468 27.0262V23.9159L94.2732 22.0673L98.0081 27.613C98.1967 27.896 98.5341 28.0804 98.8695 28.0804C99.4794 28.0804 100.014 27.5564 100.014 26.9591C100.014 26.7432 99.9552 26.5525 99.842 26.3932L95.9415 20.7238L99.6429 17.7812C99.8692 17.601 100.014 17.3013 100.014 17.012Z" fill="#EC9B16"/>
<path d="M117.931 16.0255C117.477 16.0255 117.11 16.2812 116.972 16.692L114.169 25.0085L111.346 16.736C111.225 16.3944 110.77 16.0255 110.25 16.0255C109.739 16.0255 109.303 16.386 109.177 16.736L106.331 25.0085L103.528 16.6899C103.392 16.2791 103.023 16.0234 102.569 16.0234C101.875 16.0234 101.447 16.5935 101.447 17.1238C101.447 17.2747 101.495 17.4885 101.542 17.6037L105.235 27.3454C105.356 27.6829 105.714 28.0769 106.329 28.0769C106.842 28.0769 107.293 27.7835 107.448 27.3433L110.25 19.3119L113.096 27.3433C113.253 27.7877 113.683 28.0769 114.19 28.0769C114.806 28.0769 115.165 27.6829 115.286 27.3454L118.956 17.6079C119.005 17.4885 119.053 17.2768 119.053 17.1259C119.053 16.5956 118.623 16.0255 117.931 16.0255Z" fill="#EC9B16"/>
<path d="M130.414 17.6266C129.31 16.5934 127.82 16.0254 126.216 16.0254C124.542 16.0254 122.997 16.6248 121.87 17.7105C120.719 18.8192 120.086 20.366 120.086 22.0657C120.086 23.864 120.698 25.3877 121.855 26.4776C122.955 27.5129 124.512 28.083 126.237 28.083C128.241 28.083 129.844 27.6115 130.999 26.6851C131.211 26.5195 131.347 26.2282 131.347 25.941C131.347 25.4003 130.932 24.9769 130.406 24.9769C130.155 24.9769 129.974 25.0188 129.698 25.2452C128.872 25.9389 127.707 26.291 126.237 26.291C125.24 26.291 124.294 25.9368 123.571 25.2934C122.804 24.6122 122.37 23.6817 122.31 22.5981H130.767C131.569 22.5981 132.047 22.0762 132.047 21.2043C132.049 19.9049 131.454 18.6012 130.414 17.6266ZM130.02 20.9884H122.318C122.54 19.1734 124.179 17.8174 126.17 17.8174C128.178 17.8174 129.748 19.1147 130.02 20.9884Z" fill="#EC9B16"/>
<path d="M139.211 20.9654C137.652 20.6929 136.038 20.4142 136.038 19.2551C136.038 18.2973 137.025 17.7482 138.744 17.7482C139.892 17.7482 140.877 18.1234 141.59 18.8381L141.626 18.8716C141.886 19.1105 142.154 19.3578 142.617 19.3578C143.112 19.3578 143.512 18.9471 143.512 18.4399C143.512 18.1821 143.401 17.9368 143.172 17.6811C141.999 16.4613 140.043 16.0254 138.605 16.0254C135.885 16.0254 133.835 17.4527 133.835 19.3453C133.835 21.6277 135.818 22.1789 138.411 22.6631C138.541 22.6861 138.679 22.7092 138.828 22.7343C140.146 22.9481 141.948 23.2436 141.948 24.5787C141.948 25.3584 141.412 26.2889 138.855 26.2889C137.446 26.2889 136.254 25.7189 135.315 24.5955C135.154 24.3985 134.885 24.1365 134.414 24.1365C133.904 24.1365 133.473 24.5871 133.473 25.1215C133.473 25.7713 134.428 26.6201 134.933 26.9785C135.925 27.668 137.306 28.0809 138.626 28.0809C140.123 28.0809 141.471 27.7603 142.424 27.1797C143.462 26.5467 144.011 25.6413 144.011 24.5556C144.013 21.9672 141.533 21.3447 139.211 20.9654Z" fill="#EC9B16"/>
<path d="M153.45 25.6324C153.192 25.6324 152.983 25.7121 152.74 25.8064C152.402 25.9363 152.019 26.0851 151.342 26.0851C150.053 26.0851 149.451 25.4752 149.451 24.1716V17.9762H152.815C153.32 17.9762 153.779 17.5486 153.779 17.0791C153.779 16.5782 153.328 16.1381 152.815 16.1381H149.451V13.3401C149.451 12.7322 148.938 12.2188 148.33 12.2188C147.724 12.2188 147.229 12.7218 147.229 13.3401V16.1381H145.769C145.28 16.1381 144.851 16.5677 144.851 17.0561C144.851 17.5444 145.28 17.9741 145.769 17.9741H147.229V24.1926C147.229 26.7349 148.581 28.0783 151.138 28.0783C151.941 28.0783 152.735 27.9484 153.314 27.7241C154.018 27.4517 154.391 27.0513 154.391 26.5693C154.391 26.0537 153.97 25.6324 153.45 25.6324Z" fill="#EC9B16"/>
<path d="M20.2167 0C9.19656 0 0.226163 8.9662 0.21778 19.9843C0.213588 25.3267 2.29061 30.3505 6.0653 34.1315C9.84 37.9125 14.8617 39.9958 20.2042 40H20.2188C25.555 40 30.5725 37.923 34.3493 34.1525C38.1303 30.3778 40.2136 25.356 40.2178 20.0136C40.2241 8.98716 31.2516 0.00838355 20.2167 0ZM38.1282 20.0136C38.124 24.7985 36.2587 29.2963 32.8717 32.6749C29.4889 36.0534 24.9891 37.9125 20.2 37.9125C15.4151 37.9104 10.9194 36.043 7.53662 32.656C4.15595 29.2691 2.2969 24.7692 2.30109 19.9864C2.30738 10.1168 10.343 2.0875 20.2272 2.0875C30.1072 2.09379 38.1366 10.1378 38.1282 20.0136Z" fill="#EC9B16"/>
<path d="M28.3551 11.8309C26.5275 11.9441 25.0646 13.4049 24.9493 15.2325C24.9451 15.2933 24.943 15.3541 24.943 15.4128C24.9284 16.4649 25.402 17.4667 26.2467 18.1647L27.0012 18.7892L24.396 21.0842L21.8348 18.8186L22.6355 18.1123C23.3565 17.4751 23.8008 16.5844 23.8532 15.6643C23.8574 15.5972 23.8595 15.5301 23.8595 15.4631C23.8595 14.4612 23.4424 13.495 22.713 12.8076C21.9753 12.1138 21.0091 11.7617 19.9905 11.8246C18.1628 11.9357 16.6999 13.3986 16.5846 15.2262C16.5763 15.3562 16.5763 15.4861 16.5804 15.614C16.6203 16.5487 17.0625 17.4583 17.7961 18.106L18.5967 18.8144L16.0292 21.0758L13.4303 18.7767L14.2331 18.1081C15.0274 17.4479 15.4843 16.4859 15.4885 15.4714V15.4547C15.4885 14.4528 15.0714 13.4866 14.342 12.7992C13.6043 12.1034 12.636 11.7512 11.6195 11.8162C9.79397 11.9273 8.32894 13.3902 8.21367 15.2157C8.20948 15.2765 8.20738 15.3373 8.20738 15.396C8.19271 16.4146 8.64123 17.4018 9.43557 18.106L14.407 22.5031L13.6043 23.2095C12.8728 23.8529 12.4285 24.7583 12.3866 25.691C12.3803 25.8209 12.3803 25.9551 12.3887 26.085C12.4977 27.9147 13.9606 29.3798 15.7903 29.495C16.8068 29.5495 17.7751 29.2079 18.515 28.5162C19.2443 27.8309 19.6635 26.8647 19.6635 25.8649C19.6635 25.7979 19.6635 25.7287 19.6593 25.6637C19.609 24.7457 19.1668 23.855 18.4479 23.2178L17.6452 22.5073L20.2126 20.2459L22.7738 22.5115L21.9711 23.2178C21.2396 23.8634 20.7953 24.7667 20.7534 25.6994C20.7471 25.8272 20.7471 25.9614 20.7555 26.0934C20.8644 27.9231 22.3274 29.3881 24.1571 29.5034C24.2367 29.5076 24.3143 29.5097 24.3939 29.5097C25.3203 29.5097 26.2048 29.1597 26.8817 28.5225C27.6132 27.8372 28.0303 26.871 28.0324 25.8691C28.0324 25.8021 28.0303 25.735 28.0261 25.6679C27.9758 24.7499 27.5356 23.8592 26.8147 23.222L26.0119 22.5115L31.0002 18.1144C31.7232 17.4772 32.1655 16.5865 32.2179 15.6685C32.2221 15.6014 32.2241 15.5322 32.2241 15.4652C32.2241 14.4633 31.8071 13.4971 31.0777 12.8097C30.342 12.1201 29.3737 11.7785 28.3551 11.8309ZM23.39 24.8254L24.3918 23.943L25.3957 24.8296C25.6892 25.0895 25.8673 25.4374 25.8862 25.7853C25.8883 25.8126 25.8883 25.8419 25.8883 25.8691C25.8883 26.2862 25.7206 26.674 25.4146 26.9611C25.1086 27.2482 24.7104 27.3866 24.2912 27.3635C23.5535 27.3174 22.9394 26.7033 22.8954 25.9635C22.8912 25.9069 22.8912 25.8524 22.8933 25.7979C22.9121 25.4416 23.0924 25.0895 23.39 24.8254ZM20.2147 17.385L19.2129 16.4984C18.9132 16.2343 18.7329 15.878 18.7183 15.5217C18.7162 15.4693 18.7183 15.4149 18.7203 15.3583C18.7665 14.6205 19.3806 14.0085 20.1183 13.9624C20.1518 13.9603 20.1833 13.9603 20.2147 13.9603C20.5983 13.9603 20.9609 14.1049 21.2396 14.3669C21.5435 14.6541 21.7112 15.0397 21.7112 15.4568C21.7112 15.4861 21.7112 15.5134 21.7091 15.5427C21.6881 15.8927 21.5079 16.2406 21.2145 16.5005L20.2147 17.385ZM27.6111 16.511C27.2758 16.2343 27.0787 15.834 27.085 15.4421C27.085 15.417 27.085 15.3918 27.0871 15.3667C27.1332 14.6289 27.7473 14.0148 28.4851 13.9708C28.5165 13.9687 28.5501 13.9666 28.5815 13.9666C28.965 13.9666 29.3276 14.1112 29.6085 14.3732C29.9124 14.6603 30.0801 15.0481 30.0801 15.4652C30.0801 15.4945 30.078 15.5217 30.078 15.549C30.057 15.899 29.8768 16.2469 29.5833 16.5068L28.6276 17.3494L27.6111 16.511ZM15.0232 24.8191L16.025 23.9367L17.029 24.8233C17.3224 25.0832 17.5026 25.4311 17.5194 25.779C17.5215 25.8084 17.5215 25.8356 17.5215 25.8649C17.5215 26.282 17.3517 26.6698 17.0478 26.9569C16.7439 27.2419 16.3436 27.3866 15.9244 27.3593C15.1846 27.3132 14.5726 26.6991 14.5286 25.9593C14.5265 25.9048 14.5244 25.8482 14.5286 25.7937C14.5453 25.4353 14.7256 25.0811 15.0232 24.8191ZM10.3515 15.4295C10.3515 15.4044 10.3536 15.3792 10.3536 15.3541C10.3997 14.6163 11.0138 14.0043 11.7515 13.9582C11.783 13.9561 11.8165 13.9561 11.8479 13.9561C12.2315 13.9561 12.5962 14.1007 12.8749 14.3627C13.1788 14.6499 13.3465 15.0418 13.3465 15.4673C13.3444 15.8445 13.1683 16.2071 12.8623 16.4628L11.806 17.3431L10.8587 16.5047C10.5296 16.2134 10.3473 15.8215 10.3515 15.4295Z" fill="#EC9B16"/>
</svg>
