<svg width="150" height="40" viewBox="0 0 150 40" fill="none" xmlns="http://www.w3.org/2000/svg">
<path fill-rule="evenodd" clip-rule="evenodd" d="M7.37354 32.6433H11.1638C11.1638 30.3468 9.50188 28 5.66016 28C1.86886 28 0 30.7649 0 33.9995C0 37.443 2.23234 39.8949 5.91963 39.8949C9.4504 39.8949 11.1648 37.6521 11.1648 35.2517H7.42502C7.26954 36.0354 6.90606 36.8684 5.86711 36.8684C4.77668 36.8684 3.94572 36.0354 3.94572 33.8955C3.94572 31.8081 4.93215 31.1305 5.86711 31.1305C6.85354 31.1305 7.26849 31.9657 7.37354 32.6433ZM21.1846 39.6344V31.6516H24.4034V32.3302C24.9749 31.7041 25.8058 31.2345 26.9477 31.2345C28.0382 31.2345 29.1801 31.7566 29.5446 32.4867C30.0121 31.8081 31.051 31.286 32.1929 31.286C33.5428 31.286 34.3738 31.9121 34.7887 32.5382C35.2048 31.9121 36.2427 31.2345 37.3331 31.2345C38.7355 31.2345 39.4625 31.8081 40.0329 32.5382C40.3119 32.1354 40.6845 31.8063 41.1187 31.5793C41.5529 31.3522 42.0358 31.2339 42.5258 31.2345C44.9661 31.2345 45.5901 32.8513 45.5901 34.6256V39.6344H42.1108V35.2002C42.1108 34.4165 41.8503 34.1045 41.2799 34.1045C40.7084 34.1045 40.3449 34.6266 40.3449 35.2517V39.6344H36.8141V35.2002C36.8141 34.4165 36.6072 34.1045 36.0357 34.1045C35.4642 34.1045 35.1007 34.6266 35.1007 35.2517V39.6344H31.6215V35.2002C31.6215 34.4165 31.362 34.1045 30.7905 34.1045C30.2705 34.1045 29.9081 34.6266 29.9081 35.2517V39.6344H26.4288V35.2002C26.4288 34.4165 26.1693 34.1045 25.5978 34.1045C25.0263 34.1045 24.6629 34.6266 24.6629 35.2517V39.6344H21.1846ZM64.4909 33.947V39.6344H61.0116V35.2002C61.0116 34.4165 60.7007 34.1045 60.1292 34.1045C59.5577 34.1045 59.1942 34.6266 59.1942 35.2517V39.6344H55.7149V31.6516H58.9337V32.3302C59.5052 31.7041 60.5956 31.2345 61.478 31.2345C62.621 31.182 64.4909 31.8606 64.4909 33.947ZM72.4874 39.688C72.3319 39.1134 72.0714 38.3833 71.8119 37.4945C71.605 36.8169 71.4485 36.2434 71.4485 35.9314C71.4485 36.2434 71.3445 36.818 71.1365 37.4945C70.877 38.2782 70.67 39.1134 70.462 39.6344H66.8272L64.3869 31.6001H68.1257C68.2812 32.1222 68.4366 32.8523 68.6961 33.5824C68.8516 34.2085 68.9566 34.7306 68.9566 35.0437C68.9566 34.7306 69.1121 34.2085 69.2676 33.5824C69.5281 32.7998 69.7351 32.1212 69.8905 31.6001H73.0578C73.2133 32.1222 73.4213 32.8008 73.6293 33.5824C73.7848 34.2085 73.9403 34.7306 73.9403 35.0437C73.9403 34.7306 74.0957 34.2085 74.2523 33.5824C74.4603 32.8523 74.6672 32.1212 74.8227 31.6001H78.5089L76.1211 39.6344L72.4874 39.688ZM97.3068 28.2605H100.786V39.6344H97.3068V28.2605ZM107.225 37.1311V39.4254C107.069 39.5304 106.342 39.8435 105.199 39.8435C102.915 39.8435 102.291 38.6942 102.291 36.5564V33.6864H101.254V31.4425H102.291V28.2605H105.771V31.4425H107.172V33.6864H105.771V35.9303C105.771 36.6079 105.978 36.8169 106.236 37.0775C106.447 37.338 107.018 37.234 107.225 37.1311ZM116.78 33.6339V39.6334H113.301V35.1992C113.301 34.4155 112.937 34.1035 112.418 34.1035C111.846 34.1035 111.482 34.6256 111.482 35.2506V39.6334H107.9L107.849 28.312H111.224V32.2766C111.689 31.6505 112.886 31.1284 113.768 31.1284C115.482 31.1305 116.78 32.2777 116.78 33.6339ZM145.96 34.8346L144.455 36.2959V39.6344H143.728V28.104H144.455V35.5122L148.817 31.3385H149.647L146.533 34.365L150.011 39.6344H149.234L145.96 34.8346ZM140.146 31.9132C138.796 31.9132 137.601 33.0088 137.601 34.365V39.6344H136.875V31.3911H137.601V32.7998C137.913 32.2777 138.744 31.2345 140.25 31.2345C142.43 31.2345 143.052 32.8513 143.052 34.156V39.6344H142.326V34.5216C142.326 32.3827 141.235 31.9132 140.146 31.9132ZM125.036 28.3131C127.061 28.3131 128.358 29.4613 128.306 31.078C128.306 32.4867 127.475 33.2694 126.696 33.6349C127.371 33.8965 128.877 34.5226 128.877 36.5039C128.825 38.8003 127.112 39.6344 125.45 39.6344H120.62V28.3131H125.036ZM124.881 33.3734C125.919 33.3734 127.58 33.0078 127.528 31.182C127.528 29.4077 126.178 28.9906 125.14 29.0432H121.351V33.3734H124.881ZM121.35 38.9043H125.347C127.27 38.9043 128.047 37.9137 128.047 36.5039C128.047 35.0962 126.906 34.1045 125.556 34.1045H121.35V38.9043ZM136.563 39.1134V39.5829C136.303 39.7384 135.991 39.7384 135.837 39.7384C135.577 39.7384 134.901 39.5829 134.901 38.2772C134.122 39.3728 133.084 39.8424 131.838 39.8424C130.54 39.8424 129.294 39.2163 129.294 37.442C129.294 35.7202 130.695 35.3032 131.266 35.1992C131.838 35.0941 133.24 34.8851 133.603 34.8336C133.967 34.7285 134.901 34.7285 134.901 33.8934V33.1622C134.901 32.5361 134.434 31.702 132.616 31.702C130.59 31.702 130.228 33.4238 130.228 33.5803H129.657C129.657 32.5897 130.383 31.1284 132.514 31.1284C135.525 31.1284 135.628 32.7462 135.628 33.7368V38.4316C135.627 39.0083 135.939 39.2688 136.563 39.1134ZM134.85 36.5564V35.1466L131.994 35.6162C131.214 35.7717 130.02 36.0858 130.02 37.4935C130.02 38.9033 131.111 39.2174 132.045 39.2174C133.447 39.2174 134.85 38.2782 134.85 36.5564ZM15.993 31.078C19.3168 31.078 20.8737 33.1643 20.8737 35.5122C20.8737 38.5923 18.4848 39.8949 16.1485 39.8949C13.1892 39.8949 11.5273 38.0177 11.5273 35.6708C11.5273 33.4259 12.7732 31.078 15.993 31.078ZM16.1485 37.6521C17.0834 37.6521 17.2389 36.4009 17.2389 35.5658C17.2389 34.7821 17.0834 33.5299 16.1485 33.5299C15.2135 33.5299 15.1095 34.7811 15.1095 35.5658C15.1095 36.4009 15.2135 37.6521 16.1485 37.6521ZM50.4708 31.078C53.7936 31.078 55.3515 33.1643 55.3515 35.5122C55.3515 38.5923 52.9626 39.8949 50.6263 39.8949C47.667 39.8949 46.0051 38.0177 46.0051 35.6708C46.0051 33.4259 47.251 31.078 50.4708 31.078ZM50.6263 37.6521C51.5612 37.6521 51.6652 36.4009 51.6652 35.5658C51.6652 34.7821 51.5612 33.5299 50.6263 33.5299C49.6913 33.5299 49.5358 34.7811 49.5358 35.5658C49.5358 36.4009 49.6924 37.6521 50.6263 37.6521ZM81.6773 36.4009C81.6773 37.0785 82.1448 37.5996 82.7677 37.5996C83.1837 37.5996 83.6501 37.4441 83.8056 37.1321H87.1294C86.4025 39.0094 84.5326 39.896 82.6112 39.896C79.7034 39.896 77.99 38.0187 77.99 35.6719C77.99 33.4269 79.2359 31.079 82.5072 31.079C85.831 31.079 87.3364 33.1654 87.3364 35.5133C87.3364 35.8788 87.3364 36.0879 87.2849 36.402L81.6773 36.4009ZM83.7027 34.3125C83.5987 33.7915 83.2352 33.3219 82.7162 33.3219C82.0933 33.3219 81.7813 33.7389 81.7298 34.3125H83.7027ZM93.4651 39.6344L93.2056 39.0598C92.6856 39.6344 91.2842 40 90.6613 40C90.0898 40 87.5454 39.7909 87.5454 37.3926C87.5454 34.6792 91.0762 34.5741 91.8032 34.4701C92.4787 34.3651 92.9976 34.1571 92.9976 33.74C92.9976 33.3744 92.7381 33.0614 92.2706 33.0614C91.6477 33.0614 91.2842 33.5824 91.2842 34.1045H88.0654C88.0654 32.1212 89.7274 30.974 92.1666 30.974C96.1659 30.974 96.5809 32.3313 96.5809 34.5216V37.1311C96.5809 37.7572 96.5809 38.4873 96.6849 39.0083L96.8919 39.6344H93.4651ZM91.5952 36.6615C91.1792 36.8684 91.1277 37.131 91.3357 37.443C91.5437 37.7572 92.1152 37.8086 92.6341 37.443C93.1016 37.0775 92.9976 36.4524 92.9976 36.1919C92.3746 36.4009 91.9597 36.5028 91.5952 36.6615Z" fill="#262626"/>
<path fill-rule="evenodd" clip-rule="evenodd" d="M74.9642 24L63 12.0196L74.9642 0L83.9059 8.98493L80.2006 12.7489L74.9642 24Z" fill="#F2CA30" stroke="#F2CA30" stroke-width="1.16728" stroke-miterlimit="2.613"/>
<path fill-rule="evenodd" clip-rule="evenodd" d="M74.9639 23.9994L80.2003 12.7483L83.9056 8.98438L86.8865 12.019L74.9639 23.9994Z" fill="#262626"/>
</svg>
