<svg width="117" height="40" viewBox="0 0 117 40" fill="none" xmlns="http://www.w3.org/2000/svg">
<path fill-rule="evenodd" clip-rule="evenodd" d="M6.68905 3.4658C6.68905 0.894402 8.23639 0 10.8889 0C11.6626 0 12.4363 0.1118 13.21 0.2236V2.236C12.6574 2.236 12.2152 2.236 11.7731 2.236C10.0048 2.236 9.2311 2.45961 9.2311 3.57761V5.47821H13.0994V7.49062H9.2311V19.2296H6.68905V7.49062H3.81543V5.47821H6.68905V3.4658ZM14.3151 0.335399H16.9677V3.24221H14.3151V0.335399ZM14.3151 5.47821H16.9677V19.3414H14.3151V5.47821Z" fill="#121417"/>
<path fill-rule="evenodd" clip-rule="evenodd" d="M19.8418 5.47845H22.4944V8.04986C23.7101 5.81386 25.4785 5.03125 27.2469 5.03125C27.9101 5.03125 28.2416 5.03125 28.7943 5.14306V7.93806C28.1311 7.82626 27.689 7.71446 26.9153 7.71446C24.2627 7.71446 22.4944 9.27966 22.4944 12.2982V19.3417H19.8418V5.47845Z" fill="#121417"/>
<path fill-rule="evenodd" clip-rule="evenodd" d="M32.1096 14.981C32.1096 16.2108 33.1043 17.776 36.42 17.776C39.8463 17.776 40.62 16.5462 40.62 15.6518C40.62 14.7574 40.0673 14.0866 37.9674 13.863L33.6569 13.304C31.6675 13.0804 29.8991 11.7388 29.8991 9.61463C29.8991 6.81959 32.3306 5.14258 36.1989 5.14258C40.7304 5.14258 42.7198 7.04318 42.9409 9.72641H40.2883C40.1778 8.38478 38.8515 7.15498 36.1989 7.15498C34.5411 7.15498 32.5517 7.60218 32.5517 9.27918C32.5517 10.1736 32.9938 10.7326 34.8727 10.9562L38.6305 11.4033C42.0567 11.8506 43.4935 13.0804 43.4935 15.0928C43.4935 18.335 40.7304 19.7884 36.5306 19.7884C33.3254 19.7884 29.7886 19.0058 29.457 14.981H32.1096Z" fill="#121417"/>
<path fill-rule="evenodd" clip-rule="evenodd" d="M46.8093 1.23047H49.4619V5.47888H53.4408V7.49129H49.4619V15.9881C49.4619 17.1061 50.2355 17.4415 51.5618 17.4415C52.1145 17.4415 52.7776 17.3297 53.3303 17.2179V19.4539C52.4461 19.5657 51.4513 19.6775 50.3461 19.6775C47.8041 19.6775 46.6989 18.4477 46.6989 16.4353V7.49129H43.8252V5.47888H46.6989V1.23047H46.8093Z" fill="#121417"/>
<path fill-rule="evenodd" clip-rule="evenodd" d="M72.7825 7.26726C70.3509 7.26726 68.251 8.38527 68.251 10.9567V19.3417H65.5985V10.5094C65.5985 7.93806 63.9406 7.26726 62.2828 7.26726C59.8512 7.26726 57.7512 8.60886 57.7512 11.4038V19.3417H55.0986V5.47845H57.7512V7.60266C59.0775 5.59025 61.1775 5.03125 63.1669 5.03125C64.9353 5.03125 66.7037 5.81386 67.8089 7.60266C69.0246 6.03746 70.7931 5.03125 73.3351 5.03125C74.7719 5.03125 78.5297 5.70205 78.5297 9.95047V19.3417H75.8771V10.5094C75.8771 7.9377 74.4403 7.26726 72.7825 7.26726Z" fill="#121417"/>
<path fill-rule="evenodd" clip-rule="evenodd" d="M81.624 9.83868C81.9557 6.37285 84.3871 5.03125 88.4765 5.03125C91.2396 5.03125 94.7767 5.70205 94.7767 8.94426V16.3231C94.7767 17.1056 95.1081 17.5529 95.9924 17.5529C96.3237 17.5529 96.6551 17.5529 96.8766 17.4411V19.2299C96.213 19.3417 95.4395 19.3417 94.7767 19.3417C93.4503 19.3417 92.5659 19.0062 92.4554 17.4411C91.3502 18.8945 88.8082 19.6771 86.5977 19.6771C82.0662 19.6771 80.9609 17.3293 80.9609 15.5405C80.9609 12.9691 82.5083 11.7393 86.9292 11.292L89.9134 10.9567C91.3502 10.8449 92.3448 10.5094 92.3448 9.27966C92.3448 7.37906 90.466 7.04365 88.366 7.04365C86.1556 7.04365 84.1662 7.60266 84.0556 9.83868C84.0556 9.95047 81.624 9.95047 81.624 9.83868ZM92.3448 12.0747C91.9027 12.5219 91.2396 12.7455 89.8028 12.8573L86.8187 13.1926C84.7187 13.4162 83.724 13.9753 83.724 15.4287C83.724 16.7703 85.0502 17.6647 86.9291 17.6647C89.9133 17.6647 92.4553 16.0994 92.4553 13.7517V12.0747H92.3448Z" fill="#121417"/>
<path fill-rule="evenodd" clip-rule="evenodd" d="M112.46 14.1988C111.355 18.3355 108.813 19.7889 105.276 19.7889C99.7499 19.7889 97.7607 16.0994 97.7607 12.5219C97.7607 8.38526 100.303 5.03125 105.276 5.03125C108.924 5.03125 111.908 6.70826 112.46 10.0623H109.697C109.366 8.27346 107.929 7.15546 105.498 7.15546C102.182 7.15546 100.634 9.39143 100.634 12.2982C100.634 15.205 102.182 17.4411 105.498 17.4411C107.818 17.4411 109.144 16.4349 109.697 14.0871H112.46V14.1988Z" fill="#121417"/>
<path fill-rule="evenodd" clip-rule="evenodd" d="M3.59479 28.0626C15.5313 28.0626 22.9365 28.957 34.873 28.957C40.7308 28.957 46.4781 29.1806 52.2253 28.2862C54.5463 27.9508 56.6462 27.7271 58.8567 28.1744C61.2882 28.7334 63.2777 30.1868 65.5986 30.9694C67.8092 31.752 70.1301 31.193 72.2301 30.5221C74.5511 29.8514 76.651 28.957 78.972 28.1744C81.072 27.5035 82.9509 27.6153 84.9403 28.3979C86.8192 29.1806 88.4771 30.2985 90.356 31.0812C94.4449 32.87 98.977 33.2053 103.288 32.4227C107.929 31.6402 112.24 29.5159 116.44 27.3917C116.771 27.1682 116.329 24.9322 116.551 24.8203C111.908 27.28 106.934 30.2985 101.519 30.8576C96.5457 31.4165 91.9034 29.5159 87.4823 27.0564C85.4929 25.9384 83.393 24.9322 81.072 25.044C79.8563 25.1558 78.6404 25.6029 77.5352 25.9384C76.2089 26.3855 74.8826 26.9446 73.5564 27.3917C71.1249 28.1744 68.4723 28.957 65.9303 28.2862C63.6092 27.6153 61.6198 26.0502 59.1883 25.4911C57.1989 24.9322 55.3199 25.044 53.3305 25.3794C50.899 25.7147 48.578 25.9384 46.1464 26.0502C42.8307 26.162 41.2834 26.2738 35.9782 26.162C25.589 26.3855 14.0945 25.1558 3.48426 25.1558C3.37373 25.2676 3.48426 28.0626 3.59479 28.0626Z" fill="#FFCE00"/>
<path fill-rule="evenodd" clip-rule="evenodd" d="M0.279176 31.6404C7.02113 32.0876 11.7737 32.3113 17.7419 32.5349C20.726 32.6466 19.5103 32.5349 22.4945 32.5349C25.1471 32.5349 27.7996 32.5349 30.2311 31.7522C32.5522 31.0814 34.8731 29.2926 36.9731 28.1746C39.073 27.1684 41.0625 26.0504 43.494 25.8268C47.8044 25.4914 51.3411 29.1808 54.5464 31.6404C58.0831 34.4355 62.0619 39.3547 66.5935 39.9137C71.8986 40.4726 75.8775 33.8764 79.9669 31.1932C84.3878 28.2864 90.135 28.6219 95.2192 29.069C97.6504 29.2926 99.9718 29.4045 102.403 29.7398C104.172 29.9634 106.382 30.2989 108.04 29.2926C108.261 29.1808 108.151 27.8392 108.151 27.7275V27.5039C106.492 28.6219 104.172 28.1746 102.292 27.951C99.7503 27.6157 97.2083 26.833 94.6663 26.6095C91.7929 26.3858 88.9193 26.274 86.1561 26.7213C83.5036 27.1684 81.2931 28.0628 79.0827 29.5163C76.7616 31.0814 74.6616 35.1063 72.2302 36.3361C70.9039 37.0069 69.5776 38.2367 68.1408 38.2367C67.1461 38.2367 65.4882 37.4541 65.1567 37.1187C60.4041 36.0006 56.5358 30.5225 52.7779 27.6157C49.6833 25.2678 46.1465 22.5846 42.1677 23.479C39.9572 23.9262 37.9678 25.9386 35.9784 26.9448C33.8784 27.951 31.6679 28.9572 29.4574 29.5163C26.9154 30.0752 24.2628 30.0752 21.7208 29.9634C18.8472 29.8516 17.6314 29.8516 14.7578 29.7398C9.01056 29.5163 7.02113 29.1808 0.610747 28.8454C0.168652 28.8454 0.168652 31.6404 0.279176 31.6404Z" fill="#F20DA1"/>
<path fill-rule="evenodd" clip-rule="evenodd" d="M87.4825 27.1665C87.2615 27.0547 87.0305 26.8564 86.6989 26.6328C86.4778 26.6328 86.2537 26.7173 85.9898 26.7618C84.6636 26.9855 83.5879 27.3103 82.3721 27.7575C83.2562 27.8693 84.0564 28.1727 84.9405 28.5082C85.3826 28.7318 85.7142 28.7785 86.1562 29.0021C87.7036 28.7785 89.2692 28.7808 90.8166 28.7808C89.6008 28.2218 88.5878 27.7256 87.4825 27.1665Z" fill="#DF2620"/>
<path fill-rule="evenodd" clip-rule="evenodd" d="M52.7773 27.6154C52.0036 26.9446 51.1194 26.3856 50.2352 25.7148C48.909 25.8266 47.5827 25.9384 46.1458 26.0502C46.0353 26.0502 46.0353 26.0502 45.9248 26.0502C47.5827 26.4975 49.1299 27.3919 50.5668 28.5099C51.1194 28.3981 51.672 28.3981 52.2247 28.2862C52.6667 28.1744 52.9983 28.1744 53.4404 28.1744C53.2193 28.0626 52.9983 27.839 52.7773 27.6154Z" fill="#DF2620"/>
<path fill-rule="evenodd" clip-rule="evenodd" d="M37.2409 26.2188C36.7591 26.4861 35.5865 27.1038 35.5865 27.1038C35.5865 27.1038 32.9252 28.3609 31.3779 28.9198C32.4832 28.9198 34.4048 28.9198 34.4048 28.9198C34.4048 28.9198 35.3094 28.9198 35.641 28.9198C36.0831 28.6963 36.2174 28.5761 36.6595 28.3525C38.2068 27.5699 39.8643 26.6659 41.5222 26.2188C40.3065 26.2188 39.0092 26.2188 37.2409 26.2188Z" fill="#DF2620"/>
<path fill-rule="evenodd" clip-rule="evenodd" d="M108.151 29.0684C107.377 29.4037 106.493 29.7392 105.72 29.9628C106.493 29.9628 107.377 29.7392 108.04 29.2919C108.04 29.2919 108.151 29.1801 108.151 29.0684Z" fill="#DF2620"/>
<path fill-rule="evenodd" clip-rule="evenodd" d="M29.2369 37.3411C34.1 37.5648 40.6209 38.0119 45.4839 37.2293C47.6944 36.894 49.6839 36.2231 51.4522 34.7698C52.9996 33.5399 54.4363 32.0866 56.4258 31.863C58.7468 31.6393 60.6257 33.2045 62.0625 34.8816C63.4993 36.5586 64.273 38.7946 66.5939 39.689C69.7991 40.9187 71.3465 37.453 73.2254 35.5524C74.3307 34.4343 75.657 33.7636 77.2042 34.0989C78.8621 34.4343 80.4094 35.6642 81.6252 36.6704C84.2778 38.7946 87.483 41.4778 90.7987 39.0181C91.9039 38.2355 92.7881 37.0058 93.7824 36.1113C95.1088 34.9934 96.4352 34.658 98.0929 34.7698C100.304 34.8816 102.514 35.6642 104.725 35.776C106.493 35.8878 108.703 35.4405 110.251 34.4343C110.472 34.3225 110.362 32.981 110.362 32.8692C110.362 32.7574 110.362 31.9748 110.362 31.9748C108.593 33.2045 106.051 33.5399 103.951 33.3163C101.519 33.0928 99.088 32.1983 96.6567 32.4219C93.2302 32.7574 92.0144 37.2293 88.5882 37.6766C84.9409 38.2355 82.1778 34.4343 79.4147 32.6455C78.0884 31.7512 76.4305 31.3039 74.8833 31.9748C73.557 32.5337 72.6728 33.7636 71.8991 34.8816C70.9044 35.776 70.1307 36.894 68.6939 37.2293C66.815 37.6766 64.9361 36.4467 63.9414 35.1051C62.6151 33.3163 61.5099 31.3039 59.5205 30.0742C57.6416 28.9562 55.5416 29.2915 53.7732 30.4095C52.1154 31.5275 50.7891 33.0927 48.9102 33.8754C46.6997 34.7698 44.0471 34.9934 41.6156 35.2169C37.0841 35.5524 32.5526 35.1051 28.0211 34.8816C18.1846 34.4343 13.3215 34.9934 3.59539 34.9934C3.37435 34.9934 3.48487 37.6766 3.59539 37.6766C3.59539 37.6766 24.0423 37.2293 29.2369 37.3411Z" fill="#0DBFF2"/>
<path fill-rule="evenodd" clip-rule="evenodd" d="M57.368 31.8694C56.5943 31.0868 55.9351 30.3875 55.1614 29.7168C54.732 29.8873 54.5316 29.9695 54.1411 30.1893C53.8282 30.3654 53.5639 30.5372 53.3662 30.6916C53.8083 31.0271 54.5964 31.6308 54.5964 31.6308C54.5964 31.6308 54.9722 31.9431 55.1933 32.1667C55.6354 32.0549 55.8455 31.9667 56.2758 31.9055C56.7048 31.8444 56.9521 31.8578 57.368 31.8694Z" fill="#1C1AB3"/>
<path fill-rule="evenodd" clip-rule="evenodd" d="M67.5466 39.9645C68.2159 40.0268 68.6935 39.9127 69.2461 39.6892C70.6829 39.0184 71.7271 37.3142 72.8323 35.9727C72.6113 36.0844 72.1869 36.3829 72.1869 36.3829C72.1869 36.3829 69.4672 38.2358 68.0304 38.2358C67.0357 38.2358 64.9377 37.3094 64.9377 37.3094C64.9377 37.3094 63.792 36.7183 63.1289 36.3829C64.0131 37.7245 64.8252 39.0184 66.4831 39.6892C66.9252 39.9127 67.1197 39.9247 67.5466 39.9645Z" fill="#1C1AB3"/>
<path fill-rule="evenodd" clip-rule="evenodd" d="M76.8495 31.668C75.9552 32.7228 75.1668 33.7403 74.2725 34.678C75.055 34.2092 75.7041 33.9957 76.6132 34.0188C77.2839 33.3156 77.9694 32.7794 78.6402 32.1934C77.9694 31.8418 77.4084 31.668 76.8495 31.668Z" fill="#1C1AB3"/>
</svg>
