<svg width="164" height="60" viewBox="0 0 164 60" fill="none" xmlns="http://www.w3.org/2000/svg">
<g clip-path="url(#clip0_966_36215)">
<path d="M8.63944 36.7168C9.18277 37.806 9.45444 38.3506 9.27333 39.7122C9.18277 40.5291 8.54888 40.9829 8.00555 41.346C8.00555 41.346 8.54888 39.5306 7.82444 38.1691C6.73777 35.8999 5.83222 36.0814 1.30444 34.3568C0.761107 34.1753 0.217773 33.4491 0.217773 33.3583C0.217773 33.2676 3.84 33.9029 5.65111 34.4476C6.64722 34.7199 8.09611 35.7183 8.63944 36.7168Z" fill="#004833"/>
<path d="M153.891 39.5303C152.894 42.9795 150.721 44.4318 147.642 44.4318C143.477 44.4318 140.851 41.2549 140.851 36.8072C140.851 32.4503 143.567 29.0918 147.642 29.0918C152.17 29.0918 154.343 33.2672 154.072 37.7149H144.473C144.563 40.2564 145.741 41.4364 147.733 41.4364C148.819 41.4364 149.725 40.8918 150.268 40.2564C150.631 39.8026 151.174 39.5303 151.717 39.5303H153.891ZM150.54 35.2641C150.178 33.2672 149.453 32.178 147.642 32.178C145.288 32.178 144.654 34.1749 144.654 35.2641H150.54Z" fill="#E30000"/>
<path d="M136.685 30.6349C137.319 29.7272 138.134 29.0918 138.949 29.0918V43.161C138.949 45.521 138.134 49.6056 132.067 49.6056C129.441 49.6056 126.362 48.2441 126.181 44.8856H128.626C129.26 44.8856 129.894 45.2487 130.165 45.7933C130.709 46.6103 131.524 46.8826 132.52 46.8826C134.512 46.8826 135.508 45.3395 135.418 43.2518V41.3456H135.327C134.512 42.8887 132.973 43.6149 131.343 43.6149C127.358 43.6149 125.638 40.3472 125.638 36.3533C125.638 31.9056 128.264 29.0918 132.248 29.0918C134.059 29.0918 135.508 29.6364 136.685 30.6349ZM135.508 36.6256C135.508 34.2656 134.784 32.178 132.429 32.178C130.347 32.178 129.441 34.1749 129.441 36.3533C129.441 38.441 130.165 40.7103 132.429 40.7103C134.422 40.6195 135.508 38.7133 135.508 36.6256Z" fill="#E30000"/>
<path d="M106.892 41.4364C109.337 41.4364 110.152 39.0764 110.152 36.8072C110.152 34.4472 109.428 32.0872 106.892 32.0872C104.447 32.0872 103.723 34.4472 103.723 36.8072C103.632 39.0764 104.356 41.4364 106.892 41.4364ZM106.892 29.0918C111.058 29.0918 113.774 32.178 113.774 36.8072C113.774 41.4364 111.058 44.4318 106.892 44.4318C102.726 44.4318 100.01 41.3456 100.01 36.8072C100.01 32.178 102.726 29.0918 106.892 29.0918Z" fill="#E30000"/>
<path d="M97.9277 39.5303C96.9316 42.9795 94.7583 44.4318 91.6794 44.4318C87.5138 44.4318 84.8877 41.2549 84.8877 36.8072C84.8877 32.4503 87.6044 29.0918 91.6794 29.0918C96.2071 29.0918 98.3805 33.2672 98.1088 37.7149H88.6005C88.691 40.2564 89.8682 41.4364 91.8605 41.4364C92.9471 41.4364 93.8527 40.8918 94.396 40.2564C94.7583 39.8026 95.3016 39.5303 95.8449 39.5303H97.9277ZM94.4866 35.2641C94.1244 33.2672 93.3999 32.178 91.5888 32.178C89.2344 32.178 88.6005 34.1749 88.6005 35.2641H94.4866Z" fill="#E30000"/>
<path d="M51.7436 33.721C51.0192 33.721 50.4758 33.358 50.1136 32.7226C49.6608 31.9056 48.8458 31.7241 47.8497 31.7241C47.0347 31.7241 45.8575 31.9056 45.8575 33.0856C45.8575 34.538 47.9403 34.7195 50.023 35.2641C52.1964 35.8087 54.1886 36.6256 54.1886 39.3487C54.1886 43.161 51.2003 44.4318 48.1214 44.4318C45.0425 44.4318 42.0542 43.161 41.873 39.3487H45.3142C45.3142 41.0733 46.6725 41.7995 48.1214 41.7995C49.208 41.7995 50.4758 41.3456 50.4758 39.9841C50.4758 38.8041 48.9364 38.3503 46.3103 37.7149C44.2275 37.1703 42.0542 36.3533 42.0542 33.8118C42.0542 30.0903 44.9519 29.0918 47.8497 29.0918C50.7475 29.0918 53.4642 30.181 53.7358 33.721H51.7436Z" fill="#E30000"/>
<path d="M60.9808 29.5464H63.6069V30.3633C63.6069 31.3618 62.792 32.1787 61.7958 32.1787H60.9808V39.3495C60.9808 40.711 61.2525 41.0741 62.5203 41.0741C62.8825 41.0741 63.2447 41.0741 63.6069 40.9833V44.0695C62.9731 44.1602 62.1581 44.251 61.4336 44.251C59.1697 44.251 57.2681 43.7064 57.2681 40.8018V32.1787H55.0947V31.3618C55.0947 30.3633 55.9097 29.5464 56.9058 29.5464H57.2681V25.1895H59.0792C60.0753 25.1895 60.8903 26.0064 60.8903 27.0048V29.5464H60.9808Z" fill="#E30000"/>
<path d="M80.8124 30.6349C81.4463 29.7272 82.2613 29.0918 83.0763 29.0918V43.161C83.0763 45.521 82.3519 49.6056 76.1941 49.6056C73.568 49.6056 70.4891 48.2441 70.308 44.8856H72.753C73.3869 44.8856 74.0208 45.2487 74.2924 45.7933C74.8358 46.6103 75.6508 46.8826 76.6469 46.8826C78.6391 46.8826 79.6352 45.3395 79.5446 43.2518V41.3456H79.4541C78.6391 42.8887 77.0996 43.6149 75.4696 43.6149C71.4852 43.6149 69.7646 40.3472 69.7646 36.3533C69.7646 31.9056 72.3908 29.0918 76.3752 29.0918C78.1863 29.0918 79.6352 29.6364 80.8124 30.6349ZM79.6352 36.6256C79.6352 34.2656 78.9108 32.178 76.5563 32.178C74.4735 32.0872 73.568 34.0841 73.568 36.2626C73.568 38.3503 74.2924 40.6195 76.5563 40.6195C78.5485 40.6195 79.6352 38.7133 79.6352 36.6256Z" fill="#E30000"/>
<path d="M69.3116 42.4344C69.3116 43.5237 68.406 44.4313 67.3194 44.4313C66.2327 44.4313 65.3271 43.5237 65.3271 42.4344C65.3271 41.3452 66.2327 40.4375 67.3194 40.4375C68.406 40.4375 69.3116 41.3452 69.3116 42.4344Z" fill="#E30000"/>
<path d="M36.8926 41.6191C38.5226 44.2514 41.5109 46.1576 44.4992 46.6114C49.842 47.2468 54.9131 44.7053 60.2559 46.7022C62.7915 47.6099 64.8742 49.0622 66.142 51.2407C65.0554 50.7868 64.3309 50.4238 62.9726 49.9699C60.6181 49.2438 58.6259 49.5161 56.2715 49.8791C51.7437 50.5145 47.3065 51.9668 42.9598 49.8791C39.6998 48.3361 37.7076 45.0684 36.8926 41.6191Z" fill="#FFCD00"/>
<path d="M31.0967 20.9234C31.459 22.3757 31.0967 23.7372 30.9156 25.4618C30.7345 26.9141 31.1873 28.3664 32.5456 28.7295C33.6323 29.0926 36.1678 29.0018 37.8884 30.5449C38.4317 31.0895 38.6128 31.1803 38.7034 31.9972C38.794 32.451 38.7034 33.0864 38.6128 33.4495C38.1601 34.7203 37.7073 35.9003 36.9828 36.8987C35.8056 38.2603 34.5378 39.531 32.9078 40.0757C29.9195 41.0741 28.1084 38.0787 25.754 36.808C24.7578 36.2634 23.4901 35.9003 22.494 36.8987C20.9545 38.4418 21.1356 40.8018 21.9506 42.5264C23.5806 45.7034 26.9312 48.5172 29.2856 50.8772C25.1201 51.9664 20.864 53.0557 16.6984 51.8757C14.7062 51.331 12.8951 48.8803 12.0801 46.9741C10.6312 43.888 9.72563 36.5357 2.39062 31.3618C6.01285 31.8157 7.55229 32.1787 9.90674 30.5449C10.4501 30.1818 10.5406 29.5464 10.5406 28.911C10.1784 26.3695 8.09562 25.008 6.73729 23.2834C7.7334 23.6464 8.72951 23.9187 9.81618 24.0095C11.3556 24.191 12.8045 23.828 14.0723 23.1018C18.3284 20.5603 13.4384 14.6603 13.4384 14.6603C13.4384 14.6603 17.9662 17.928 20.7734 17.4741C21.7695 17.2926 22.4034 16.9295 22.8562 16.1126C24.124 14.0249 25.2106 11.8464 26.1162 9.66797C25.9351 11.6649 25.6634 13.8434 26.2067 15.7495C26.7501 17.5649 28.2895 17.928 29.7384 18.9264C30.3723 19.2895 30.9156 19.7434 31.0967 20.9234Z" fill="#78BE20"/>
<path d="M23.3095 23.5553C22.585 24.5537 22.7661 26.0968 24.0339 26.1876C24.8489 26.1876 25.7545 25.8245 26.0261 25.0076C26.2978 24.1907 25.9356 23.4645 25.3017 22.9199C24.6678 22.5568 23.8528 22.8291 23.3095 23.5553Z" fill="white"/>
<path d="M6.82828 25.2793C7.82439 25.824 8.91106 26.6409 9.81661 27.5486C10.8127 28.547 12.0805 30.9978 10.4505 32.904C9.81661 33.6301 8.72994 33.9932 7.73383 33.9932C6.19439 34.084 4.29272 33.5393 3.20605 32.7224C3.47772 32.7224 6.82828 33.3578 8.45828 32.5409C9.00161 32.2686 9.54494 31.6332 9.18272 30.1809C8.72994 28.2747 6.91883 26.9132 4.02105 25.007C3.65883 24.8255 3.47772 24.3717 3.29661 23.9178C3.20605 23.7363 5.01717 24.1901 6.82828 25.2793Z" fill="#004833"/>
<path d="M9.99772 25.7329C10.9938 26.6406 12.4427 26.8221 13.5294 26.096C14.7066 25.279 14.7066 23.1913 14.4349 22.0113C13.8011 18.6529 11.9899 15.7483 9.54494 14.3867C10.7222 17.019 12.1711 19.7421 12.7144 22.5559C12.8049 23.1913 12.8955 23.9175 12.6238 24.4621C11.9899 25.7329 9.72605 24.9159 8.54883 24.2806C9.00161 24.8252 9.99772 25.7329 9.99772 25.7329Z" fill="#004833"/>
<path d="M17.695 17.7453C19.7778 17.473 19.7778 15.5669 20.0495 14.0238C20.3211 12.6622 20.955 11.3007 21.8606 10.1207C22.585 9.21301 22.9473 8.9407 23.5811 8.12377C25.03 6.39916 25.9356 5.94531 25.9356 5.94531C25.9356 5.94531 22.9473 10.7561 22.3134 13.1161C21.77 15.2038 22.4039 17.7453 20.0495 19.1069C18.0573 20.1961 16.065 19.2884 14.7067 18.1084C13.9823 17.473 13.5295 16.8376 13.2578 15.8392C14.6161 16.6561 15.8839 17.9269 17.695 17.7453Z" fill="#004833"/>
<path d="M25.6641 17.2021C26.5696 18.1098 27.6563 18.4729 28.743 19.199C29.7391 19.8344 30.373 20.5606 30.7352 21.6498C31.188 23.1929 30.4635 24.8267 30.5541 26.4606C30.7352 29.1837 32.6369 29.0929 35.0819 29.1837C36.5307 29.2744 39.0663 30.4544 38.7946 32.5421C38.7041 33.4498 38.523 33.9944 37.9796 34.6298C37.3457 35.0837 36.6213 35.356 36.078 34.9021C37.2552 34.539 37.708 34.0852 37.7985 32.8144C37.8891 32.179 37.4363 31.4529 37.1646 31.2714C36.7119 30.8175 35.9874 30.1821 34.1763 30.2729C32.818 30.2729 31.6407 30.3637 30.373 29.456C29.7391 29.0021 29.4674 28.639 29.1052 27.9129C28.2902 26.1883 29.3769 24.1914 29.1052 22.4667C29.0146 21.559 28.0185 20.6514 27.2035 20.1067C25.9357 19.2898 24.4869 18.836 23.6719 17.2929C22.4946 15.1144 23.4907 12.3914 24.9396 10.2129C25.0302 12.4821 23.9435 15.296 25.6641 17.2021Z" fill="#004833"/>
<path d="M26.5692 25.5528C27.3842 24.6451 26.9314 23.3744 25.8448 22.9205C25.3014 22.6482 24.4864 22.5574 23.8526 22.739C23.6714 22.8297 23.1281 22.9205 22.8564 23.3744C23.1281 23.2836 23.5809 23.1928 24.0337 23.1021C24.6676 23.1021 24.7581 23.3744 24.7581 23.3744C24.7581 23.3744 23.9431 23.5559 23.762 24.2821C23.5809 24.8267 23.762 25.4621 24.2148 25.7344C24.8487 26.4605 25.9353 26.279 26.5692 25.5528Z" fill="#004833"/>
<path d="M15.3406 25.0988C16.1556 23.9188 17.0611 22.8296 18.0572 21.9219C17.9667 22.9203 17.5139 23.9188 17.0611 24.8265C14.7972 29.5465 12.8956 32.8142 12.1711 39.0773C11.4467 45.068 12.8956 48.0634 13.8011 49.425C14.0728 49.8788 13.8917 50.968 13.3484 51.5126C12.805 52.2388 11.2656 51.3311 11.2656 51.3311C11.2656 51.3311 10.9939 50.605 10.7222 49.8788C10.1789 47.8819 9.81669 45.885 9.72613 43.7065C9.36391 37.1711 11.2656 30.7265 15.3406 25.0988Z" fill="#004833"/>
<path d="M29.7393 33.7217C31.9126 35.3556 34.2671 36.2633 36.6215 37.2617C36.3498 38.1694 36.0782 38.2602 35.4443 38.8956C33.8143 38.4417 32.0937 37.7156 31.0071 36.6264C29.4676 35.2648 28.2904 34.0848 27.7471 32.0879C28.5621 32.451 29.0148 33.1771 29.7393 33.7217Z" fill="#004833"/>
<path d="M24.7583 35.3556C27.1127 35.7187 27.9277 37.171 29.5577 38.6233C30.8255 39.7125 32.1838 40.5294 33.9949 40.1664C33.7233 41.5279 32.0933 41.891 30.6444 41.6187C28.1994 41.2556 27.7466 39.3494 26.1166 37.6248C25.0299 36.4448 23.0377 36.6264 21.8605 38.1694C20.321 40.0756 21.8605 43.3433 23.1283 44.8864C24.4866 46.5202 25.6638 47.7002 27.0222 48.971C27.0222 48.971 28.9238 50.7864 29.9199 52.1479C26.1166 50.2417 23.581 48.5171 20.8644 45.1587C19.5966 43.5248 19.3249 42.1633 19.2344 40.5294C19.3249 38.9864 19.4155 37.8971 20.5022 36.6264C21.5888 35.2648 23.1283 34.9925 24.9394 35.2648" fill="#004833"/>
<path d="M34.8103 32.3603C34.3575 32.5418 33.9047 33.0865 34.0858 33.5403C34.2669 34.0849 34.9008 34.1757 35.4441 33.8126C35.6253 33.6311 35.7158 33.3588 35.8064 33.1772C35.8064 32.8141 35.5347 32.4511 35.0819 32.2695C34.9914 32.2695 34.9008 32.3603 34.8103 32.3603Z" fill="white"/>
<path d="M35.353 31.9062C35.6247 31.9062 35.8963 32.0878 36.168 32.2693C36.4397 32.5416 36.3491 33.0863 35.9869 33.4493C35.5341 33.8124 35.0813 33.9032 34.6286 33.4493C34.3569 33.177 34.3569 32.6324 34.6286 32.2693C34.8097 31.997 34.9908 31.9062 35.353 31.9062Z" fill="#004833"/>
<path d="M119.298 37.1707V44.0691H115.676V29.0922C115.676 29.0922 116.944 28.9106 118.211 30.9076C118.845 30.1814 120.385 29.0922 122.467 29.0922C124.912 29.0922 126.271 30.2722 126.271 30.2722C126.271 30.2722 125.727 30.9983 125.365 31.906C124.912 32.723 124.641 33.6306 124.641 33.6306C124.641 33.6306 123.735 32.8137 122.649 32.8137C121.381 32.8137 119.298 33.8122 119.298 37.1707Z" fill="#E30000"/>
</g>
<defs>
<clipPath id="clip0_966_36215">
<rect width="163" height="59" fill="white" transform="translate(0.217773 0.5)"/>
</clipPath>
</defs>
</svg>
