<svg width="91" height="40" viewBox="0 0 91 40" fill="none" xmlns="http://www.w3.org/2000/svg">
<path d="M12.3748 13.5677C6.33826 16.3859 4.81609 11.4889 1.03242 9.13167C2.84742 9.29984 4.17244 10.016 5.00746 11.2801C5.16402 11.5237 5.38147 11.6889 5.65981 11.7759C11.6876 13.6721 11.4701 3.00821 5.94685 4.50428C4.00717 5.03487 3.58966 8.42713 0.754077 6.87017C0.52259 6.74302 0.34031 6.54207 0.236273 6.29932C0.132236 6.05656 0.112427 5.78597 0.180002 5.53065C3.37221 -6.40315 20.0465 3.17347 12.3748 13.5677ZM36.3293 15.9684V22.9182C36.3293 23.2429 36.1699 23.4169 35.851 23.4401C30.5538 23.8228 32.1717 14.0287 32.1977 10.7321C32.2325 6.45266 37.4253 11.7672 38.3038 11.9586C43.1226 12.9936 43.5314 4.25204 39.0084 4.33902C36.3033 4.39121 35.964 8.03571 33.111 7.02673C32.4326 6.78318 32.1543 6.30769 32.276 5.60024C32.6848 3.22566 33.9983 1.38166 36.3989 0.616227C48.6372 -3.29792 50.0376 18.6996 36.7816 15.6205C36.4801 15.5509 36.3293 15.6669 36.3293 15.9684Z" fill="#DF0024"/>
<path d="M52.856 15.9501V22.9607C52.856 23.3261 52.6734 23.5145 52.308 23.5261C47.3327 23.7088 48.9158 13.4885 48.9593 10.3398C48.9651 10.0266 49.0955 9.7831 49.3507 9.60914C52.1863 7.70425 56.4135 16.1414 58.562 9.77441C59.6144 6.64309 57.5443 3.12906 53.7954 4.92957C53.5287 5.05714 53.3257 5.25139 53.1865 5.51234C52.5023 6.80546 51.4266 7.34474 49.9595 7.13019C49.729 7.09546 49.5095 7.0079 49.3185 6.87443C49.1274 6.74096 48.97 6.56522 48.8587 6.3611C48.7473 6.15697 48.6851 5.93005 48.6769 5.69822C48.6687 5.46638 48.7147 5.23599 48.8114 5.02523C50.5568 1.23286 53.1662 -0.370494 56.6397 0.215179C66.0336 1.80693 64.6333 18.5943 53.3518 15.5674C53.0213 15.4804 52.856 15.6079 52.856 15.9501ZM20.586 9.46127C21.308 12.7753 24.3697 12.3577 26.8052 11.0356C27.1415 10.8501 27.4169 10.9139 27.6315 11.227L28.8492 12.9753C29.0522 13.2595 29.0174 13.5146 28.7449 13.7407C18.8377 21.9866 10.9833 5.15571 20.4904 1.12848C25.6657 -1.06344 30.3888 2.28533 29.4842 8.26093C29.4378 8.57406 29.258 8.73644 28.9449 8.74804L20.8905 9.06117C20.6295 9.07277 20.528 9.20613 20.586 9.46127ZM25.6135 5.78198C25.3352 3.24213 21.6994 4.09454 20.8383 5.95594C20.6991 6.24587 20.7919 6.39084 21.1166 6.39084H25.0743C25.4802 6.39084 25.6599 6.18789 25.6135 5.78198Z" fill="#DF0024"/>
<path d="M69.5038 9.46233C70.1997 12.8372 73.3832 12.324 75.8187 10.9845C76.0796 10.8395 76.2999 10.8917 76.4797 11.1411L77.7844 12.9677C78.0106 13.2866 77.97 13.5649 77.6627 13.8027C71.313 18.7258 63.2847 13.62 65.5114 5.80913C67.7903 -2.20183 79.8372 -1.03628 78.4629 8.2272C78.4165 8.56353 78.2222 8.7375 77.8801 8.7491L69.817 9.06223C69.556 9.07383 69.4516 9.20719 69.5038 9.46233ZM74.4704 5.86132C74.3922 3.23449 70.6346 4.06951 69.7648 5.957C69.6314 6.24693 69.7242 6.3919 70.0431 6.3919H73.9486C74.3023 6.3919 74.4762 6.21504 74.4704 5.86132ZM85.0995 1.25132C86.7348 0.63665 88.4251 0.459787 90.1705 0.720731C90.5011 0.767121 90.617 0.95268 90.5185 1.27741L89.753 3.80856C89.6428 4.17968 89.3964 4.33045 89.0137 4.26087C87.8191 4.04631 86.7609 4.29566 85.8389 5.00891C85.5953 5.20026 85.4736 5.44961 85.4736 5.75694L85.4649 14.9595C85.4649 15.3365 85.2764 15.5249 84.8995 15.5249H81.916C81.5333 15.5249 81.3419 15.3365 81.3419 14.9595V1.42528C81.3419 1.13534 81.4811 0.941082 81.7595 0.842504C82.7684 0.500378 83.6354 0.601861 84.3602 1.14694C84.5921 1.31511 84.8386 1.34989 85.0995 1.25132Z" fill="#DF0024"/>
<path d="M1.03267 9.13086C4.81635 11.488 6.33852 16.3851 12.375 13.5669C10.2875 15.8168 7.74182 16.4866 4.73807 15.5762C4.42494 15.4776 4.26547 15.5936 4.25968 15.9241L4.11181 22.9348C4.10601 23.2827 3.92914 23.4625 3.58122 23.474C1.67343 23.5262 0.577474 22.668 0.293336 20.8994C-0.269142 17.3854 -0.0226971 13.4625 1.03267 9.13086Z" fill="#006845"/>
<path d="M21.9326 29.2321C23.5395 27.9231 25.1511 27.9279 26.7675 29.2463C26.8974 29.3509 27.0258 29.3493 27.1525 29.2416C29.1682 27.5586 32.5293 27.9865 32.6482 31.1479C32.7116 32.8309 32.7211 34.5201 32.6767 36.2157C32.6735 36.4186 32.5705 36.52 32.3677 36.52H31.6356C31.4391 36.52 31.3361 36.4201 31.3266 36.2205C31.2664 34.9591 31.2537 33.3554 31.2885 31.4094C31.3361 29.1085 28.7689 28.885 27.4853 30.3778C27.3934 30.4824 27.349 30.6028 27.3522 30.7391L27.4283 36.2538C27.4314 36.4312 27.3443 36.52 27.1668 36.52H26.2968C26.113 36.52 26.0227 36.4265 26.0258 36.2395C26.0512 34.7467 26.0623 33.2619 26.0591 31.785C26.0544 29.2986 23.3493 28.6378 22.118 30.6297C22.0388 30.7565 21.9992 30.8944 21.9992 31.0433V36.2252C21.9992 36.4217 21.8993 36.52 21.6997 36.52H20.9153C20.7283 36.52 20.6348 36.4265 20.6348 36.2395L20.668 28.7186C20.6712 28.5538 20.7536 28.4651 20.9153 28.4524L21.0626 28.4429C21.2623 28.427 21.397 28.5126 21.4667 28.6996L21.6331 29.1512C21.6933 29.3192 21.7932 29.3462 21.9326 29.2321Z" fill="#262626"/>
<path d="M38.5615 36.7442C38.0314 36.7405 37.5073 36.6268 37.019 36.4096C36.5308 36.1923 36.088 35.8758 35.7159 35.478C35.3438 35.0803 35.0498 34.6091 34.8506 34.0914C34.6513 33.5737 34.5508 33.0196 34.5548 32.4608C34.5587 31.902 34.667 31.3495 34.8735 30.8347C35.08 30.3199 35.3806 29.853 35.7581 29.4605C36.1357 29.0681 36.5829 28.7578 37.0741 28.5474C37.5653 28.3371 38.0909 28.2307 38.6209 28.2345C39.151 28.2382 39.6751 28.3519 40.1632 28.5692C40.6514 28.7865 41.0942 29.103 41.4662 29.5008C41.8382 29.8985 42.1322 30.3697 42.3314 30.8874C42.5306 31.405 42.6311 31.9591 42.6271 32.5178C42.6192 33.6462 42.1864 34.7254 41.424 35.5179C40.6615 36.3105 39.6319 36.7516 38.5615 36.7442ZM38.6252 35.5319C38.9723 35.5307 39.3158 35.4507 39.636 35.2964C39.9562 35.1422 40.2469 34.9167 40.4913 34.6328C40.7358 34.349 40.9294 34.0123 41.0609 33.6421C41.1924 33.2718 41.2594 32.8753 41.258 32.4751C41.2551 31.6669 40.9739 30.8929 40.4762 30.3232C39.9786 29.7535 39.3052 29.4348 38.6043 29.4372C38.2571 29.4384 37.9136 29.5184 37.5935 29.6727C37.2733 29.827 36.9826 30.0525 36.7381 30.3363C36.4937 30.6202 36.3001 30.9568 36.1686 31.3271C36.037 31.6973 35.9701 32.0939 35.9715 32.4941C35.9744 33.3022 36.2556 34.0762 36.7532 34.6459C37.2509 35.2156 37.9242 35.5343 38.6252 35.5319Z" fill="#262626"/>
<path d="M46.0211 29.261C48.1129 27.6066 51.3599 27.9679 51.6974 31.1008C51.8813 32.8027 51.9098 34.511 51.783 36.2256C51.7672 36.4221 51.661 36.5204 51.4645 36.5204H50.7371C50.5153 36.5204 50.4043 36.4095 50.4043 36.1876C50.4043 34.6901 50.7561 31.4098 49.9432 30.2593C49.1826 29.1897 47.1811 29.3703 46.3872 30.5255C45.8405 31.329 46.1305 35.1417 46.121 36.2827C46.121 36.4411 46.0401 36.5204 45.8785 36.5204H45.0561C44.8976 36.5204 44.8184 36.4411 44.8184 36.2827V28.7713C44.8184 28.597 44.9023 28.4877 45.0703 28.4433C45.5885 28.2959 45.7597 28.7428 45.7834 29.1516C45.7929 29.3418 45.8722 29.3782 46.0211 29.261ZM54.9349 32.9644C55.1536 35.5791 57.7731 36.1163 59.6842 34.7234C59.8807 34.5807 60.0471 34.6108 60.1834 34.8137L60.4829 35.2558C60.5875 35.4111 60.5637 35.5442 60.4116 35.6551C57.0885 38.0892 52.9858 36.0212 53.5705 31.7283C54.2361 26.8412 61.5478 27.1264 60.578 32.4604C60.5656 32.5322 60.5283 32.5973 60.4727 32.6443C60.417 32.6913 60.3465 32.7171 60.2737 32.7172H55.1631C54.9983 32.7172 54.9223 32.7996 54.9349 32.9644ZM59.3657 31.3337C59.4227 28.7618 55.7003 28.9092 54.992 31.5096C54.9413 31.6903 55.0094 31.7774 55.1964 31.7711L59.0472 31.6523C59.2563 31.6459 59.3625 31.5397 59.3657 31.3337ZM68.5457 28.4385H69.758C69.7844 28.4389 69.8103 28.4456 69.8335 28.4583C69.8567 28.471 69.8764 28.4891 69.8909 28.5112C69.9055 28.5332 69.9144 28.5585 69.9169 28.5848C69.9194 28.6111 69.9155 28.6376 69.9054 28.662L65.1894 39.9005C65.1748 39.9347 65.1489 39.9628 65.116 39.9802C65.083 39.9975 65.0452 40.0029 65.0087 39.9956L63.9914 39.8054C63.9674 39.801 63.9448 39.7912 63.9252 39.7769C63.9056 39.7625 63.8894 39.7438 63.878 39.7224C63.8666 39.7009 63.8602 39.6771 63.8592 39.6528C63.8583 39.6285 63.8628 39.6043 63.8725 39.582L65.1989 36.4538C65.2153 36.4142 65.2153 36.3698 65.1989 36.3302L61.9804 28.662C61.9703 28.6376 61.9663 28.6111 61.9688 28.5848C61.9714 28.5585 61.9803 28.5332 61.9948 28.5112C62.0094 28.4891 62.0291 28.471 62.0523 28.4583C62.0754 28.4456 62.1014 28.4389 62.1278 28.4385H63.2497C63.2822 28.438 63.314 28.4472 63.3412 28.465C63.3683 28.4828 63.3894 28.5084 63.4019 28.5384L65.7931 34.4096C65.8052 34.4394 65.826 34.4649 65.8526 34.4828C65.8793 34.5008 65.9107 34.5104 65.9429 34.5104C65.975 34.5104 66.0065 34.5008 66.0331 34.4828C66.0598 34.4649 66.0805 34.4394 66.0926 34.4096L68.3983 28.5431C68.4097 28.513 68.4298 28.4869 68.456 28.4683C68.4823 28.4497 68.5135 28.4393 68.5457 28.4385Z" fill="#262626"/>
<path d="M35.9713 32.4935C35.9771 34.1765 37.1653 35.5367 38.6251 35.5316C40.0849 35.5265 41.2636 34.158 41.2577 32.475C41.2518 30.7921 40.0637 29.4319 38.6038 29.437C37.144 29.4421 35.9654 30.8105 35.9713 32.4935Z" fill="white"/>
<path d="M54.9918 31.51C55.7002 28.9095 59.4226 28.7621 59.3655 31.3341C59.3624 31.5401 59.2562 31.6462 59.047 31.6526L55.1962 31.7714C55.0092 31.7778 54.9411 31.6906 54.9918 31.51Z" fill="white"/>
</svg>
