<svg width="138" height="40" viewBox="0 0 138 40" fill="none" xmlns="http://www.w3.org/2000/svg">
<path d="M0.427914 16.5416C0.427914 18.8594 1.7779 19.8732 4.59501 20.5253L6.77025 20.9939C9.31737 21.5594 9.82679 22.1503 9.82679 23.4035C9.82679 24.9012 8.51757 25.8284 6.15893 25.8284C3.8003 25.8284 2.42486 24.7688 2.27713 22.6037H0C0 25.9353 2.3841 27.8559 6.11309 27.8559C10.1885 27.8559 12.1905 25.7876 12.1905 23.103C12.1905 20.6934 10.759 19.537 8.33419 19.0276L6.05706 18.5181C3.43862 17.9527 2.72542 17.6114 2.72542 16.2869C2.72542 14.9623 3.67805 13.9639 5.83291 13.9639C8.45135 13.9639 9.23077 15.1457 9.39888 16.7453H11.676C11.676 13.4799 9.12888 11.8956 5.9195 11.8956C2.15996 11.8956 0.366786 14.0454 0.366786 16.5772M13.1788 12.293V21.3505C13.1788 25.9659 15.3693 27.8508 19.1951 27.8508C23.0209 27.8508 25.2063 25.9354 25.2063 21.3505V12.2573H22.705V21.6103C22.705 24.5854 21.4366 25.7265 19.0525 25.7265C16.918 25.7265 15.6342 24.5039 15.6342 21.6103V12.2573L13.1788 12.293ZM26.8721 12.293V27.4432H29.1543V15.6756L36.4136 27.4534H39.0066V12.2573H36.7397V23.9741L29.6077 12.2573L26.8721 12.293ZM53.6525 16.944C53.4029 13.8875 50.9271 11.8752 47.3663 11.8752C42.9597 11.8752 40.3005 15.0846 40.3005 19.7407C40.3005 25.1661 43.2756 27.7846 47.1778 27.7846C48.8179 27.8671 50.4248 27.3019 51.6521 26.2108C52.8795 25.1198 53.629 23.5902 53.7392 21.9517H51.3907C50.9067 24.3612 49.5721 25.6704 47.3561 25.6704C44.8548 25.6704 42.8222 24.0046 42.8222 19.9955C42.8222 15.8284 44.6969 13.9639 47.3561 13.9639C49.674 13.9639 50.8558 15.0795 51.299 16.9389L53.6525 16.944ZM54.7121 19.8528C54.7121 25.0184 57.6872 27.8304 62.0122 27.8304C66.597 27.8304 69.3938 24.565 69.3938 19.6236C69.3938 14.1575 66.1844 11.7988 62.0275 11.7988C57.8706 11.7988 54.7121 14.6261 54.7121 19.8579M57.2134 19.9394C57.2134 16.0372 59.2511 13.9282 62.1497 13.9282C64.8344 13.9282 66.9842 15.8437 66.9842 19.644C66.9842 23.6786 65.028 25.701 62.216 25.701C59.1339 25.701 57.2134 23.7601 57.2134 19.9445M73.0973 14.295H77.6566C79.4498 14.295 80.382 15.0133 80.382 16.6791C80.382 18.3449 79.4549 19.104 77.4478 19.104H73.0973V14.295ZM70.6877 12.2573V27.4025H73.0973V21.1009H77.2643C79.2664 21.1009 79.9643 21.7071 80.0305 23.4188L80.1375 25.5533C80.1281 26.1839 80.221 26.8118 80.4126 27.4127H83.0056C82.6303 26.6023 82.4639 25.7109 82.5216 24.8197L82.4809 23.1539C82.4401 21.4015 81.9969 20.6526 80.6062 20.0515C81.3002 19.7494 81.8849 19.2415 82.2812 18.5965C82.6775 17.9515 82.8663 17.2005 82.8222 16.4448C82.8222 13.9435 81.2939 12.2777 77.8196 12.2777L70.6877 12.2573ZM84.2536 12.2573V27.4025H86.6887V21.2894H90.9322C94.055 21.2894 95.6851 19.537 95.6851 16.73C95.6851 13.7958 93.8665 12.2369 91.0239 12.2369L84.2536 12.2573ZM86.6887 14.295H90.4075C92.3892 14.295 93.2603 15.1305 93.2603 16.7963C93.2603 18.4621 92.3331 19.2975 90.4075 19.2975H86.6887V14.295Z" fill="#004346"/>
<path d="M117.84 1.62206e-05C113.885 0.00505257 110.021 1.18232 106.735 3.383C103.45 5.58369 100.89 8.70902 99.3804 12.364C97.8705 16.0189 97.4781 20.0394 98.2526 23.9174C99.0272 27.7953 100.934 31.3566 103.732 34.1511C106.53 36.9456 110.094 38.8479 113.973 39.6176C117.852 40.3872 121.872 39.9896 125.525 38.4751C129.178 36.9606 132.3 34.3972 134.496 31.1087C136.693 27.8203 137.865 23.9545 137.865 20C137.865 17.3714 137.347 14.7686 136.34 12.3405C135.334 9.91229 133.858 7.70637 131.998 5.84886C130.138 3.99136 127.931 2.51871 125.501 1.51512C123.072 0.511526 120.468 -0.00333144 117.84 1.62206e-05ZM117.84 30.0051C115.863 30.0001 113.933 29.4094 112.292 28.3078C110.651 27.2061 109.373 25.6429 108.62 23.8155C107.867 21.9881 107.672 19.9785 108.06 18.0405C108.448 16.1025 109.402 14.3231 110.801 12.9269C112.2 11.5307 113.982 10.5804 115.921 10.1961C117.859 9.81168 119.869 10.0105 121.694 10.7673C123.52 11.5241 125.081 12.8051 126.179 14.4483C127.278 16.0916 127.864 18.0235 127.865 20C127.865 21.3154 127.606 22.6178 127.102 23.8327C126.597 25.0476 125.859 26.1512 124.927 27.0801C123.996 28.009 122.891 28.7451 121.674 29.2461C120.458 29.7472 119.155 30.0034 117.84 30V30.0051Z" fill="url(#paint0_radial_1658_5968)"/>
<defs>
<radialGradient id="paint0_radial_1658_5968" cx="0" cy="0" r="1" gradientUnits="userSpaceOnUse" gradientTransform="translate(118.55 19.3199) scale(20.0229 20.0229)">
<stop stop-color="#FFCB05"/>
<stop offset="0.5" stop-color="#FFCB05"/>
<stop offset="0.59" stop-color="#FFCB05" stop-opacity="0.78"/>
<stop offset="0.7" stop-color="#FFCB05" stop-opacity="0.5"/>
<stop offset="0.8" stop-color="#FFCB05" stop-opacity="0.29"/>
<stop offset="0.89" stop-color="#FFCB05" stop-opacity="0.13"/>
<stop offset="0.96" stop-color="#FFCB05" stop-opacity="0.04"/>
<stop offset="1" stop-color="#FFCB05" stop-opacity="0"/>
</radialGradient>
</defs>
</svg>
