<svg width="416" height="172" viewBox="0 0 416 172" fill="none" xmlns="http://www.w3.org/2000/svg">
<mask id="path-2-outside-1" maskUnits="userSpaceOnUse" x="289.302" y="0" width="127" height="169" fill="black">
<rect fill="white" x="289.302" width="127" height="169"/>
<path d="M412.772 168H292.227C291.164 168 290.302 167.138 290.302 166.075V109.049C290.302 100.166 295.631 92.2939 303.88 88.9954L332.402 77.5863C332.888 77.3922 333.43 77.4046 333.905 77.6171C334.381 77.8305 334.75 78.2286 334.927 78.7192L343.379 102.086L346.203 93.9675L343.753 87.978C343.51 87.3842 343.578 86.7088 343.936 86.1758C344.294 85.6437 344.893 85.324 345.534 85.324H359.466C360.108 85.324 360.707 85.6437 361.064 86.1758C361.423 86.708 361.491 87.3842 361.248 87.978L358.798 93.9675L361.621 102.086L370.074 78.7192C370.251 78.2286 370.62 77.8312 371.096 77.6171C371.572 77.4046 372.115 77.3938 372.599 77.5863L401.12 88.9946C409.368 92.2931 414.697 100.165 414.697 109.049V166.074C414.698 167.138 413.836 168 412.772 168ZM294.153 164.149H410.847V109.049C410.847 101.749 406.467 95.2813 399.691 92.5712L373.018 81.9015L363.397 108.499C363.122 109.262 362.398 109.769 361.587 109.769C361.583 109.769 361.579 109.769 361.574 109.769C360.759 109.764 360.035 109.247 359.767 108.476L354.922 94.5443C354.768 94.1015 354.78 93.617 354.959 93.1827L356.598 89.1733H348.402L350.042 93.1827C350.22 93.6163 350.233 94.1007 350.079 94.5443L345.233 108.476C344.965 109.247 344.242 109.764 343.426 109.769C342.592 109.793 341.881 109.266 341.604 108.499L331.983 81.9015L305.311 92.5712C298.533 95.2821 294.154 101.75 294.154 109.049L294.153 164.149ZM395.559 133.644H373.352C372.289 133.644 371.427 132.782 371.427 131.718V118.048C371.427 116.984 372.289 116.123 373.352 116.123H395.559C396.622 116.123 397.484 116.984 397.484 118.048V131.718C397.484 132.781 396.622 133.644 395.559 133.644ZM375.278 129.793H393.633V119.973H375.278V129.793ZM352.5 75.6717C349.471 75.6725 346.442 75.1118 343.621 73.992C341.439 73.1271 339.633 72.0374 338.259 70.7535C334.431 67.1815 330.449 59.5062 329.015 56.5896C326.447 56.4456 321.443 55.057 319.284 46.801C318.195 42.6399 318.442 39.2974 320.016 36.8668C320.884 35.529 321.977 34.7466 322.875 34.296C322.799 30.3467 323.281 19.4221 330.225 11.193C338.729 1.11552 351.943 1 352.5 1C353.058 1 366.271 1.11552 374.775 11.193C381.719 19.4228 382.201 30.3467 382.125 34.296C383.023 34.7466 384.116 35.529 384.984 36.8668C386.558 39.2974 386.804 42.6399 385.716 46.801C383.557 55.0563 378.554 56.4456 375.986 56.5896C374.551 59.5062 370.57 67.1815 366.742 70.7535C365.366 72.0374 363.562 73.1271 361.379 73.9928C358.558 75.1118 355.529 75.6717 352.5 75.6717ZM330.212 52.7111C330.949 52.7111 331.637 53.1363 331.957 53.8248C332.006 53.9264 336.757 64.084 340.887 67.9394C341.909 68.8928 343.307 69.7254 345.041 70.4131C349.782 72.2946 355.22 72.2946 359.961 70.4131C361.695 69.7254 363.093 68.8928 364.116 67.9386C368.245 64.084 372.997 53.9264 373.046 53.8248C373.422 53.0161 374.303 52.5717 375.177 52.7497C375.643 52.8267 380.023 53.3573 381.993 45.8267C382.784 42.7985 382.703 40.4241 381.754 38.9608C380.984 37.774 379.835 37.5168 379.824 37.5145C378.833 37.3497 378.136 36.4509 378.222 35.4505C378.229 35.3773 378.551 31.2039 377.481 26.0069C372.427 26.4805 357.747 27.5002 350.382 24.2401C345.4 22.036 341.971 19.4205 339.897 17.5182C339.147 19.6562 337.909 22.3856 336.016 24.4296C332.774 27.9315 328.851 29.7814 326.87 30.5546C326.626 33.4435 326.777 35.4004 326.782 35.4497C326.866 36.4494 326.169 37.3489 325.18 37.5137C325.164 37.5183 323.986 37.7733 323.211 39.0217C322.3 40.4888 322.231 42.8424 323.011 45.826C325.051 53.6292 329.78 52.7589 329.827 52.7489C329.955 52.7235 330.084 52.7111 330.212 52.7111ZM352.5 4.85076C352.385 4.85153 340.495 4.99401 333.169 13.6767C329.959 17.4805 328.33 22.0606 327.515 26.0361C329.208 25.1651 331.35 23.8004 333.189 21.8149C335.977 18.8036 337.066 13.4341 337.076 13.381C337.224 12.6339 337.798 12.044 338.54 11.8761C339.284 11.7067 340.053 11.9909 340.509 12.6008C340.54 12.6416 344.087 17.2448 351.939 20.7198C358.14 23.4654 371.201 22.6852 376.476 22.2277C375.515 19.3112 374.051 16.3076 371.831 13.6767C364.47 4.95165 352.619 4.85076 352.5 4.85076Z"/>
</mask>
<path d="M412.772 168H292.227C291.164 168 290.302 167.138 290.302 166.075V109.049C290.302 100.166 295.631 92.2939 303.88 88.9954L332.402 77.5863C332.888 77.3922 333.43 77.4046 333.905 77.6171C334.381 77.8305 334.75 78.2286 334.927 78.7192L343.379 102.086L346.203 93.9675L343.753 87.978C343.51 87.3842 343.578 86.7088 343.936 86.1758C344.294 85.6437 344.893 85.324 345.534 85.324H359.466C360.108 85.324 360.707 85.6437 361.064 86.1758C361.423 86.708 361.491 87.3842 361.248 87.978L358.798 93.9675L361.621 102.086L370.074 78.7192C370.251 78.2286 370.62 77.8312 371.096 77.6171C371.572 77.4046 372.115 77.3938 372.599 77.5863L401.12 88.9946C409.368 92.2931 414.697 100.165 414.697 109.049V166.074C414.698 167.138 413.836 168 412.772 168ZM294.153 164.149H410.847V109.049C410.847 101.749 406.467 95.2813 399.691 92.5712L373.018 81.9015L363.397 108.499C363.122 109.262 362.398 109.769 361.587 109.769C361.583 109.769 361.579 109.769 361.574 109.769C360.759 109.764 360.035 109.247 359.767 108.476L354.922 94.5443C354.768 94.1015 354.78 93.617 354.959 93.1827L356.598 89.1733H348.402L350.042 93.1827C350.22 93.6163 350.233 94.1007 350.079 94.5443L345.233 108.476C344.965 109.247 344.242 109.764 343.426 109.769C342.592 109.793 341.881 109.266 341.604 108.499L331.983 81.9015L305.311 92.5712C298.533 95.2821 294.154 101.75 294.154 109.049L294.153 164.149ZM395.559 133.644H373.352C372.289 133.644 371.427 132.782 371.427 131.718V118.048C371.427 116.984 372.289 116.123 373.352 116.123H395.559C396.622 116.123 397.484 116.984 397.484 118.048V131.718C397.484 132.781 396.622 133.644 395.559 133.644ZM375.278 129.793H393.633V119.973H375.278V129.793ZM352.5 75.6717C349.471 75.6725 346.442 75.1118 343.621 73.992C341.439 73.1271 339.633 72.0374 338.259 70.7535C334.431 67.1815 330.449 59.5062 329.015 56.5896C326.447 56.4456 321.443 55.057 319.284 46.801C318.195 42.6399 318.442 39.2974 320.016 36.8668C320.884 35.529 321.977 34.7466 322.875 34.296C322.799 30.3467 323.281 19.4221 330.225 11.193C338.729 1.11552 351.943 1 352.5 1C353.058 1 366.271 1.11552 374.775 11.193C381.719 19.4228 382.201 30.3467 382.125 34.296C383.023 34.7466 384.116 35.529 384.984 36.8668C386.558 39.2974 386.804 42.6399 385.716 46.801C383.557 55.0563 378.554 56.4456 375.986 56.5896C374.551 59.5062 370.57 67.1815 366.742 70.7535C365.366 72.0374 363.562 73.1271 361.379 73.9928C358.558 75.1118 355.529 75.6717 352.5 75.6717ZM330.212 52.7111C330.949 52.7111 331.637 53.1363 331.957 53.8248C332.006 53.9264 336.757 64.084 340.887 67.9394C341.909 68.8928 343.307 69.7254 345.041 70.4131C349.782 72.2946 355.22 72.2946 359.961 70.4131C361.695 69.7254 363.093 68.8928 364.116 67.9386C368.245 64.084 372.997 53.9264 373.046 53.8248C373.422 53.0161 374.303 52.5717 375.177 52.7497C375.643 52.8267 380.023 53.3573 381.993 45.8267C382.784 42.7985 382.703 40.4241 381.754 38.9608C380.984 37.774 379.835 37.5168 379.824 37.5145C378.833 37.3497 378.136 36.4509 378.222 35.4505C378.229 35.3773 378.551 31.2039 377.481 26.0069C372.427 26.4805 357.747 27.5002 350.382 24.2401C345.4 22.036 341.971 19.4205 339.897 17.5182C339.147 19.6562 337.909 22.3856 336.016 24.4296C332.774 27.9315 328.851 29.7814 326.87 30.5546C326.626 33.4435 326.777 35.4004 326.782 35.4497C326.866 36.4494 326.169 37.3489 325.18 37.5137C325.164 37.5183 323.986 37.7733 323.211 39.0217C322.3 40.4888 322.231 42.8424 323.011 45.826C325.051 53.6292 329.78 52.7589 329.827 52.7489C329.955 52.7235 330.084 52.7111 330.212 52.7111ZM352.5 4.85076C352.385 4.85153 340.495 4.99401 333.169 13.6767C329.959 17.4805 328.33 22.0606 327.515 26.0361C329.208 25.1651 331.35 23.8004 333.189 21.8149C335.977 18.8036 337.066 13.4341 337.076 13.381C337.224 12.6339 337.798 12.044 338.54 11.8761C339.284 11.7067 340.053 11.9909 340.509 12.6008C340.54 12.6416 344.087 17.2448 351.939 20.7198C358.14 23.4654 371.201 22.6852 376.476 22.2277C375.515 19.3112 374.051 16.3076 371.831 13.6767C364.47 4.95165 352.619 4.85076 352.5 4.85076Z" fill="#FDB948"/>
<path d="M412.772 168H292.227C291.164 168 290.302 167.138 290.302 166.075V109.049C290.302 100.166 295.631 92.2939 303.88 88.9954L332.402 77.5863C332.888 77.3922 333.43 77.4046 333.905 77.6171C334.381 77.8305 334.75 78.2286 334.927 78.7192L343.379 102.086L346.203 93.9675L343.753 87.978C343.51 87.3842 343.578 86.7088 343.936 86.1758C344.294 85.6437 344.893 85.324 345.534 85.324H359.466C360.108 85.324 360.707 85.6437 361.064 86.1758C361.423 86.708 361.491 87.3842 361.248 87.978L358.798 93.9675L361.621 102.086L370.074 78.7192C370.251 78.2286 370.62 77.8312 371.096 77.6171C371.572 77.4046 372.115 77.3938 372.599 77.5863L401.12 88.9946C409.368 92.2931 414.697 100.165 414.697 109.049V166.074C414.698 167.138 413.836 168 412.772 168ZM294.153 164.149H410.847V109.049C410.847 101.749 406.467 95.2813 399.691 92.5712L373.018 81.9015L363.397 108.499C363.122 109.262 362.398 109.769 361.587 109.769C361.583 109.769 361.579 109.769 361.574 109.769C360.759 109.764 360.035 109.247 359.767 108.476L354.922 94.5443C354.768 94.1015 354.78 93.617 354.959 93.1827L356.598 89.1733H348.402L350.042 93.1827C350.22 93.6163 350.233 94.1007 350.079 94.5443L345.233 108.476C344.965 109.247 344.242 109.764 343.426 109.769C342.592 109.793 341.881 109.266 341.604 108.499L331.983 81.9015L305.311 92.5712C298.533 95.2821 294.154 101.75 294.154 109.049L294.153 164.149ZM395.559 133.644H373.352C372.289 133.644 371.427 132.782 371.427 131.718V118.048C371.427 116.984 372.289 116.123 373.352 116.123H395.559C396.622 116.123 397.484 116.984 397.484 118.048V131.718C397.484 132.781 396.622 133.644 395.559 133.644ZM375.278 129.793H393.633V119.973H375.278V129.793ZM352.5 75.6717C349.471 75.6725 346.442 75.1118 343.621 73.992C341.439 73.1271 339.633 72.0374 338.259 70.7535C334.431 67.1815 330.449 59.5062 329.015 56.5896C326.447 56.4456 321.443 55.057 319.284 46.801C318.195 42.6399 318.442 39.2974 320.016 36.8668C320.884 35.529 321.977 34.7466 322.875 34.296C322.799 30.3467 323.281 19.4221 330.225 11.193C338.729 1.11552 351.943 1 352.5 1C353.058 1 366.271 1.11552 374.775 11.193C381.719 19.4228 382.201 30.3467 382.125 34.296C383.023 34.7466 384.116 35.529 384.984 36.8668C386.558 39.2974 386.804 42.6399 385.716 46.801C383.557 55.0563 378.554 56.4456 375.986 56.5896C374.551 59.5062 370.57 67.1815 366.742 70.7535C365.366 72.0374 363.562 73.1271 361.379 73.9928C358.558 75.1118 355.529 75.6717 352.5 75.6717ZM330.212 52.7111C330.949 52.7111 331.637 53.1363 331.957 53.8248C332.006 53.9264 336.757 64.084 340.887 67.9394C341.909 68.8928 343.307 69.7254 345.041 70.4131C349.782 72.2946 355.22 72.2946 359.961 70.4131C361.695 69.7254 363.093 68.8928 364.116 67.9386C368.245 64.084 372.997 53.9264 373.046 53.8248C373.422 53.0161 374.303 52.5717 375.177 52.7497C375.643 52.8267 380.023 53.3573 381.993 45.8267C382.784 42.7985 382.703 40.4241 381.754 38.9608C380.984 37.774 379.835 37.5168 379.824 37.5145C378.833 37.3497 378.136 36.4509 378.222 35.4505C378.229 35.3773 378.551 31.2039 377.481 26.0069C372.427 26.4805 357.747 27.5002 350.382 24.2401C345.4 22.036 341.971 19.4205 339.897 17.5182C339.147 19.6562 337.909 22.3856 336.016 24.4296C332.774 27.9315 328.851 29.7814 326.87 30.5546C326.626 33.4435 326.777 35.4004 326.782 35.4497C326.866 36.4494 326.169 37.3489 325.18 37.5137C325.164 37.5183 323.986 37.7733 323.211 39.0217C322.3 40.4888 322.231 42.8424 323.011 45.826C325.051 53.6292 329.78 52.7589 329.827 52.7489C329.955 52.7235 330.084 52.7111 330.212 52.7111ZM352.5 4.85076C352.385 4.85153 340.495 4.99401 333.169 13.6767C329.959 17.4805 328.33 22.0606 327.515 26.0361C329.208 25.1651 331.35 23.8004 333.189 21.8149C335.977 18.8036 337.066 13.4341 337.076 13.381C337.224 12.6339 337.798 12.044 338.54 11.8761C339.284 11.7067 340.053 11.9909 340.509 12.6008C340.54 12.6416 344.087 17.2448 351.939 20.7198C358.14 23.4654 371.201 22.6852 376.476 22.2277C375.515 19.3112 374.051 16.3076 371.831 13.6767C364.47 4.95165 352.619 4.85076 352.5 4.85076Z" stroke="#FDB948" stroke-width="2" mask="url(#path-2-outside-1)"/>
<g opacity="0.3">
<path d="M168.174 61.653C169.699 61.653 170.931 60.4179 170.931 58.8961V14.7848C170.931 13.2629 169.699 12.0278 168.174 12.0278H165.417V3.75696C165.417 2.23512 164.185 1 162.66 1H8.27087C6.74627 1 5.51391 2.23512 5.51391 3.75696V12.0278H2.75696C1.23236 12.0278 0 13.2629 0 14.7848V58.8961C0 60.4179 1.23236 61.653 2.75696 61.653H5.51391V155.39H2.75696C1.23236 155.39 0 156.625 0 158.146V169.174C0 170.696 1.23236 171.931 2.75696 171.931H168.174C169.699 171.931 170.931 170.696 170.931 169.174V158.146C170.931 156.625 169.699 155.39 168.174 155.39H165.417V61.653H168.174ZM11.0278 6.51391H159.903V12.0278H11.0278V6.51391ZM5.51391 17.5417H165.417V56.1391H5.51391V17.5417ZM159.903 89.2226H126.82V72.6808H159.903V89.2226ZM121.306 89.2226H88.2226V72.6808H121.306V89.2226ZM82.7087 89.2226H49.6252V72.6808H82.7087V89.2226ZM44.1113 89.2226H11.0278V72.6808H44.1113V89.2226ZM165.417 166.417H5.51391V160.903H165.417V166.417ZM93.7365 155.39H88.2226V114.035C88.2226 112.513 86.9902 111.278 85.4656 111.278H30.3265C28.8019 111.278 27.5696 112.513 27.5696 114.035V155.39H22.0556V105.764H93.7365V155.39ZM33.0835 155.39V116.792H55.1391V155.39H33.0835ZM60.653 116.792H82.7087V155.39H60.653V116.792ZM148.876 155.39H115.792V105.764H148.876V155.39ZM154.39 155.39V103.007C154.39 101.486 153.157 100.25 151.633 100.25H113.035C111.511 100.25 110.278 101.486 110.278 103.007V155.39H99.2504V103.007C99.2504 101.486 98.018 100.25 96.4934 100.25H19.2987C17.7741 100.25 16.5417 101.486 16.5417 103.007V155.39H11.0278V94.7365H159.903V155.39H154.39ZM159.903 67.1669H11.0278V61.653H159.903V67.1669Z" fill="black"/>
<path d="M49.6251 23.0557H38.5973C37.0727 23.0557 35.8403 24.2908 35.8403 25.8126V47.8683C35.8403 49.3901 37.0727 50.6252 38.5973 50.6252H49.6251C54.1851 50.6252 57.896 46.9144 57.896 42.3544C57.896 40.237 57.0965 38.3044 55.7841 36.8404C57.0965 35.3765 57.896 33.4439 57.896 31.3265C57.896 26.7665 54.1851 23.0557 49.6251 23.0557ZM49.6251 45.1113H41.3542V39.5974H49.6251C51.1469 39.5974 52.3821 40.8353 52.3821 42.3544C52.3821 43.8734 51.1469 45.1113 49.6251 45.1113ZM49.6251 34.0835H41.3542V28.5696H49.6251C51.1469 28.5696 52.3821 29.8074 52.3821 31.3265C52.3821 32.8456 51.1469 34.0835 49.6251 34.0835Z" fill="black"/>
<path d="M74.4379 23.0557C68.3561 23.0557 63.4101 28.0016 63.4101 34.0835V50.6252H68.924V42.3544H79.9518V50.6252H85.4657V34.0835C85.4657 28.0016 80.5198 23.0557 74.4379 23.0557ZM68.924 36.8404V34.0835C68.924 31.0426 71.397 28.5696 74.4379 28.5696C77.4788 28.5696 79.9518 31.0426 79.9518 34.0835V36.8404H68.924Z" fill="black"/>
<path d="M107.521 39.5971L95.9421 24.1581C95.2308 23.2097 93.9957 22.821 92.8653 23.1959C91.7377 23.5736 90.9796 24.624 90.9796 25.8123V50.6249H96.4935V34.0831L108.073 49.5221C108.602 50.2279 109.426 50.6249 110.278 50.6249C110.568 50.6249 110.863 50.578 111.149 50.4843C112.277 50.1066 113.035 49.0562 113.035 47.8679V23.0553H107.521V39.5971Z" fill="black"/>
<path d="M135.091 23.0557H129.577C129.577 26.965 127.468 30.4774 124.063 32.3466V23.0557H118.549V50.6252H124.063V41.3343C127.468 43.2035 129.577 46.7159 129.577 50.6252H135.091C135.091 44.9045 132.111 39.7518 127.272 36.8404C132.111 33.9291 135.091 28.7763 135.091 23.0557Z" fill="black"/>
<path d="M124.063 133.333H140.605C142.129 133.333 143.362 132.098 143.362 130.577V114.035C143.362 112.513 142.129 111.278 140.605 111.278H124.063C122.538 111.278 121.306 112.513 121.306 114.035V130.577C121.306 132.098 122.538 133.333 124.063 133.333ZM126.82 116.792H137.848V127.82H126.82V116.792Z" fill="black"/>
</g>
<circle cx="168.558" cy="47.3946" r="37.9532" fill="white"/>
<path d="M168.897 9.44141C161.323 9.44141 153.92 11.6872 147.623 15.8948C141.326 20.1024 136.418 26.0828 133.519 33.0798C130.621 40.0767 129.863 47.776 131.34 55.2039C132.818 62.6319 136.465 69.4549 141.82 74.8101C147.175 80.1654 153.998 83.8123 161.426 85.2898C168.854 86.7674 176.553 86.009 183.55 83.1108C190.547 80.2126 196.528 75.3046 200.735 69.0075C204.943 62.7104 207.189 55.307 207.189 47.7335C207.177 37.5814 203.139 27.8484 195.96 20.6698C188.782 13.4912 179.049 9.4531 168.897 9.44141ZM168.897 80.1345C162.488 80.1345 156.224 78.2342 150.896 74.674C145.567 71.1137 141.414 66.0534 138.962 60.1328C136.51 54.2123 135.868 47.6976 137.118 41.4124C138.368 35.1272 141.454 29.3539 145.986 24.8225C150.517 20.2912 156.29 17.2053 162.575 15.9551C168.861 14.7049 175.375 15.3465 181.296 17.7989C187.216 20.2512 192.277 24.4042 195.837 29.7325C199.397 35.0608 201.298 41.3252 201.298 47.7335C201.287 56.3237 197.871 64.5591 191.796 70.6333C185.722 76.7075 177.487 80.1244 168.897 80.1345Z" fill="#FDB948"/>
<path d="M168.897 33.0063C170.459 33.0063 171.957 33.627 173.062 34.7318C174.167 35.8366 174.788 37.335 174.788 38.8974H180.679C180.669 36.2929 179.797 33.765 178.198 31.709C176.599 29.6529 174.364 28.1846 171.842 27.5335V21.2241H165.951V27.5335C163.177 28.2473 160.76 29.949 159.152 32.3189C157.544 34.6889 156.856 37.5643 157.217 40.4054C157.579 43.2465 158.965 45.858 161.115 47.7496C163.266 49.6413 166.033 50.6831 168.897 50.6796C170.062 50.6796 171.201 51.0251 172.17 51.6724C173.138 52.3197 173.893 53.2398 174.339 54.3163C174.785 55.3927 174.902 56.5772 174.674 57.72C174.447 58.8627 173.886 59.9124 173.062 60.7363C172.238 61.5602 171.189 62.1213 170.046 62.3486C168.903 62.5759 167.719 62.4592 166.642 62.0133C165.566 61.5675 164.646 60.8124 163.998 59.8436C163.351 58.8748 163.005 57.7358 163.005 56.5707H157.114C157.124 59.1752 157.997 61.703 159.595 63.7591C161.194 65.8151 163.429 67.2835 165.951 67.9346V74.2439H171.842V67.9346C174.616 67.2207 177.033 65.5191 178.642 63.1491C180.25 60.7792 180.937 57.9038 180.576 55.0627C180.214 52.2216 178.828 49.6101 176.678 47.7184C174.527 45.8268 171.761 44.7849 168.897 44.7885C167.334 44.7885 165.836 44.1678 164.731 43.063C163.626 41.9582 163.005 40.4598 163.005 38.8974C163.005 37.335 163.626 35.8366 164.731 34.7318C165.836 33.627 167.334 33.0063 168.897 33.0063Z" fill="#FDB948"/>
<path d="M224 17C245.097 35.728 257.785 42.0655 269.262 40.459L269.262 24.8745L296 47L269.262 69.1255L269.262 53.541C256.686 51.5902 238.651 58.4097 224 77" stroke="#FDB948" stroke-width="6" stroke-linecap="round" stroke-linejoin="round"/>
</svg>
