<svg width="9" height="15" viewBox="0 0 9 15" fill="none" xmlns="http://www.w3.org/2000/svg">
<path d="M4.06019 14.666V12.966C2.59819 12.83 1.26086 12.2463 0.0481914 11.215L0.813191 10.195C1.87852 11.147 2.97786 11.6853 4.11119 11.81V7.56C2.84186 7.254 1.91819 6.846 1.34019 6.336C0.773525 5.826 0.490191 5.12333 0.490191 4.228C0.490191 3.35533 0.818858 2.63 1.47619 2.052C2.14486 1.474 3.00619 1.15667 4.06019 1.1V0.114H5.14819V1.134C6.28153 1.236 7.36386 1.68933 8.39519 2.494L7.66419 3.514C6.89353 2.85667 6.03786 2.44867 5.09719 2.29V6.472C6.38919 6.76667 7.32419 7.18033 7.90219 7.713C8.48019 8.23433 8.76919 8.93133 8.76919 9.804C8.76919 10.7107 8.43486 11.453 7.76619 12.031C7.09753 12.609 6.22486 12.932 5.14819 13V14.666H4.06019ZM4.11119 6.234V2.239C3.40852 2.26167 2.84752 2.45433 2.42819 2.817C2.00886 3.17967 1.79919 3.633 1.79919 4.177C1.79919 4.687 1.96352 5.10067 2.29219 5.418C2.62086 5.73533 3.22719 6.00733 4.11119 6.234ZM5.09719 11.861C5.81119 11.827 6.38352 11.6287 6.81419 11.266C7.24486 10.892 7.46019 10.4217 7.46019 9.855C7.46019 9.33367 7.29019 8.91433 6.95019 8.597C6.62153 8.27967 6.00386 8.01333 5.09719 7.798V11.861Z" fill="black"/>
</svg>
