<svg width="27" height="48" viewBox="0 0 27 48" fill="none" xmlns="http://www.w3.org/2000/svg">
<path d="M14.3828 0C15.1244 0.150205 15.8849 0.272247 16.6171 0.469392C22.6441 2.10287 26.6996 7.78251 26.2584 14.016C26.0425 17.0577 24.8878 19.7144 22.8412 21.9863C22.7004 22.1459 22.5502 22.3806 22.5502 22.5777C22.5314 25.948 22.5408 29.3182 22.5408 32.6978C22.5408 32.7729 22.5502 32.848 22.569 32.9795C22.9633 32.9795 23.3482 32.9795 23.7331 32.9795C24.8409 32.9888 25.6482 33.4864 26.0894 34.5097C26.5119 35.4766 26.2866 36.5187 25.4698 37.2979C21.9682 40.6024 18.4665 43.9163 14.9461 47.2208C13.8383 48.2628 12.4865 48.2628 11.3787 47.2208C7.84888 43.9069 4.33783 40.5836 0.826786 37.2415C0.038208 36.4905 -0.177712 35.5611 0.225965 34.5378C0.629641 33.5239 1.40883 33.0076 2.50721 32.9701C2.91088 32.9607 3.31456 32.9701 3.79334 32.9701C3.79334 32.7729 3.79334 32.6133 3.79334 32.4537C3.79334 29.2055 3.80273 25.9574 3.78395 22.7092C3.78395 22.4651 3.65252 22.1647 3.49293 21.9769C0.150862 18.1185 -0.872411 13.7156 0.770459 8.89966C2.4321 4.05554 5.94315 1.17348 10.9938 0.178369C11.313 0.112654 11.6322 0.056327 11.9514 0C12.7587 0 13.5661 0 14.3828 0ZM20.6633 23.939C15.6408 27.0276 10.684 27.0276 5.68968 23.9484C5.68029 24.0892 5.67091 24.2112 5.67091 24.3333C5.67091 27.4594 5.67091 30.5762 5.67091 33.7023C5.67091 34.5284 5.34233 34.857 4.49743 34.857C3.93416 34.857 3.37089 34.857 2.80762 34.857C2.46966 34.857 2.15047 34.8476 1.98149 35.2325C1.81251 35.6268 2.06598 35.8427 2.31006 36.0774C5.73662 39.3162 9.16318 42.555 12.5897 45.7845C13.0591 46.2257 13.275 46.2257 13.7444 45.7845C14.4955 45.0804 15.2465 44.3669 15.9975 43.6628C18.6824 41.1187 21.3767 38.584 24.0523 36.0305C24.2306 35.8615 24.3715 35.5142 24.3433 35.2795C24.2964 34.9133 23.949 34.857 23.611 34.8664C22.9727 34.8758 22.3343 34.8758 21.6865 34.8664C21.0388 34.857 20.6727 34.4909 20.6633 33.8525C20.6539 33.5239 20.6633 33.1954 20.6633 32.8668C20.6633 29.9002 20.6633 26.9431 20.6633 23.939ZM1.92516 13.1242C1.94394 19.3295 6.9852 24.3708 13.1624 24.3614C19.3771 24.352 24.4278 19.292 24.409 13.0866C24.3996 6.89067 19.3114 1.8494 13.0967 1.87757C6.94765 1.89634 1.897 6.98455 1.92516 13.1242Z" fill="black"/>
<path d="M22.5306 13.1241C22.54 18.2498 18.3342 22.4837 13.2367 22.4837C8.02641 22.4837 3.80188 18.3249 3.7925 13.1804C3.78311 7.95135 7.95131 3.75499 13.1616 3.74561C18.3342 3.74561 22.5212 7.93258 22.5306 13.1241ZM20.6624 13.1428C20.6812 9.04973 17.3204 5.66072 13.2085 5.62317C9.12478 5.58562 5.69823 8.96524 5.67006 13.0489C5.6419 17.1796 9.00274 20.5968 13.124 20.6155C17.2359 20.6343 20.6437 17.2641 20.6624 13.1428Z" fill="black"/>
<path d="M10.9085 16.3533C10.8991 15.4803 11.6502 15.0297 12.2885 15.3864C12.3824 15.4427 12.4669 15.5084 12.5608 15.5741C12.8612 15.7807 13.1522 15.7713 13.3963 15.4897C13.6404 15.208 13.6028 14.9076 13.3588 14.6541C12.8518 14.1284 12.3449 13.5933 11.8004 13.0958C10.4016 11.819 10.7489 9.82879 12.0351 9.02144C12.1477 8.95572 12.2134 8.74919 12.2228 8.59899C12.2604 7.91367 12.5608 7.52877 13.1147 7.50061C13.6779 7.47245 14.0065 7.8198 14.1098 8.49572C14.1286 8.61776 14.2506 8.7398 14.3539 8.81491C14.6167 9.01205 14.9171 9.15287 15.1518 9.36879C15.518 9.70675 15.5086 10.2794 15.1988 10.6361C14.889 10.9929 14.3914 11.0586 13.969 10.7957C13.8469 10.7206 13.7249 10.5704 13.6216 10.5798C13.3681 10.608 13.0208 10.6361 12.9081 10.8051C12.7955 10.9741 12.833 11.3778 12.9645 11.5374C13.4245 12.0819 13.9596 12.57 14.4665 13.077C15.8371 14.457 15.762 15.9497 14.26 17.1982C14.1661 17.2827 14.1004 17.4517 14.091 17.5925C14.0441 18.3248 13.753 18.7003 13.1804 18.7191C12.6171 18.7379 12.3261 18.4093 12.204 17.7052C12.1853 17.5831 12.0257 17.4517 11.9036 17.3766C11.4342 17.1138 10.9367 16.8697 10.9085 16.3533Z" fill="black"/>
</svg>
