<svg width="50" height="50" viewBox="0 0 50 50" fill="none" xmlns="http://www.w3.org/2000/svg">
<g clip-path="url(#clip0)">
<path d="M50.0001 17.4747C49.7752 18.2962 49.6383 19.1665 49.296 19.9391C48.0736 22.7163 45.9222 24.3689 42.9201 24.8774C42.5974 24.9361 42.48 25.0339 42.4898 25.3664C42.5094 26.0118 42.4703 26.667 42.4996 27.3222C42.5485 28.2708 42.216 29.0237 41.5217 29.6594C40.8665 30.2657 40.2406 30.9013 39.5659 31.5761C39.8201 31.6347 40.0157 31.6641 40.182 31.7325C40.5536 31.889 40.7394 32.1921 40.6905 32.5833C40.6416 32.9647 40.4167 33.2776 40.0059 33.2972C39.1258 33.3265 38.2457 33.3265 37.3754 33.2972C36.9451 33.2776 36.7006 32.9549 36.6811 32.5442C36.6518 31.7325 36.6518 30.9209 36.6713 30.1092C36.6909 29.6496 37.0234 29.3367 37.4438 29.3073C37.8741 29.2682 38.2262 29.5518 38.3435 30.031C38.3631 30.1288 38.3729 30.2168 38.4022 30.4124C38.9107 29.9039 39.3312 29.3953 39.8397 28.9944C40.6416 28.3588 40.9838 27.596 40.8469 26.579C40.7785 26.0803 41.0132 25.4446 40.7687 25.1121C40.5438 24.7992 39.8788 24.8188 39.3996 24.6916C36.1628 23.8213 33.7278 20.8876 33.3953 17.4552C32.926 12.5266 36.8473 8.26293 41.7955 8.33138C45.8147 8.38027 49.2275 11.3433 49.9023 15.3723C49.9219 15.4994 49.9707 15.6167 50.0099 15.7341C50.0001 16.3013 50.0001 16.888 50.0001 17.4747ZM35.0187 16.6729C35.0382 20.3498 38.0404 23.3421 41.7173 23.3226C45.3453 23.303 48.3572 20.2715 48.3377 16.6435C48.3279 12.9764 45.2964 9.97425 41.6293 10.0134C37.9524 10.0329 34.9991 13.0155 35.0187 16.6729Z" fill="black"/>
<path d="M25.9829 0C26.6185 0.176022 27.2835 0.29337 27.8996 0.528066C31.5374 1.9069 33.7083 5.43712 33.2976 9.26071C32.8966 13.0061 29.9727 15.9984 26.1491 16.5852C26.0709 16.595 25.9927 16.6047 25.8949 16.6243C25.8949 17.8662 25.8949 19.0886 25.8949 20.3892C26.0318 20.2719 26.11 20.2034 26.2078 20.1447C26.5794 19.91 27.0488 19.9687 27.3128 20.3012C27.5964 20.6532 27.616 21.0444 27.3128 21.3671C26.7457 21.9734 26.1589 22.5601 25.5526 23.1273C25.2006 23.4598 24.7605 23.4109 24.3791 23.0295C23.8511 22.521 23.3328 22.0027 22.8243 21.4747C22.4527 21.0933 22.4233 20.6435 22.7265 20.2914C23.0296 19.9296 23.4893 19.91 23.9391 20.2327C23.988 20.2719 24.0369 20.3012 24.1347 20.3696C24.1347 19.0886 24.1347 17.8662 24.1347 16.6243C22.57 16.4287 21.1423 15.9104 19.9297 14.9227C17.2894 12.7714 16.1843 9.98435 16.8787 6.64972C17.6023 3.20751 19.8124 1.05613 23.235 0.19558C23.5284 0.117348 23.8315 0.068453 24.1347 0C24.7507 0 25.3668 0 25.9829 0ZM25.0148 14.9814C28.6819 14.9814 31.6547 12.0086 31.6547 8.34148C31.6547 4.6548 28.6623 1.65265 24.9952 1.66243C21.3477 1.66243 18.3553 4.6548 18.3553 8.31215C18.3553 11.9988 21.3281 14.9814 25.0148 14.9814Z" fill="black"/>
<path d="M19.6265 31.5959C19.3038 31.3026 19.0789 30.9994 19.2354 30.5594C19.4896 29.8357 20.1448 30.0215 20.7218 29.9531C20.5066 29.1316 20.3013 28.3298 20.0861 27.5377C19.8515 26.638 20.1546 26.0512 21.0152 25.7285C23.6653 24.7506 26.3252 24.7506 28.9753 25.7285C29.8456 26.0512 30.1487 26.638 29.914 27.5377C29.7087 28.3395 29.4935 29.1316 29.2784 29.9628C29.8652 30.0313 30.5399 29.8357 30.7844 30.5985C30.9213 31.0288 30.7061 31.3124 30.4519 31.5373C31.2244 32.4565 32.0556 33.3268 32.75 34.2949C33.9723 35.9769 34.8035 37.8349 34.96 39.9374C35.1947 43.2427 33.8843 45.8831 31.3124 47.8682C27.1368 51.0953 21.1618 50.6063 17.5045 46.8121C14.8935 44.1033 14.2872 40.2601 15.9105 36.6321C16.6733 34.9208 17.7392 33.4148 19.0887 32.1142C19.2647 31.9382 19.4407 31.772 19.6265 31.5959ZM33.3074 40.622C33.3074 40.397 33.3074 40.1623 33.3074 39.9374C33.3074 39.8396 33.2878 39.7418 33.2682 39.6441C32.6326 36.2899 30.755 33.7864 27.9974 31.8795C27.7724 31.7231 27.4595 31.6546 27.1857 31.6546C25.758 31.6351 24.3205 31.6253 22.8927 31.6546C22.57 31.6644 22.2082 31.7524 21.9442 31.9284C19.7537 33.4051 18.1597 35.3902 17.2209 37.8545C16.2234 40.4851 16.5657 42.9787 18.3455 45.1888C20.7022 48.1225 25.005 49.1395 28.4668 47.5846C31.4689 46.2547 33.1607 43.9566 33.3074 40.622ZM21.7486 27.2541C21.9735 28.1146 22.1789 28.9263 22.4136 29.7379C22.4429 29.8455 22.6385 29.9628 22.7558 29.9628C24.252 29.9824 25.7482 29.9824 27.2444 29.9628C27.3715 29.9628 27.5671 29.8162 27.6062 29.689C27.8409 28.8969 28.0365 28.0951 28.2516 27.2638C26.0905 26.4717 23.9586 26.4815 21.7486 27.2541Z" fill="black"/>
<path d="M11.6078 30.4222C11.6566 30.1778 11.6664 30.0506 11.7055 29.9235C11.8229 29.5128 12.1065 29.2879 12.527 29.2977C12.9475 29.3074 13.2897 29.5421 13.3093 29.9528C13.3582 30.8427 13.368 31.7424 13.3191 32.6323C13.2897 33.0919 12.9181 33.3168 12.4585 33.3168C11.7153 33.3168 10.9623 33.3266 10.2191 33.3168C9.70085 33.307 9.35859 32.9843 9.31947 32.5345C9.29013 32.0944 9.62262 31.7228 10.1116 31.6446C10.1898 31.6348 10.268 31.6348 10.4832 31.6251C10.004 31.1557 9.60306 30.7449 9.19234 30.344C7.42234 28.6131 7.51036 28.6816 7.52991 26.3444C7.52991 26.0021 7.51036 25.6599 7.52991 25.3176C7.54947 25.0242 7.43212 24.9264 7.14853 24.8775C3.94102 24.3397 1.73097 22.5501 0.547711 19.5382C-1.38853 14.6292 2.06346 8.97689 7.31478 8.39993C12.2434 7.86208 16.4777 11.4216 16.6635 16.3894C16.82 20.7312 13.6809 24.281 9.61284 24.8873C9.29013 24.9362 9.16301 25.0242 9.17278 25.3665C9.19234 26.0804 9.16301 26.7942 9.19234 27.5081C9.20212 27.733 9.2608 28.0166 9.40748 28.1731C10.1018 28.9163 10.8352 29.6301 11.6078 30.4222ZM8.36113 10.0037C4.70378 9.9939 1.70163 12.9667 1.68208 16.6143C1.66252 20.2716 4.67445 23.3031 8.33179 23.3227C11.9696 23.3325 14.9717 20.3596 15.0011 16.6925C15.0304 13.0254 12.0478 10.0135 8.36113 10.0037Z" fill="black"/>
<path d="M41.7074 11.657C42.0888 11.7059 42.4115 11.8917 42.4702 12.322C42.5093 12.5958 42.6462 12.6838 42.8418 12.8207C43.1645 13.0358 43.4676 13.2901 43.7121 13.5834C44.0642 14.0039 43.9957 14.5027 43.6339 14.796C43.2623 15.0992 42.7538 15.021 42.3919 14.5907C41.9128 14.0333 41.2478 14.0431 40.9446 14.6102C40.6415 15.1774 41.0229 15.7837 41.727 15.8326C43.3014 15.9402 44.338 17.1528 44.1424 18.6979C44.0348 19.5291 43.5752 20.1256 42.8516 20.5461C42.6951 20.6341 42.5484 20.8199 42.4995 20.9862C42.3724 21.4164 42.1083 21.6609 41.6683 21.6609C41.238 21.6609 40.9349 21.4164 40.8762 21.0057C40.8273 20.7123 40.661 20.6243 40.4655 20.4776C40.1428 20.2429 39.8298 19.9691 39.5854 19.6562C39.2822 19.265 39.3898 18.7663 39.7614 18.4925C40.1134 18.2383 40.5828 18.2969 40.8957 18.649C40.974 18.737 41.0229 18.8837 41.1109 18.9032C41.4043 18.9815 41.7661 19.1281 42.0008 19.0304C42.2355 18.9228 42.4702 18.5414 42.4604 18.2871C42.4506 18.0329 42.1572 17.7786 41.9421 17.5635C41.8639 17.4755 41.6683 17.495 41.5216 17.4853C40.3579 17.3875 39.4778 16.6345 39.2235 15.5001C38.9888 14.444 39.5169 13.3488 40.5046 12.7816C40.6513 12.6936 40.7882 12.5078 40.8469 12.3415C40.9642 11.9308 41.2869 11.6472 41.7074 11.657Z" fill="black"/>
<path d="M23.7435 10.0238C23.8609 10.1118 24.1151 10.2389 24.3009 10.4443C24.6139 10.7865 24.9366 10.943 25.3766 10.7376C25.7482 10.5616 25.8753 10.2389 25.8069 9.84775C25.7189 9.39791 25.4157 9.21211 24.9757 9.18278C23.7533 9.10455 22.8243 8.35156 22.5798 7.25631C22.3256 6.11217 22.8145 5.06582 23.8706 4.45952C24.0173 4.38129 24.1347 4.19549 24.1836 4.03902C24.3205 3.61853 24.5747 3.35449 25.0148 3.35449C25.4646 3.35449 25.7091 3.61853 25.846 4.0488C25.9047 4.22482 26.0611 4.37151 26.1981 4.49864C26.5012 4.79201 26.8532 5.0267 27.1173 5.34941C27.4204 5.73079 27.3031 6.24908 26.9315 6.51311C26.5697 6.76736 26.11 6.69891 25.7971 6.34687C25.7189 6.25886 25.67 6.11217 25.582 6.09261C25.2886 6.01438 24.9268 5.8677 24.6921 5.97526C24.4672 6.08283 24.2814 6.45444 24.2325 6.72825C24.164 7.07051 24.4183 7.33455 24.7605 7.45189C24.8974 7.50079 25.0441 7.51057 25.1908 7.52035C26.3252 7.60836 27.2346 8.39068 27.4595 9.46637C27.6942 10.5714 27.2053 11.6373 26.2274 12.2045C26.0612 12.3023 25.9047 12.4979 25.846 12.6837C25.7091 13.0944 25.4549 13.3389 25.0344 13.3389C24.5943 13.3486 24.3303 13.0944 24.1836 12.6641C24.1249 12.4783 23.9489 12.3316 23.8022 12.1849C23.499 11.8818 23.1177 11.6275 22.8732 11.2755C22.5016 10.7181 22.9319 10.014 23.7435 10.0238Z" fill="black"/>
<path d="M25.8166 41.6388C25.8166 41.14 25.4841 40.8467 24.8778 40.8075C23.6457 40.7195 22.7558 39.9274 22.5407 38.7051C22.3548 37.6881 22.8731 36.6613 23.8021 36.1136C23.9684 36.0158 24.1248 35.8203 24.1835 35.6345C24.3204 35.2237 24.5845 34.9793 24.9952 34.9793C25.4352 34.9695 25.6993 35.2237 25.8459 35.654C25.9046 35.8398 26.0806 35.9963 26.2175 36.1332C26.5207 36.4363 26.8923 36.7004 27.1465 37.0426C27.4204 37.4045 27.2737 37.913 26.9118 38.1574C26.5696 38.3921 26.1002 38.3237 25.8068 38.001C25.7677 37.9521 25.7384 37.8934 25.6895 37.8445C25.4059 37.512 25.0636 37.3849 24.6529 37.5805C24.2813 37.7565 24.1444 38.0792 24.2129 38.4704C24.2911 38.9202 24.604 39.1158 25.0343 39.1451C26.3642 39.2429 27.2443 40.0057 27.4692 41.2476C27.655 42.2646 27.1465 43.2914 26.2078 43.839C26.0415 43.9368 25.8948 44.1324 25.8264 44.3182C25.6797 44.7191 25.4352 44.9734 25.0147 44.9734C24.5747 44.9832 24.3106 44.7289 24.164 44.3084C24.1053 44.1226 23.939 43.9662 23.7924 43.8195C23.5185 43.5554 23.1763 43.3305 22.9416 43.0372C22.6091 42.6362 22.6873 42.1082 23.0589 41.8246C23.4305 41.541 23.939 41.6094 24.2617 42.0299C24.516 42.3624 24.8191 42.5384 25.2201 42.4211C25.6112 42.3233 25.8166 42.0495 25.8166 41.6388Z" fill="black"/>
<path d="M10.6201 14.3066C10.5125 14.4338 10.356 14.7858 10.1116 14.8738C9.85731 14.9618 9.50526 14.8249 9.21189 14.7467C9.10432 14.7174 9.04565 14.5511 8.95764 14.4631C8.68383 14.1795 8.35134 14.0817 7.98952 14.2675C7.62769 14.4533 7.46145 14.7565 7.53968 15.1476C7.60814 15.5388 7.87217 15.7637 8.27311 15.8224C8.49802 15.8517 8.72294 15.8615 8.94786 15.9104C9.94532 16.1549 10.6885 16.9665 10.8352 17.9738C10.9819 18.9908 10.4734 19.9882 9.56394 20.5261C9.39769 20.6239 9.25101 20.8194 9.18255 20.9955C9.02609 21.4062 8.78162 21.68 8.33178 21.6702C7.89173 21.6604 7.62769 21.4062 7.52013 20.9759C7.48101 20.8194 7.33432 20.6728 7.2072 20.5554C6.93339 20.3109 6.6009 20.1154 6.35643 19.8415C5.94571 19.3819 5.98482 18.8832 6.38576 18.5507C6.77692 18.228 7.26587 18.3062 7.64725 18.7854C7.88195 19.0886 8.19488 19.2548 8.53714 19.1179C8.77184 19.0201 9.02609 18.7756 9.12388 18.5409C9.33902 18.0031 8.91852 17.5435 8.20466 17.4946C7.18764 17.4261 6.46399 16.9176 6.05328 15.9886C5.52521 14.8054 6.01416 13.4559 7.1583 12.8007C7.32455 12.7029 7.47123 12.5073 7.5299 12.3215C7.66681 11.9108 7.93084 11.6761 8.34156 11.6663C8.76206 11.6565 9.08476 11.8912 9.15322 12.3019C9.20211 12.6051 9.3488 12.7224 9.59327 12.8496C10.1605 13.1527 10.6103 13.7199 10.6201 14.3066Z" fill="black"/>
</g>
<defs>
<clipPath id="clip0">
<rect width="50" height="50" fill="white"/>
</clipPath>
</defs>
</svg>
