<svg width="42" height="46" viewBox="0 0 42 46" fill="none" xmlns="http://www.w3.org/2000/svg">
<path d="M13.7297 32.9737C13.7297 32.0042 13.7393 31.0922 13.7202 30.1803C13.7202 30.0267 13.6342 29.8731 13.5769 29.7291C12.9941 28.3468 12.4208 26.9645 11.8093 25.6014C11.5418 25.0063 11.3889 24.4111 11.4367 23.7583C11.4653 23.2688 11.4462 22.7792 11.4462 22.2321C11.0163 22.2321 10.6245 22.2321 10.2328 22.2321C8.69455 22.2321 7.14673 22.2321 5.60846 22.2321C4.81544 22.2321 4.58613 22.0113 4.58613 21.2241C4.58613 16.914 4.58613 12.6039 4.58613 8.29382C4.58613 8.10184 4.58613 7.91945 4.58613 7.66987C3.43005 7.66987 2.30262 7.66987 1.1752 7.66987C0.17198 7.66027 0 7.49708 0 6.50835C0 4.67488 0 2.8318 0 0.998331C0 0.230384 0.229307 0 0.993663 0C14.0928 0 27.1824 0 40.2816 0C40.9408 0 41.2083 0.259182 41.2083 0.921536C41.2083 2.8702 41.2083 4.81886 41.2083 6.76753C41.2083 7.39149 40.9313 7.66027 40.3007 7.66987C39.0968 7.66987 37.8929 7.66987 36.6222 7.66987C36.6222 7.89065 36.6222 8.07304 36.6222 8.26503C36.6222 12.5175 36.6222 16.7604 36.6222 21.0129C36.6222 22.0881 36.4693 22.2417 35.3801 22.2417C33.775 22.2417 32.1794 22.2417 30.5169 22.2417C30.5169 23.1344 30.5169 23.9887 30.5169 24.8431C30.5265 27.0797 29.5997 28.846 27.7939 30.1419C27.5455 30.3243 27.4404 30.4971 27.4499 30.8043C27.469 31.505 27.4595 32.2058 27.4595 32.9737C27.9563 32.9737 28.4245 32.9641 28.8927 32.9737C29.4659 32.9833 29.743 33.2617 29.743 33.828C29.743 37.6006 29.743 41.3635 29.743 45.1361C29.743 45.7312 29.4564 46.0096 28.864 46.0096C22.8447 46.0096 16.8158 46.0096 10.7965 46.0096C10.1755 46.0096 9.91752 45.7408 9.90796 45.0977C9.90796 41.3635 9.90796 37.6198 9.90796 33.8856C9.90796 33.2521 10.1755 32.9833 10.8061 32.9833C11.7711 32.9641 12.717 32.9737 13.7297 32.9737ZM16.7489 19.1699C16.7872 19.5634 16.7107 20.0242 16.8923 20.197C17.1693 20.4658 17.6375 20.677 18.0292 20.677C23.5613 20.7058 29.0933 20.6962 34.6253 20.6962C34.7782 20.6962 34.9311 20.677 35.0648 20.677C35.0648 15.2917 35.0648 9.95451 35.0648 4.61728C25.3957 4.61728 15.7744 4.61728 6.13396 4.61728C6.13396 9.98331 6.13396 15.3205 6.13396 20.6674C7.92064 20.6674 9.6691 20.6674 11.4176 20.6674C11.4176 19.8898 11.4176 19.1507 11.4176 18.3827C11.1596 18.3827 10.9398 18.3827 10.7296 18.3827C10.4239 16.8372 9.83153 16.2805 8.34103 16.0885C7.89197 16.0309 7.64356 15.7429 7.64356 15.2245C7.64356 13.5159 7.64356 11.8072 7.64356 10.0985C7.64356 9.48414 7.88242 9.23456 8.4939 9.18656C9.74554 9.09057 10.5959 8.22663 10.6914 6.95952C10.7392 6.37396 10.9876 6.12437 11.5609 6.12437C17.5993 6.12437 23.6377 6.12437 29.6761 6.12437C30.2303 6.12437 30.4787 6.37396 30.5265 6.93072C30.6316 8.24583 31.4724 9.08097 32.8004 9.18656C33.3164 9.22496 33.5743 9.49374 33.5839 10.0121C33.5934 11.7496 33.5934 13.4967 33.5839 15.2341C33.5839 15.7813 33.3259 16.0405 32.7718 16.0789C31.4915 16.1845 30.6316 17.0388 30.536 18.3251C30.4882 18.9011 30.2398 19.1411 29.657 19.1507C28.7016 19.1507 27.7461 19.1507 26.8002 19.1507C23.4753 19.1699 20.1694 19.1699 16.7489 19.1699ZM19.0802 27.5789C19.0802 27.1757 19.0898 26.8013 19.0802 26.4174C19.0134 24.1327 17.9624 22.472 15.8986 21.4929C15.4495 21.2817 15.2489 21.0033 15.2585 20.5042C15.2776 19.2083 15.2585 17.922 15.268 16.626C15.268 16.0789 15.0674 15.6565 14.5514 15.4357C13.7584 15.0902 12.9749 15.6853 12.9749 16.6356C12.9654 19.1123 12.9654 21.5889 12.9749 24.0655C12.9749 24.2767 13.0323 24.5071 13.1183 24.7087C13.6438 25.9758 14.1501 27.2525 14.733 28.4812C15.1438 29.3452 15.3253 30.2091 15.2585 31.1594C15.2202 31.7546 15.2489 32.3593 15.2489 32.9545C18.8414 32.9545 22.367 32.9545 25.9308 32.9545C25.9308 32.0234 25.9594 31.121 25.9212 30.2091C25.9021 29.6811 26.1028 29.374 26.5327 29.0764C27.0678 28.7212 27.5837 28.2988 27.9945 27.7997C29.3608 26.1486 28.9118 24.1615 28.9786 22.2609C25.711 22.2609 22.5103 22.2609 19.386 22.2609C19.7204 23.096 20.1599 23.9215 20.3701 24.8047C20.5803 25.6974 20.5707 26.6477 20.6567 27.5885C20.0643 27.5789 19.5962 27.5789 19.0802 27.5789ZM29.0551 7.67947C23.4084 7.67947 17.7904 7.67947 12.1533 7.67947C11.7329 9.25376 10.7488 10.2521 9.18182 10.6745C9.18182 11.9992 9.18182 13.3143 9.18182 14.5718C9.63088 14.783 10.0513 14.927 10.4239 15.1669C10.787 15.3973 11.1023 15.7141 11.4653 16.0213C11.494 15.9349 11.5227 15.8581 11.5418 15.7909C11.9431 14.4566 13.1565 13.6407 14.4845 13.8134C15.8222 13.9958 16.7872 15.1285 16.7872 16.5492C16.7872 16.8948 16.7872 17.2404 16.7872 17.6148C20.9147 17.6148 24.9849 17.6148 29.0551 17.6148C29.485 16.0309 30.4787 15.0422 32.0361 14.6198C32.0361 13.2951 32.0361 11.9896 32.0361 10.6841C30.4691 10.2521 29.485 9.27295 29.0551 7.67947ZM28.2143 38.3109C23.1122 38.3109 18.0579 38.3109 12.994 38.3109C12.994 37.7926 12.994 37.3126 12.994 36.7942C18.077 36.7942 23.1313 36.7942 28.1952 36.7942C28.1952 36.0071 28.1952 35.2679 28.1952 34.5288C22.5963 34.5288 17.026 34.5288 11.4653 34.5288C11.4653 37.8502 11.4653 41.1331 11.4653 44.4353C17.0547 44.4353 22.6249 44.4353 28.2143 44.4353C28.2143 42.4099 28.2143 40.4036 28.2143 38.3109ZM39.6796 1.56469C26.934 1.56469 14.2361 1.56469 1.56693 1.56469C1.56693 3.11018 1.56693 4.61728 1.56693 6.10518C2.58926 6.10518 3.56381 6.10518 4.54792 6.10518C4.54792 5.59641 4.54792 5.10684 4.54792 4.56928C4.03198 4.56928 3.55425 4.56928 3.08609 4.56928C3.08609 4.04132 3.08609 3.57095 3.08609 3.10058C14.7903 3.10058 26.4563 3.10058 38.1318 3.10058C38.1318 3.60935 38.1318 4.07972 38.1318 4.60768C37.6254 4.60768 37.1381 4.60768 36.67 4.60768C36.67 5.14524 36.67 5.63481 36.67 6.10518C37.6827 6.10518 38.6669 6.10518 39.6701 6.10518C39.6796 6.00918 39.6892 5.93239 39.6892 5.85559C39.6796 4.43489 39.6796 3.01419 39.6796 1.56469Z" fill="black"/>
<path d="M20.2363 16.0984C18.2872 16.0888 16.7871 14.5625 16.7871 12.5947C16.7871 10.742 18.3445 9.1965 20.2076 9.2061C22.1567 9.2157 23.6568 10.7324 23.6568 12.7099C23.6472 14.5625 22.0994 16.108 20.2363 16.0984ZM22.128 12.6715C22.1376 11.6251 21.2681 10.742 20.2267 10.742C19.1948 10.742 18.3445 11.5771 18.3158 12.6139C18.2872 13.6506 19.1566 14.5529 20.198 14.5721C21.2395 14.5817 22.1089 13.7178 22.128 12.6715Z" fill="black"/>
<path d="M15.2585 41.0371C15.2489 41.6803 14.7521 42.1795 14.1024 42.1699C13.4623 42.1699 12.9654 41.6515 12.975 41.0083C12.9845 40.3652 13.4909 39.866 14.1311 39.8756C14.7712 39.8756 15.2681 40.394 15.2585 41.0371Z" fill="black"/>
</svg>
