<svg width="40" height="52" viewBox="0 0 40 52" fill="none" xmlns="http://www.w3.org/2000/svg">
<path d="M37.7068 33.3653C38.6348 33.6 38.7414 33.728 38.7414 34.6986C38.7414 35.552 38.7414 36.4053 38.7414 37.2586C38.7414 38.0693 38.4748 38.3253 37.6534 38.3253C35.9148 38.3253 34.1761 38.3253 32.4374 38.3253C32.2454 38.3253 32.0534 38.3253 31.8081 38.3253C31.9041 39.4026 31.9894 40.4053 32.0854 41.408C32.2028 42.6453 32.3521 43.8827 32.4268 45.12C32.5548 46.9333 31.1574 48.512 29.2908 48.7147C29.1521 48.7253 29.0134 48.736 28.8214 48.7573C28.8214 49.4827 28.8214 50.1867 28.8214 50.9013C28.8214 51.744 28.5548 52.0107 27.7014 52.0107C19.7868 52.0107 11.8721 52.0107 3.95742 52.0107C3.07209 52.0107 2.80542 51.7547 2.80542 50.88C2.80542 49.408 2.80542 47.936 2.80542 46.464C2.80542 46.048 2.89075 45.6747 3.31742 45.4933C3.89342 45.2587 4.42675 45.664 4.43742 46.3573C4.44809 47.4773 4.43742 48.5973 4.43742 49.7067C4.43742 49.8987 4.43742 50.0907 4.43742 50.3253C12.0321 50.3253 19.5734 50.3253 27.1788 50.3253C27.1788 49.664 27.1894 49.0133 27.1681 48.3627C27.1681 48.2347 27.0401 48.0853 26.9228 47.9893C25.9094 47.1573 25.5148 46.08 25.6428 44.7787C25.8348 42.816 26.0161 40.864 26.1974 38.9013C26.2081 38.7306 26.1974 38.56 26.1974 38.3146C25.9308 38.3146 25.7068 38.3146 25.4828 38.3146C23.7761 38.3146 22.0801 38.3253 20.3734 38.3146C19.5414 38.3146 19.2961 38.0586 19.2961 37.2373C19.2961 36.4053 19.2961 35.5733 19.2961 34.7306C19.2961 33.728 19.3921 33.6 20.3308 33.3546C20.1814 31.84 20.0321 30.3253 19.8828 28.8106C19.6161 26.112 19.3494 23.4133 19.0721 20.7146C19.0188 20.128 18.9548 19.552 18.8908 18.9653C18.8054 18.2186 19.1254 17.856 19.8721 17.856C25.9734 17.856 32.0854 17.856 38.1868 17.856C38.9228 17.856 39.2428 18.24 39.1681 18.976C38.7414 23.232 38.3148 27.4773 37.8881 31.7333C37.8241 32.2773 37.7708 32.8213 37.7068 33.3653ZM35.4454 19.4986C35.3388 20.7253 35.2428 21.8986 35.1361 23.0826C35.0934 23.5733 34.7308 23.8933 34.2934 23.872C33.8454 23.8506 33.5361 23.4986 33.5468 23.008C33.5574 22.6346 33.6001 22.2613 33.6214 21.8986C33.6854 21.1093 33.7388 20.32 33.8028 19.4666C33.3014 19.4666 32.8748 19.488 32.4588 19.456C32.0428 19.424 31.9468 19.5946 31.9574 19.9786C31.9788 20.992 31.9788 22.0053 31.9574 23.008C31.9468 23.5413 31.6054 23.8826 31.1468 23.872C30.6988 23.8613 30.3681 23.4986 30.3681 22.976C30.3574 21.984 30.3681 20.992 30.3574 20C30.3574 19.8293 30.3361 19.6586 30.3254 19.52C28.3734 19.52 26.4961 19.52 24.5654 19.52C24.6614 20.672 24.7468 21.76 24.8321 22.8586C24.8748 23.4666 24.5868 23.8613 24.0854 23.8826C23.6268 23.904 23.2748 23.5413 23.2214 22.9866C23.1788 22.4533 23.1468 21.9306 23.1041 21.3973C23.0508 20.768 22.9868 20.1386 22.9228 19.4986C22.1228 19.4986 21.3868 19.4986 20.6188 19.4986C20.6188 19.648 20.6081 19.776 20.6188 19.8933C21.0348 24.1493 21.4614 28.3946 21.8881 32.6506C21.9734 33.44 21.9841 33.44 22.7841 33.44C27.0081 33.44 31.2321 33.44 35.4454 33.44C35.6481 33.44 35.8614 33.4186 36.0748 33.408C36.5334 28.7573 36.9921 24.16 37.4508 19.5093C36.7681 19.4986 36.1388 19.4986 35.4454 19.4986ZM20.9281 36.7146C21.1734 36.7146 21.3654 36.7146 21.5574 36.7146C23.3708 36.7146 25.1734 36.7146 26.9868 36.7146C27.6161 36.7146 27.9894 37.088 27.9361 37.664C27.8721 38.3893 27.7868 39.104 27.7228 39.8293C27.5521 41.6426 27.3708 43.4667 27.2428 45.2907C27.1894 46.048 27.6908 46.7307 28.3734 46.9867C29.0774 47.2533 29.8454 47.04 30.3681 46.496C30.9654 45.8667 30.8161 45.1093 30.7521 44.384C30.5601 42.176 30.3361 39.968 30.1441 37.76C30.0801 37.024 30.3894 36.7253 31.1361 36.7253C32.9281 36.7253 34.7201 36.7253 36.5121 36.7253C36.7041 36.7253 36.8961 36.7253 37.1094 36.7253C37.1094 36.1386 37.1094 35.6053 37.1094 35.0826C31.6908 35.0826 26.3361 35.0826 20.9494 35.0826C20.9281 35.616 20.9281 36.128 20.9281 36.7146Z" fill="black"/>
<path d="M2.80543 26.5387C2.80543 25.9521 2.80543 25.3654 2.80543 24.7787C2.81609 24.0001 3.09343 23.7334 3.87209 23.7334C8.30943 23.7334 12.7468 23.7334 17.1734 23.7334C17.9414 23.7334 18.3041 24.0001 18.2934 24.5547C18.2828 25.0774 17.9414 25.3441 17.1948 25.3441C13.1841 25.3441 9.17343 25.3441 5.16276 25.3441C4.93876 25.3441 4.71476 25.3441 4.42676 25.3441C4.42676 26.2934 4.42676 27.1787 4.42676 28.0641C4.42676 32.6827 4.43743 37.2907 4.41609 41.9094C4.41609 42.3147 4.55476 42.5067 4.90676 42.656C8.34143 44.0854 12.2454 41.6641 12.3414 37.9521C12.4268 34.7307 12.3628 31.4987 12.3628 28.1814C11.9681 28.1814 11.5841 28.1921 11.2001 28.1814C10.6241 28.1707 10.2508 27.8614 10.2401 27.4027C10.2188 26.9227 10.6028 26.5814 11.2001 26.5707C11.8401 26.5601 12.4801 26.5601 13.1201 26.5707C13.6748 26.5814 14.0161 26.8801 14.0161 27.4134C14.0054 31.1254 14.1121 34.8374 13.8881 38.5281C13.6854 41.9627 10.5388 44.6081 7.04009 44.6614C3.69076 44.7147 0.629426 42.1547 0.0960931 38.8481C0.0320931 38.4321 -0.0212402 38.0054 -0.0212402 37.5787C9.30987e-05 34.2614 9.30987e-05 30.9441 9.30987e-05 27.6267C9.30987e-05 26.8587 0.256093 26.6027 1.01343 26.6027C1.54676 26.6027 2.08009 26.5921 2.61343 26.5921C2.64543 26.5814 2.67743 26.5707 2.80543 26.5387ZM1.60009 28.2241C1.60009 28.4801 1.60009 28.6721 1.60009 28.8641C1.60009 31.0827 1.58943 33.2907 1.60009 35.5094C1.61076 36.5227 1.61076 37.5254 1.69609 38.5387C1.77076 39.4027 2.12276 40.1814 2.75209 40.9174C2.75209 36.6187 2.75209 32.4267 2.75209 28.2241C2.36809 28.2241 2.02676 28.2241 1.60009 28.2241Z" fill="black"/>
<path d="M18.8587 10.1866C18.8587 8.36256 18.8481 6.53856 18.8587 4.71456C18.8587 4.07456 19.3601 3.66923 19.8934 3.85056C20.2668 3.97856 20.4588 4.2559 20.4588 4.66123C20.4588 8.33056 20.4588 11.9999 20.4481 15.6692C20.4481 16.2026 20.1068 16.5439 19.6588 16.5439C19.1894 16.5439 18.8694 16.1812 18.8694 15.6052C18.8587 13.8026 18.8587 11.9999 18.8587 10.1866Z" fill="black"/>
<path d="M39.2107 11.68C39.2107 12.544 39.2214 13.4187 39.2107 14.2827C39.2 14.9014 38.88 15.2427 38.3787 15.232C37.8987 15.2107 37.6 14.8694 37.6 14.2827C37.5894 12.5334 37.5894 10.7734 37.6 9.02403C37.6 8.44803 37.9094 8.09603 38.3787 8.0747C38.8694 8.06403 39.2 8.41603 39.2107 9.02403C39.232 9.90937 39.2214 10.7947 39.2107 11.68C39.2214 11.68 39.2214 11.68 39.2107 11.68Z" fill="black"/>
<path d="M24.8215 9.2587C24.8215 9.84536 24.8322 10.432 24.8215 11.008C24.8109 11.5307 24.4589 11.872 24.0002 11.8507C23.5629 11.8294 23.2429 11.488 23.2429 10.9974C23.2322 9.82403 23.2322 8.66136 23.2429 7.48803C23.2429 6.97603 23.5629 6.6667 24.0109 6.65603C24.5015 6.64536 24.8109 6.9547 24.8215 7.4987C24.8322 8.08536 24.8109 8.67203 24.8215 9.2587Z" fill="black"/>
<path d="M34.3041 11.0294C34.3041 11.4028 34.3254 11.7761 34.3041 12.1388C34.2721 12.6294 33.9414 12.9494 33.4934 12.9388C33.0774 12.9281 32.7361 12.6081 32.7147 12.1601C32.6934 11.4134 32.6934 10.6774 32.7147 9.93077C32.7254 9.48277 33.0881 9.1521 33.5041 9.1521C33.9201 9.1521 34.2614 9.4721 34.3041 9.9201C34.3254 10.1121 34.3147 10.3041 34.3147 10.5068C34.3041 10.6774 34.3041 10.8481 34.3041 11.0294Z" fill="black"/>
<path d="M23.2214 4.42673C23.2214 4.28807 23.2001 4.13873 23.2214 4.00007C23.2854 3.55207 23.5414 3.2854 24.0001 3.2854C24.4481 3.2854 24.7361 3.53073 24.7894 3.97873C24.8214 4.25607 24.8107 4.54407 24.8001 4.83207C24.7681 5.34407 24.4587 5.64273 24.0001 5.63207C23.5414 5.6214 23.2427 5.31207 23.2214 4.80007C23.2214 4.67207 23.2214 4.54407 23.2214 4.42673Z" fill="black"/>
<path d="M18.8586 1.15207C18.8693 0.981399 18.848 0.7894 18.8906 0.629399C18.9973 0.224066 19.2746 -0.0212671 19.6906 6.62066e-05C20.096 0.0213995 20.3946 0.2454 20.4373 0.682733C20.4693 0.938733 20.4693 1.21607 20.448 1.47207C20.4266 1.96273 20.096 2.2934 19.6586 2.28273C19.2213 2.28273 18.8906 1.95207 18.8586 1.47207C18.8586 1.3654 18.8586 1.25873 18.8586 1.15207Z" fill="black"/>
</svg>
