<svg width="26" height="26" viewBox="0 0 26 26" fill="none" xmlns="http://www.w3.org/2000/svg">
<path d="M11.1004 20.0527C6.17102 20.0527 2.17551 16.056 2.17551 11.1186C2.17551 6.18111 6.17102 2.18438 11.1004 2.18438C16.0298 2.18438 20.02 6.18643 20.02 11.1186C20.02 16.0507 16.0245 20.0527 11.1004 20.0527ZM25.6816 24.1983L19.6698 18.1766C21.2457 16.258 22.1955 13.7972 22.1955 11.1186C22.1955 4.97997 17.229 0 11.0951 0C4.96122 0 0 4.97997 0 11.1186C0 17.2572 4.96653 22.2371 11.1004 22.2371C13.7747 22.2371 16.2261 21.2911 18.1416 19.7126L24.1535 25.7343C24.4294 26.0159 25.2731 26.1541 25.6869 25.7343C26.1061 25.3091 26.1061 24.6235 25.6816 24.1983Z" fill="#828282"/>
</svg>
