<svg width="18" height="18" viewBox="0 0 18 18" fill="none" xmlns="http://www.w3.org/2000/svg">
<path d="M9 0C4.03704 0 0 4.03704 0 9C0 13.963 4.03704 18 9 18C13.963 18 18 13.963 18 9C18 4.03704 13.963 0 9 0ZM9 16.0741C5.09259 16.0741 1.92593 12.8889 1.92593 9C1.92593 5.11111 5.11111 1.92593 9 1.92593C12.8889 1.92593 16.0741 5.11111 16.0741 9C16.0741 12.8889 12.9074 16.0741 9 16.0741Z" fill="black"/>
<path d="M13.685 8.72238H9.64799V3.85201C9.64799 3.4446 9.31465 3.11127 8.90724 3.11127C8.49984 3.11127 8.1665 3.4446 8.1665 3.85201V9.46312C8.1665 9.87052 8.49984 10.2039 8.90724 10.2039H13.685C14.0924 10.2039 14.4258 9.87052 14.4258 9.46312C14.4258 9.05571 14.0924 8.72238 13.685 8.72238Z" fill="black"/>
</svg>
