<svg width="24" height="20" viewBox="0 0 24 20" fill="none" xmlns="http://www.w3.org/2000/svg">
<path d="M9.00427 11.2921L11.297 13.82C11.6791 14.2364 12.4041 14.2364 12.7863 13.82L15.079 11.2921L20.9479 17.5971H3.13533L9.00427 11.2921ZM7.65706 9.80771L2.02327 15.8579V3.59094L7.65706 9.80771ZM12.0416 11.6693L3.2774 1.99877H20.8009L12.0416 11.6693ZM22.0502 3.59094V15.8579L16.4164 9.80771L22.0502 3.59094ZM23.0006 0H1.00428C0.450704 0 0 0.445805 0 0.999387V18.5964C0 19.15 0.450704 19.5958 1.00428 19.5958H22.9957C23.5493 19.5958 24 19.15 24 18.5964V0.999387C24.0049 0.445805 23.5542 0 23.0006 0Z" fill="white"/>
</svg>
