<svg width="24" height="25" viewBox="0 0 24 25" fill="none" xmlns="http://www.w3.org/2000/svg">
<path d="M5.2206 15.797L2.15917 17.7024C2.00242 17.7906 1.96324 17.9523 2.03181 18.0747L3.34945 20.3769C4.0842 21.6603 5.68104 22.4636 6.99868 21.8758C14.7919 18.4078 18.6517 14.5969 21.8748 6.99968C22.4381 5.67224 21.6593 4.0852 20.3759 3.35045L18.0737 2.03281C17.9953 1.98873 17.7994 1.93974 17.721 2.13078L15.7813 5.25099C15.7323 5.33916 15.7666 5.4959 15.8842 5.56938L16.5601 6.00043C17.481 6.58822 17.8533 7.74422 17.4467 8.74347C16.5503 10.9526 13.9004 13.7397 13.7877 13.8573C13.6408 13.9993 10.9271 16.5758 8.73757 17.4526C7.73832 17.8543 6.59212 17.4771 6.00433 16.5611L5.57328 15.8803C5.51939 15.8019 5.36265 15.7088 5.2206 15.797ZM6.14638 24.0016C4.32911 24.0016 2.56083 23.022 1.61546 21.3713L0.297816 19.0691C-0.319368 17.9865 0.0529019 16.6052 1.13542 15.9831L4.19686 14.0777C5.27448 13.4605 6.60681 13.7838 7.25829 14.8076L7.68934 15.4884C7.75791 15.5913 7.88527 15.6403 7.98813 15.5962C9.8152 14.8663 12.3427 12.4662 12.3672 12.4466C12.3672 12.4466 14.8359 9.84559 15.5854 7.99403C15.6295 7.88627 15.5805 7.75891 15.4776 7.69034L14.8017 7.25929C13.7828 6.60782 13.4546 5.28038 14.0571 4.22725L15.9968 1.10214C16.2809 0.612308 17.4761 -0.538791 19.0681 0.293919L21.3703 1.61156C23.452 2.80674 24.4709 5.31467 23.79 7.57278C22.6683 11.3004 20.5571 14.641 17.5153 17.5114C14.6449 20.5484 11.3043 22.6595 7.57668 23.7861C7.10644 23.9331 6.62641 24.0016 6.14638 24.0016Z" fill="white"/>
<path d="M1.78197 10.2029C1.22846 10.2029 0.782715 9.75713 0.782715 9.20363C0.782715 4.56005 4.5593 0.778564 9.20288 0.778564C9.75638 0.778564 10.2021 1.22431 10.2021 1.77782C10.2021 2.33132 9.75638 2.77707 9.20288 2.77707C5.66141 2.77707 2.78122 5.65726 2.78122 9.19873C2.78122 9.75713 2.33547 10.2029 1.78197 10.2029Z" fill="white"/>
<path d="M6.08763 10.203C5.53412 10.203 5.08838 9.7573 5.08838 9.2038C5.08838 6.93589 6.93503 5.08923 9.20294 5.08923C9.75645 5.08923 10.2022 5.53498 10.2022 6.08848C10.2022 6.64199 9.75645 7.08774 9.20294 7.08774C8.03715 7.08774 7.08688 8.038 7.08688 9.2038C7.08688 9.7573 6.64114 10.203 6.08763 10.203Z" fill="white"/>
</svg>
