<svg width="24" height="24" viewBox="0 0 24 24" fill="none" xmlns="http://www.w3.org/2000/svg">
<path d="M12 2.29469L21.4237 10.0384L17.569 13.2122V9.61224C17.569 9.05878 17.1233 8.61306 16.5698 8.61306H7.4302C6.87673 8.61306 6.43102 9.05878 6.43102 9.61224V13.2122L2.57633 10.0384L12 2.29469ZM8.96816 17.8947L11.3633 19.8637C11.7306 20.1673 12.2645 20.1673 12.6318 19.8637L15.0269 17.8947L20.1502 21.9943H3.8498L8.96816 17.8947ZM7.39102 16.5967L1.99837 20.9167V12.1592L7.39102 16.5967ZM15.5706 14.858L12 17.7967L8.42939 14.858V10.6114H15.5755V14.858H15.5706ZM22.0016 12.1592V20.9167L16.609 16.5967L22.0016 12.1592ZM23.6131 9.24979L12.6367 0.227755C12.2694 -0.0759184 11.7355 -0.0759184 11.3682 0.227755L0.391837 9.2449C0.151837 9.42612 0 9.7151 0 10.0384V22.9984C0 23.5518 0.445714 23.9976 0.999184 23.9976H23.0008C23.5543 23.9976 24 23.5518 24 22.9984V10.0384C24 9.72 23.8482 9.43102 23.6131 9.24979Z" fill="white"/>
</svg>
