<svg width="30" height="36" viewBox="0 0 30 36" fill="none" xmlns="http://www.w3.org/2000/svg">
<path d="M26.5144 6.25781C23.7652 2.28516 19.4058 0 14.5613 0C9.71677 0 5.36443 2.28516 2.61521 6.25781C-0.119949 10.2164 -0.752761 15.2227 0.920676 19.6523C1.37068 20.8617 2.08083 22.0359 3.03005 23.1328L13.6051 35.55C13.8441 35.8312 14.1957 35.993 14.5613 35.993C14.9269 35.993 15.2785 35.8312 15.5175 35.55L26.0855 23.1328C27.0418 22.0289 27.7519 20.8547 28.1949 19.6523C29.8754 15.2297 29.2496 10.2164 26.5144 6.25781ZM25.8465 18.7805C25.5019 19.7086 24.9465 20.6227 24.1871 21.5016L24.18 21.5086L14.5613 32.8008L4.94255 21.5016C4.18318 20.6227 3.62771 19.7086 3.27614 18.7734C1.89099 15.1102 2.41833 10.9688 4.68239 7.69219C6.95349 4.40156 10.5535 2.51719 14.5613 2.51719C18.5691 2.51719 22.1691 4.40156 24.4402 7.69219C26.7043 10.9688 27.2316 15.1102 25.8465 18.7805Z" fill="white"/>
<path d="M14.5606 7.46729C10.6724 7.46729 7.5083 10.6314 7.5083 14.5196C7.5083 18.4079 10.6724 21.572 14.5606 21.572C18.4489 21.572 21.613 18.4079 21.613 14.5196C21.613 10.6314 18.4489 7.46729 14.5606 7.46729ZM14.5606 19.0478C12.0645 19.0478 10.0325 17.0157 10.0325 14.5196C10.0325 12.0235 12.0645 9.99151 14.5606 9.99151C17.0567 9.99151 19.0888 12.0235 19.0888 14.5196C19.0888 17.0157 17.0638 19.0478 14.5606 19.0478Z" fill="white"/>
</svg>
