<svg width="96" height="97" viewBox="0 0 96 97" fill="none" xmlns="http://www.w3.org/2000/svg">
<path d="M95.832 10.4743C95.5256 9.88201 94.8924 9.55521 94.2388 9.65734L86.069 10.9237L87.3353 2.75384C87.4375 2.10026 87.1107 1.44667 86.5184 1.16073C85.926 0.854359 85.2112 0.976906 84.7414 1.44667L75.244 10.9441C75.0193 11.1688 74.8559 11.4751 74.8151 11.8019L73.3037 21.5444L67.8708 26.9773C60.3749 20.033 50.6937 16.2136 40.3997 16.2136C29.5952 16.2136 19.4646 20.4211 11.8258 28.0394C4.20746 35.6374 0 45.7884 0 56.5725C0 67.3567 4.20746 77.5077 11.8258 85.1464C19.4442 92.7648 29.5952 96.9723 40.3997 96.9723C51.2043 96.9723 61.3349 92.7648 68.9737 85.1464C76.592 77.5281 80.7995 67.3771 80.7995 56.5725C80.7995 47.9738 78.1443 39.7835 73.1199 32.8596C72.6297 32.1652 71.6697 32.0222 70.9753 32.5124C70.2808 33.0026 70.1379 33.9625 70.6281 34.657C75.2644 41.0499 77.7154 48.6274 77.7154 56.5725C77.7154 77.1605 60.9673 93.9086 40.3793 93.9086C19.7914 93.9086 3.06368 77.1605 3.06368 56.5725C3.06368 35.9846 19.8118 19.2569 40.3997 19.2569C49.8563 19.2569 58.7818 22.7495 65.6853 29.1219L58.6797 36.1275C53.6348 31.6137 47.2011 29.1423 40.3793 29.1423C25.2447 29.1423 12.9492 41.4584 12.9492 56.5725C12.9492 71.6867 25.2652 84.0027 40.3793 84.0027C55.4935 84.0027 67.8095 71.6867 67.8095 56.5725C67.8095 51.5276 66.4206 46.5849 63.8267 42.2958C63.3774 41.5809 62.4378 41.3358 61.723 41.7851C61.0081 42.2345 60.763 43.174 61.2124 43.8889C63.5408 47.6878 64.7662 52.0791 64.7662 56.5725C64.7662 70.0119 53.8391 80.939 40.3997 80.939C26.9604 80.939 16.0333 70.0119 16.0333 56.5725C16.0333 43.1332 26.9604 32.206 40.3997 32.206C46.3841 32.206 52.0622 34.3506 56.5147 38.2925L49.4887 45.3186C46.9152 43.2353 43.7494 42.1119 40.3793 42.1119C32.3933 42.1119 25.8983 48.6069 25.8983 56.5929C25.8983 64.5789 32.3933 71.0739 40.3793 71.0739C48.3653 71.0739 54.8603 64.5789 54.8603 56.5929C54.8603 55.1632 54.6561 53.7539 54.2476 52.4059C54.0025 51.5889 53.1447 51.1396 52.3481 51.3847C51.5311 51.6298 51.0818 52.4876 51.3269 53.2842C51.6537 54.3462 51.8171 55.4492 51.8171 56.5929C51.8171 62.8837 46.6905 68.0103 40.3997 68.0103C34.109 68.0103 28.9824 62.8837 28.9824 56.5929C28.9824 50.3022 34.109 45.1756 40.3997 45.1756C42.9324 45.1756 45.3425 45.9926 47.3237 47.504L39.3172 55.5104C38.7249 56.1027 38.7249 57.0831 39.3172 57.6754C39.6236 57.9818 40.0117 58.1248 40.3997 58.1248C40.7878 58.1248 41.1759 57.9818 41.4822 57.6754L68.9533 30.184L75.4483 23.689L85.1908 22.1776C85.5176 22.1367 85.8035 21.9733 86.0486 21.7487L95.546 12.2513C96.0158 11.7815 96.1383 11.0666 95.832 10.4743ZM77.7358 12.7414L83.5772 6.90002L82.7807 12.0266L76.9597 17.8476L77.7358 12.7414ZM84.2308 19.2364L79.1042 20.033L84.9252 14.212L90.0518 13.4155C90.0722 13.395 84.2308 19.2364 84.2308 19.2364Z" fill="black"/>
</svg>
