<svg width="96" height="97" viewBox="0 0 96 97" fill="none" xmlns="http://www.w3.org/2000/svg">
<path d="M48.006 31.2152C56.3376 31.2152 63.1173 24.4355 63.1173 16.1039C63.1173 7.77232 56.3376 0.992676 48.006 0.992676C39.6744 0.992676 32.8948 7.77232 32.8948 16.1039C32.8948 24.4355 39.6744 31.2152 48.006 31.2152ZM48.006 4.05577C54.6427 4.05577 60.0542 9.46723 60.0542 16.1039C60.0542 22.7406 54.6427 28.1521 48.006 28.1521C41.3693 28.1521 35.9579 22.7406 35.9579 16.1039C35.9579 9.46723 41.3693 4.05577 48.006 4.05577Z" fill="black"/>
<path d="M48.0061 37.3414C60.2177 37.3414 70.2442 46.8778 71.0406 58.8851H35.6517C34.8144 58.8851 34.1201 59.5794 34.1201 60.4167C34.1201 61.2539 34.8144 61.9482 35.6517 61.9482H72.6334C73.4706 61.9482 74.1649 61.2539 74.1649 60.4167C74.1649 45.9997 62.4435 34.2783 48.0266 34.2783C33.6096 34.2783 21.8882 45.9997 21.8882 60.4167C21.8882 61.2539 22.5825 61.9482 23.4197 61.9482H29.5459C30.3832 61.9482 31.0775 61.2539 31.0775 60.4167C31.0775 59.5794 30.3832 58.8851 29.5459 58.8851H24.9921C25.7681 46.8778 35.7946 37.3414 48.0061 37.3414Z" fill="black"/>
<path d="M28.6882 78.1211L20.2953 76.712L16.3542 69.1564C16.0887 68.6459 15.5578 68.3396 14.986 68.3396C14.4142 68.3396 13.8833 68.6663 13.6178 69.1564L9.67664 76.712L1.28377 78.1211C0.711993 78.2232 0.26274 78.6112 0.0789543 79.1625C-0.104831 79.7139 0.0381131 80.3061 0.446525 80.7145L6.40934 86.7998L5.16368 95.2335C5.082 95.8053 5.30663 96.3567 5.7763 96.7038C6.24598 97.0305 6.83817 97.0918 7.36911 96.8263L14.986 93.0281L22.6029 96.8263C22.8275 96.9284 23.0521 96.9897 23.2768 96.9897C23.6035 96.9897 23.9098 96.8876 24.1753 96.7038C24.6449 96.3771 24.8696 95.8053 24.7879 95.2335L23.5422 86.7998L29.505 80.7145C29.9134 80.3061 30.036 79.7139 29.8726 79.1625C29.7092 78.6112 29.26 78.2232 28.6882 78.1211ZM20.8467 85.1866C20.52 85.5337 20.3566 86.0034 20.4179 86.4935L21.3572 92.7626L15.6803 89.9446C15.2515 89.7404 14.7409 89.7404 14.3121 89.9446L8.63519 92.7626L9.57453 86.4935C9.63579 86.0238 9.49285 85.5337 9.1457 85.1866L4.69401 80.6532L10.9427 79.6118C11.4124 79.5301 11.8208 79.2442 12.0454 78.8154L14.986 73.1997L17.9266 78.7949C18.1512 79.2238 18.5596 79.5097 19.0293 79.5913L25.278 80.6328C25.278 80.6532 20.8467 85.1866 20.8467 85.1866Z" fill="black"/>
<path d="M61.7082 78.1211L53.3154 76.712L49.3742 69.1564C49.1087 68.6459 48.5778 68.3396 48.006 68.3396C47.4342 68.3396 46.9033 68.6663 46.6378 69.1564L42.6967 76.712L34.3038 78.1211C33.732 78.2232 33.2828 78.6112 33.099 79.1625C32.9152 79.7139 33.0581 80.3061 33.4665 80.7145L39.4294 86.7998L38.1837 95.2335C38.102 95.8053 38.3266 96.3567 38.7963 96.7038C39.266 97.0305 39.8582 97.0918 40.3891 96.8263L48.006 93.0281L55.6229 96.8263C55.8475 96.9284 56.0721 96.9897 56.2968 96.9897C56.6235 96.9897 56.9298 96.8876 57.1953 96.7038C57.665 96.3771 57.8896 95.8053 57.8079 95.2335L56.5622 86.7998L62.5251 80.7145C62.9335 80.3061 63.056 79.7139 62.8926 79.1625C62.7293 78.6112 62.2596 78.2232 61.7082 78.1211ZM53.8463 85.1866C53.5196 85.5337 53.3562 86.0034 53.4175 86.4935L54.3568 92.7626L48.6799 89.9446C48.4553 89.8425 48.2306 89.7812 48.006 89.7812C47.7814 89.7812 47.5363 89.8425 47.3321 89.9446L41.6552 92.7626L42.5946 86.4935C42.6558 86.0238 42.5129 85.5337 42.1657 85.1866L37.714 80.6532L43.9627 79.6118C44.4324 79.5301 44.8408 79.2442 45.0654 78.8154L48.006 73.1997L50.9466 78.8154C51.1712 79.2442 51.5796 79.5301 52.0493 79.6118L58.298 80.6532L53.8463 85.1866Z" fill="black"/>
<path d="M95.9128 79.1625C95.729 78.6112 95.2798 78.2232 94.708 78.1211L86.3151 76.712L82.3739 69.1564C82.1085 68.6459 81.5775 68.3396 81.0058 68.3396C80.434 68.3396 79.9031 68.6663 79.6376 69.1564L75.6964 76.712L67.3035 78.1211C66.7318 78.2232 66.2825 78.6112 66.0987 79.1625C65.9149 79.7139 66.0579 80.3061 66.4663 80.7145L72.4291 86.7998L71.1835 95.2335C71.1018 95.8053 71.3264 96.3567 71.7961 96.7038C72.2657 97.0305 72.8579 97.0918 73.3889 96.8263L81.0058 93.0281L88.6226 96.8263C88.8473 96.9284 89.0719 96.9897 89.2965 96.9897C89.6233 96.9897 89.9296 96.8876 90.195 96.7038C90.6647 96.3771 90.8893 95.8053 90.8077 95.2335L89.562 86.7998L95.5248 80.7145C95.9536 80.3061 96.0966 79.6935 95.9128 79.1625ZM86.8665 85.1866C86.5397 85.5337 86.3764 86.0034 86.4376 86.4935L87.377 92.7626L81.7001 89.9242C81.4754 89.8221 81.2508 89.7608 81.0262 89.7608C80.8016 89.7608 80.5565 89.8221 80.3523 89.9242L74.6754 92.7422L75.6147 86.4731C75.676 86.0034 75.533 85.5133 75.1859 85.1662L70.7342 80.6328L76.9829 79.5913C77.4526 79.5097 77.861 79.2238 78.0856 78.7949L81.0262 73.1793L83.9463 78.7949C84.171 79.2238 84.5794 79.5097 85.049 79.5913L91.2977 80.6328L86.8665 85.1866Z" fill="black"/>
<path d="M48.0061 23.0467C50.0073 23.0467 51.9268 22.1686 53.2542 20.6575C53.8055 20.0244 53.7442 19.0442 53.1112 18.4929C52.4782 17.9415 51.498 18.0028 50.9466 18.6358C50.2115 19.4935 49.1292 19.9836 48.0265 19.9836C46.9238 19.9836 45.8415 19.4935 45.1063 18.6358C44.555 18.0028 43.5748 17.9211 42.9417 18.4929C42.3087 19.0442 42.227 20.0244 42.7988 20.6575C44.0853 22.1686 46.0048 23.0467 48.0061 23.0467Z" fill="black"/>
</svg>
