<svg width="96" height="97" viewBox="0 0 96 97" fill="none" xmlns="http://www.w3.org/2000/svg">
<path d="M3.28851 45.8063H13.6647L17.4026 53.2616C17.6681 53.7723 18.1992 54.0991 18.7711 54.0991C19.343 54.0991 19.874 53.7723 20.1396 53.2616L23.8774 45.8063H24.6332C25.4706 45.8063 26.1651 45.1118 26.1651 44.2744C26.1651 43.4369 25.4706 42.7425 24.6332 42.7425H22.9174C22.3455 42.7425 21.8145 43.0693 21.5489 43.5799L18.7711 49.1357L15.9932 43.5799C15.7277 43.0693 15.1966 42.7425 14.6247 42.7425H3.28851C3.16596 42.7425 3.06383 42.6403 3.06383 42.5178V4.28119C3.06383 4.15863 3.16596 4.05651 3.28851 4.05651H34.2536C34.3762 4.05651 34.4783 4.15863 34.4783 4.28119V20.8871C34.4783 21.7246 35.1728 22.4191 36.0102 22.4191C36.8477 22.4191 37.5421 21.7246 37.5421 20.8871V4.28119C37.5421 2.46331 36.0715 0.992676 34.2536 0.992676H3.28851C1.47064 0.992676 0 2.46331 0 4.28119V42.5178C0 44.3357 1.47064 45.8063 3.28851 45.8063Z" fill="black"/>
<path d="M18.7709 7.12012C14.5428 7.12012 11.1113 10.5516 11.1113 14.7797C11.1113 19.0078 14.5428 22.4393 18.7709 22.4393C22.999 22.4393 26.4305 19.0078 26.4305 14.7797C26.4305 10.5516 22.999 7.12012 18.7709 7.12012ZM18.7709 19.3754C16.2381 19.3754 14.1752 17.3125 14.1752 14.7797C14.1752 12.2469 16.2381 10.1839 18.7709 10.1839C21.3037 10.1839 23.3666 12.2469 23.3666 14.7797C23.3666 17.3125 21.3037 19.3754 18.7709 19.3754Z" fill="black"/>
<path d="M18.7711 28.567C20.5685 28.567 22.3251 29.0776 23.8366 30.0172C24.5515 30.4666 25.4911 30.2419 25.9405 29.527C26.3898 28.8121 26.1651 27.8725 25.4502 27.4232C23.4485 26.1772 21.12 25.5032 18.7507 25.5032C11.806 25.5032 6.12769 31.1815 6.12769 38.1466C6.12769 38.984 6.82215 39.6785 7.6596 39.6785H24.6332C25.4707 39.6785 26.1651 38.984 26.1651 38.1466C26.1651 37.3091 25.4707 36.6147 24.6332 36.6147H9.31407C10.0494 32.0598 14.0119 28.567 18.7711 28.567Z" fill="black"/>
<path d="M92.7116 0.992676H61.7465C59.9286 0.992676 58.458 2.46331 58.458 4.28119V20.8871C58.458 21.7246 59.1525 22.4191 59.9899 22.4191C60.8274 22.4191 61.5218 21.7246 61.5218 20.8871V4.28119C61.5218 4.15863 61.624 4.05651 61.7465 4.05651H92.7116C92.8342 4.05651 92.9363 4.15863 92.9363 4.28119V42.5178C92.9363 42.6403 92.8342 42.7425 92.7116 42.7425H81.3755C80.8035 42.7425 80.2725 43.0693 80.0069 43.5799L77.2291 49.1357L74.4512 43.5799C74.1857 43.0693 73.6546 42.7425 73.0827 42.7425H71.3669C70.5295 42.7425 69.835 43.4369 69.835 44.2744C69.835 45.1118 70.5295 45.8063 71.3669 45.8063H72.1227L75.8606 53.2616C76.1261 53.7723 76.6572 54.0991 77.2291 54.0991C77.801 54.0991 78.332 53.7723 78.5976 53.2616L82.3355 45.8063H92.7116C94.5295 45.8063 96.0001 44.3357 96.0001 42.5178V4.28119C96.0001 2.46331 94.5295 0.992676 92.7116 0.992676Z" fill="black"/>
<path d="M77.2289 7.12012C73.0008 7.12012 69.5693 10.5516 69.5693 14.7797C69.5693 19.0078 73.0008 22.4393 77.2289 22.4393C81.457 22.4393 84.8885 19.0078 84.8885 14.7797C84.8885 10.5516 81.457 7.12012 77.2289 7.12012ZM77.2289 19.3754C74.6961 19.3754 72.6332 17.3125 72.6332 14.7797C72.6332 12.2469 74.6961 10.1839 77.2289 10.1839C79.7617 10.1839 81.8247 12.2469 81.8247 14.7797C81.8247 17.3125 79.7617 19.3754 77.2289 19.3754Z" fill="black"/>
<path d="M69.8349 38.1466C69.8349 38.984 70.5293 39.6785 71.3668 39.6785H88.3404C89.1779 39.6785 89.8723 38.984 89.8723 38.1466C89.8723 31.1815 84.194 25.5032 77.2289 25.5032C74.8596 25.5032 72.531 26.1568 70.5293 27.4232C69.8144 27.8725 69.5898 28.8121 70.0391 29.527C70.4885 30.2419 71.4281 30.4666 72.143 30.0172C73.6545 29.0572 75.411 28.567 77.2085 28.567C81.9676 28.567 85.9302 32.0598 86.6655 36.6147H71.3464C70.5293 36.6147 69.8349 37.3091 69.8349 38.1466Z" fill="black"/>
<path d="M29.229 28.7712V67.0078C29.229 68.8257 30.6996 70.2963 32.5175 70.2963H42.8937L46.6316 77.7516C46.8971 78.2622 47.4282 78.5891 48.0001 78.5891C48.572 78.5891 49.103 78.2622 49.3686 77.7516L53.1065 70.2963H63.4826C65.3005 70.2963 66.7711 68.8257 66.7711 67.0078V28.7712C66.7711 26.9533 65.3005 25.4827 63.4826 25.4827H32.5175C30.6996 25.4827 29.229 26.9533 29.229 28.7712ZM63.7073 28.7712V67.0078C63.7073 67.1303 63.6052 67.2325 63.4826 67.2325H52.1465C51.5745 67.2325 51.0435 67.5593 50.7779 68.0699L48.0001 73.6461L45.2222 68.0903C44.9567 67.5797 44.4256 67.2529 43.8537 67.2529H32.5175C32.395 67.2529 32.2928 67.1508 32.2928 67.0282V28.7712C32.2928 28.6486 32.395 28.5465 32.5175 28.5465H63.4826C63.6052 28.5465 63.7073 28.6486 63.7073 28.7712Z" fill="black"/>
<path d="M47.9999 46.93C52.228 46.93 55.6595 43.4985 55.6595 39.2704C55.6595 35.0423 52.228 31.6108 47.9999 31.6108C43.7718 31.6108 40.3403 35.0423 40.3403 39.2704C40.3403 43.4985 43.7718 46.93 47.9999 46.93ZM47.9999 34.6747C50.5327 34.6747 52.5957 36.7376 52.5957 39.2704C52.5957 41.8032 50.5327 43.8662 47.9999 43.8662C45.4671 43.8662 43.4042 41.8032 43.4042 39.2704C43.4042 36.7376 45.4671 34.6747 47.9999 34.6747Z" fill="black"/>
<path d="M36.8884 64.1692H59.1113C59.9488 64.1692 60.6433 63.4747 60.6433 62.6373C60.6433 55.6722 54.965 49.9939 47.9998 49.9939C41.0347 49.9939 35.3564 55.6722 35.3564 62.6373C35.3564 63.4952 36.0305 64.1692 36.8884 64.1692ZM47.9998 53.0577C52.759 53.0577 56.7215 56.5505 57.4569 61.1054H38.5428C39.2781 56.5505 43.2407 53.0577 47.9998 53.0577Z" fill="black"/>
<path d="M77.9234 90.9671C78.8221 90.9671 79.5574 90.2317 79.5574 89.333C79.5574 88.4343 78.8221 87.699 77.9234 87.699C77.0246 87.699 76.2893 88.4343 76.2893 89.333C76.2893 90.2317 77.0246 90.9671 77.9234 90.9671Z" fill="black"/>
<path d="M69.5491 90.9671C70.4478 90.9671 71.1831 90.2317 71.1831 89.333C71.1831 88.4343 70.4478 87.699 69.5491 87.699C68.6504 87.699 67.915 88.4343 67.915 89.333C67.915 90.2317 68.6504 90.9671 69.5491 90.9671Z" fill="black"/>
<path d="M86.2979 90.9671C87.1966 90.9671 87.9319 90.2317 87.9319 89.333C87.9319 88.4343 87.1966 87.699 86.2979 87.699C85.3991 87.699 84.6638 88.4343 84.6638 89.333C84.6638 90.2317 85.3991 90.9671 86.2979 90.9671Z" fill="black"/>
<path d="M94.4681 81.6733H1.53191C0.694468 81.6733 0 82.3678 0 83.2053V95.4606C0 96.298 0.694468 96.9925 1.53191 96.9925H94.4681C95.3055 96.9925 96 96.298 96 95.4606V83.2053C96 82.3678 95.3055 81.6733 94.4681 81.6733ZM3.06383 84.7372H59.7447V93.9287H3.06383V84.7372ZM92.9362 93.9287H62.8085V84.7372H92.9362V93.9287Z" fill="black"/>
</svg>
