<svg width="18" height="15" viewBox="0 0 18 15" fill="none" xmlns="http://www.w3.org/2000/svg">
<path d="M6.7532 8.46907L8.47274 10.365C8.75932 10.6773 9.30311 10.6773 9.5897 10.365L11.3092 8.46907L15.7109 13.1978H2.3515L6.7532 8.46907ZM5.7428 7.35578L1.51745 11.8934V2.6932L5.7428 7.35578ZM9.03122 8.75199L2.45805 1.49908H15.6007L9.03122 8.75199ZM16.5376 2.6932V11.8934L12.3123 7.35578L16.5376 2.6932ZM17.2504 0H0.753214C0.338028 0 0 0.334354 0 0.74954V13.9473C0 14.3625 0.338028 14.6969 0.753214 14.6969H17.2468C17.6619 14.6969 18 14.3625 18 13.9473V0.74954C18.0036 0.334354 17.6656 0 17.2504 0Z" fill="#FDB948"/>
</svg>
