<svg width="18" height="18" viewBox="0 0 18 18" fill="none" xmlns="http://www.w3.org/2000/svg">
<path d="M3.91518 11.8469L1.61926 13.2759C1.50171 13.342 1.47233 13.4633 1.52375 13.5551L2.51192 15.2816C3.06294 16.2441 4.26049 16.8465 5.24865 16.4057C11.0931 13.8049 13.9878 10.9469 16.405 5.2494C16.8274 4.25389 16.2433 3.06369 15.2809 2.51267L13.5544 1.5245C13.4956 1.49144 13.3486 1.45471 13.2899 1.59797L11.8352 3.93797C11.7984 4.00409 11.8242 4.12164 11.9123 4.17675L12.4193 4.50001C13.1099 4.94083 13.389 5.80777 13.0842 6.55715C12.4119 8.21389 10.4246 10.3041 10.3401 10.3923C10.2299 10.4988 8.19477 12.431 6.55273 13.0886C5.80334 13.3898 4.94375 13.1069 4.50293 12.42L4.17967 11.9094C4.13926 11.8506 4.02171 11.7808 3.91518 11.8469ZM4.60947 18C3.24661 18 1.92049 17.2653 1.21151 16.0273L0.223347 14.3008C-0.23951 13.489 0.0396737 12.4531 0.85151 11.9865L3.14743 10.5576C3.95559 10.0947 4.95477 10.3371 5.44334 11.1049L5.76661 11.6155C5.81804 11.6927 5.91355 11.7294 5.99069 11.6963C7.36089 11.149 9.2564 9.34899 9.27477 9.33429C9.27477 9.33429 11.1262 7.38368 11.6882 5.99511C11.7213 5.9143 11.6846 5.81879 11.6074 5.76736L11.1005 5.44409C10.3364 4.95552 10.0903 3.96001 10.5421 3.17022L11.9968 0.826546C12.2099 0.459199 13.1062 -0.404065 14.3001 0.220424L16.0266 1.20859C17.5878 2.10491 18.3519 3.98573 17.8413 5.67919C17.0001 8.4747 15.4168 10.98 13.1356 13.1327C10.9829 15.4102 8.47762 16.9935 5.68212 17.8384C5.32946 17.9486 4.96947 18 4.60947 18Z" fill="#FDB948"/>
<path d="M1.3363 7.65149C0.9212 7.65149 0.586914 7.3172 0.586914 6.9021C0.586914 3.41966 3.41916 0.58374 6.9016 0.58374C7.3167 0.58374 7.65099 0.918026 7.65099 1.33313C7.65099 1.74823 7.3167 2.08251 6.9016 2.08251C4.24569 2.08251 2.08569 4.24251 2.08569 6.89843C2.08569 7.3172 1.7514 7.65149 1.3363 7.65149Z" fill="#FDB948"/>
<path d="M4.56531 7.65175C4.1502 7.65175 3.81592 7.31746 3.81592 6.90236C3.81592 5.20155 5.20081 3.81665 6.90163 3.81665C7.31673 3.81665 7.65102 4.15094 7.65102 4.56604C7.65102 4.98114 7.31673 5.31542 6.90163 5.31542C6.02734 5.31542 5.31469 6.02808 5.31469 6.90236C5.31469 7.31746 4.98041 7.65175 4.56531 7.65175Z" fill="#FDB948"/>
</svg>
