<svg width="15" height="18" viewBox="0 0 15 18" fill="none" xmlns="http://www.w3.org/2000/svg">
<path d="M13.6564 3.12952C12.2404 1.1428 9.9951 0 7.49989 0C5.00469 0 2.76298 1.1428 1.34698 3.12952C-0.0617803 5.1092 -0.387714 7.61282 0.474201 9.82809C0.705976 10.4329 1.07175 11.0201 1.56065 11.5687L7.00737 17.7785C7.1305 17.9191 7.31158 18 7.49989 18C7.68821 18 7.86929 17.9191 7.99242 17.7785L13.4355 11.5687C13.928 11.0166 14.2938 10.4294 14.522 9.82809C15.3875 7.61633 15.0652 5.1092 13.6564 3.12952ZM13.3124 9.39207C13.1349 9.85622 12.8488 10.3133 12.4577 10.7529L12.4541 10.7564L7.49989 16.4036L2.54569 10.7529C2.15457 10.3133 1.86847 9.85622 1.6874 9.38855C0.973966 7.55655 1.24558 5.48545 2.4117 3.84685C3.58144 2.20121 5.43564 1.25884 7.49989 1.25884C9.56415 1.25884 11.4183 2.20121 12.5881 3.84685C13.7542 5.48545 14.0258 7.55655 13.3124 9.39207Z" fill="#FDB948"/>
<path d="M7.52686 3.73438C5.58234 3.73438 4 5.31672 4 7.26124C4 9.20576 5.58234 10.7881 7.52686 10.7881C9.47138 10.7881 11.0537 9.20576 11.0537 7.26124C11.0537 5.31672 9.47138 3.73438 7.52686 3.73438ZM7.52686 9.52574C6.27857 9.52574 5.26235 8.50953 5.26235 7.26124C5.26235 6.01295 6.27857 4.99673 7.52686 4.99673C8.77515 4.99673 9.79136 6.01295 9.79136 7.26124C9.79136 8.50953 8.77867 9.52574 7.52686 9.52574Z" fill="#FDB948"/>
</svg>
