<svg width="19" height="18" viewBox="0 0 19 18" fill="none" xmlns="http://www.w3.org/2000/svg">
<path d="M9.00092 1.7212L16.0694 7.52954L13.1781 9.91019V7.20992C13.1781 6.79477 12.8438 6.46045 12.4286 6.46045H5.57322C5.15808 6.46045 4.82376 6.79477 4.82376 7.20992V9.91019L1.93244 7.52954L9.00092 1.7212ZM6.72681 13.4224L8.52332 14.8993C8.79886 15.1271 9.19931 15.1271 9.47484 14.8993L11.2714 13.4224L15.1142 16.4974H2.88764L6.72681 13.4224ZM5.54383 12.4488L1.49893 15.6892V9.12032L5.54383 12.4488ZM11.6792 11.1446L9.00092 13.3489L6.32269 11.1446V7.95938H11.6828V11.1446H11.6792ZM16.5029 9.12032V15.6892L12.458 12.4488L16.5029 9.12032ZM17.7116 6.93805L9.47852 0.170834C9.20298 -0.0569446 8.80253 -0.0569446 8.52699 0.170834L0.293908 6.93438C0.113889 7.07031 0 7.28707 0 7.52954V17.2505C0 17.6657 0.33432 18 0.749464 18H17.2524C17.6675 18 18.0018 17.6657 18.0018 17.2505V7.52954C18.0018 7.29074 17.8879 7.07399 17.7116 6.93805Z" fill="#FDB948"/>
</svg>
