<svg xmlns="http://www.w3.org/2000/svg" width="1149" height="367" fill="none"><g fill="#000" clip-path="url(#a)"><path d="m347.1 302.32-.28-132a22.387 22.387 0 0 0-7.16-16.38L180.47 6a22.42 22.42 0 0 0-30.55 0L7.39 138.76a22.427 22.427 0 0 0-7.11 16.38L.03 302.33a22.435 22.435 0 0 0 13.839 20.756 22.438 22.438 0 0 0 8.591 1.714h108.82V202.87l84.53-50.72V324.8h108.85a22.446 22.446 0 0 0 15.882-6.587 22.436 22.436 0 0 0 6.558-15.893ZM505.86 63.67v47.93h-55.21V63.67h-28.13v121.54h28.13v-49.83h55.21v49.83h28.13V63.67h-28.13ZM650.67 91.8v93.42h-25.7V174.1a35.997 35.997 0 0 1-12.85 9.3 40.617 40.617 0 0 1-16.15 3.2c-12.273 0-21.997-3.533-29.17-10.6-7.173-7.067-10.76-17.533-10.76-31.4V91.8h27.08v48.8c0 15.047 6.31 22.573 18.93 22.58 6.48 0 11.69-2.113 15.63-6.34 3.94-4.227 5.907-10.507 5.9-18.84V91.8h27.09ZM756.28 100.83c7.12 6.947 10.68 17.25 10.68 30.91v53.48h-27.09v-49.31c0-7.413-1.62-12.943-4.86-16.59-3.24-3.647-7.927-5.467-14.06-5.46-6.84 0-12.28 2.11-16.32 6.33-4.04 4.22-6.067 10.5-6.08 18.84v46.19H671.5V91.8h25.87v10.94a36.003 36.003 0 0 1 13.37-9.11 46.6 46.6 0 0 1 17.54-3.21c11.573 0 20.907 3.47 28 10.41ZM847.39 180.7a27.867 27.867 0 0 1-9.81 4.43 49.846 49.846 0 0 1-12.24 1.48c-11.107 0-19.703-2.837-25.79-8.51s-9.123-14.007-9.11-25v-38.38h-14.41V93.89h14.41V71.14h27.08v22.75h23.27v20.83h-23.27v38c0 3.933 1 6.97 3 9.11 2 2.14 4.867 3.213 8.6 3.22a17.408 17.408 0 0 0 10.94-3.48l7.33 19.13ZM882.98 116.11a22.251 22.251 0 0 0-7.64 14.24h46a22.417 22.417 0 0 0-7.65-14.15 22.816 22.816 0 0 0-15.27-5.3 23.36 23.36 0 0 0-15.46 5.21m63.38 30h-70.67a22 22 0 0 0 9 13.72c4.74 3.333 10.643 5 17.71 5 4.41.079 8.797-.657 12.94-2.17a31.15 31.15 0 0 0 10.5-6.86l14.46 15.7c-8.8 10.067-21.65 15.1-38.55 15.1-10.527 0-19.86-2.057-28-6.17a45.09 45.09 0 0 1-18.75-17.1 47.11 47.11 0 0 1-6.6-24.83 47.745 47.745 0 0 1 6.51-24.74 45.582 45.582 0 0 1 17.94-17.16 55.3 55.3 0 0 1 50.26-.26 43.079 43.079 0 0 1 17.45 16.93c4.233 7.333 6.347 15.87 6.34 25.61 0 .353-.173 2.783-.52 7.29M999.57 93.89a48.621 48.621 0 0 1 19-3.48v25c-3.01-.233-5.03-.35-6.08-.35-7.76 0-13.837 2.17-18.23 6.51-4.393 4.34-6.593 10.853-6.6 19.54v44.1h-27.09V91.8h25.87v12.33a30.093 30.093 0 0 1 13.11-10.24M516.62 269.98h16.66v47.4a64.599 64.599 0 0 1-21 11.46 78.627 78.627 0 0 1-25 4 67.827 67.827 0 0 1-33.16-8.08 59.84 59.84 0 0 1-23.18-22.22 64.657 64.657 0 0 1 0-63.81 58.998 58.998 0 0 1 23.26-22.23c9.9-5.333 21.043-8 33.43-8a70.485 70.485 0 0 1 26.47 4.77 53.997 53.997 0 0 1 20.23 14l-10.76 10.76c-9.72-9.367-21.483-14.053-35.29-14.06a51.322 51.322 0 0 0-24.91 6 43.916 43.916 0 0 0-17.24 16.63 49.053 49.053 0 0 0 0 47.92 44.491 44.491 0 0 0 17.28 16.76 50.352 50.352 0 0 0 24.74 6.07c10.88 0 20.37-2.603 28.47-7.81v-39.56ZM601.53 315.39a24.393 24.393 0 0 0 10.07-12.07v-12.85h-25.7c-14.12 0-21.18 4.747-21.18 14.24a12.884 12.884 0 0 0 5.38 10.94c3.587 2.667 8.563 4 14.93 4a31.003 31.003 0 0 0 16.5-4.25m16.58-67.46c6.78 6.247 10.17 15.56 10.17 27.94v55.57h-15.81v-12.16a26.294 26.294 0 0 1-11.9 9.81 45.344 45.344 0 0 1-18.29 3.39c-10.3 0-18.547-2.49-24.74-7.47a23.948 23.948 0 0 1-6.997-8.696 23.947 23.947 0 0 1-2.293-10.924c0-8.1 2.95-14.61 8.85-19.53 5.9-4.92 15.28-7.38 28.14-7.38h26.39v-3.3c0-7.18-2.083-12.677-6.25-16.49-4.167-3.813-10.303-5.723-18.41-5.73a48.551 48.551 0 0 0-16 2.69 41.074 41.074 0 0 0-13.2 7.2l-7-12.5a50.524 50.524 0 0 1 17-8.77 71.414 71.414 0 0 1 21-3c12.727 0 22.48 3.127 29.26 9.38M667.16 202.61h-16.67v128.83h16.67V202.61ZM706.92 202.61h-16.67v128.83h16.67V202.61ZM785.28 313.82a28.76 28.76 0 0 0 11-11.46 37.812 37.812 0 0 0 0-33.85 28.224 28.224 0 0 0-11-11.38 33.638 33.638 0 0 0-31.78 0 28.898 28.898 0 0 0-11.11 11.38 37.142 37.142 0 0 0 0 33.85 29.452 29.452 0 0 0 11.11 11.46 33.002 33.002 0 0 0 31.78 0Zm-40.54 12.59a44.082 44.082 0 0 1-17.11-16.75 50.704 50.704 0 0 1 0-48.45 43.45 43.45 0 0 1 17.14-16.61 53.472 53.472 0 0 1 49.22 0 43.673 43.673 0 0 1 17 16.66 50.704 50.704 0 0 1 0 48.45 44.32 44.32 0 0 1-17 16.75 52.852 52.852 0 0 1-49.22 0M968.23 239.42l-34.38 92.03h-15.97l-26.57-69.8-26.91 69.8h-15.97l-34.21-92.03h15.8l26.74 73.27 27.78-73.27h14.06l27.26 73.62 27.44-73.62h14.93ZM1019.62 315.39a24.341 24.341 0 0 0 10.07-12.07v-12.85h-25.7c-14.12 0-21.18 4.747-21.18 14.24a12.884 12.884 0 0 0 5.38 10.94c3.587 2.667 8.567 4 14.94 4a30.99 30.99 0 0 0 16.49-4.25m16.58-67.46c6.77 6.253 10.15 15.57 10.16 27.95v55.57h-15.8v-12.17a26.299 26.299 0 0 1-11.9 9.81 45.297 45.297 0 0 1-18.31 3.39c-10.307 0-18.557-2.49-24.75-7.47a23.934 23.934 0 0 1-9.32-19.62c0-8.1 2.953-14.61 8.86-19.53 5.907-4.92 15.283-7.38 28.13-7.38h26.39v-3.3c0-7.18-2.08-12.677-6.25-16.49-4.17-3.813-10.3-5.723-18.4-5.73a48.577 48.577 0 0 0-16 2.69 40.919 40.919 0 0 0-13.19 7.2l-6.95-12.5a50.433 50.433 0 0 1 17-8.77 71.278 71.278 0 0 1 21-3c12.73 0 22.48 3.127 29.25 9.38M1148.28 239.42l-44.62 101.23c-3.94 9.38-8.54 15.977-13.81 19.79-5.27 3.813-11.6 5.723-19 5.73-4.46.01-8.89-.723-13.11-2.17a27.01 27.01 0 0 1-10.5-6.33l7.12-12.51a23.145 23.145 0 0 0 7.57 5.04 23.163 23.163 0 0 0 8.92 1.74c3.66.124 7.24-1.013 10.16-3.22 2.72-2.14 5.18-5.807 7.38-11l3-6.43-40.63-91.85h17.36l32.13 73.62 31.77-73.62 16.26-.02Z"/></g><defs><clipPath id="a"><path fill="#fff" d="M0 0h1148.28v366.17H0z"/></clipPath></defs></svg>